<svg id="index_320px" data-name="index@320px" xmlns="http://www.w3.org/2000/svg" viewBox="0 0 25.84 21"><defs><style></style></defs><title>tw</title><g id="footer"><g id="social" class="cls-1"><path id="twitter" class="cls-2" d="M1443.85,4061.89a10.6,10.6,0,0,1-3,.83,5.32,5.32,0,0,0,2.33-2.93,10.61,10.61,0,0,1-3.37,1.29,5.31,5.31,0,0,0-9,4.84,15.05,15.05,0,0,1-10.93-5.54,5.31,5.31,0,0,0,1.64,7.08,5.28,5.28,0,0,1-2.4-.66v0.07a5.3,5.3,0,0,0,4.25,5.2,5.31,5.31,0,0,1-2.39.09,5.31,5.31,0,0,0,5,3.68,10.64,10.64,0,0,1-6.58,2.27,10.79,10.79,0,0,1-1.26-.07,15.08,15.08,0,0,0,23.21-12.7q0-.34,0-0.69A10.77,10.77,0,0,0,1443.85,4061.89Z" transform="translate(-1418.01 -4059.4)"/></g></g></svg>