<svg xmlns="http://www.w3.org/2000/svg" xmlns:xlink="http://www.w3.org/1999/xlink" viewBox="0 0 9910.1192 5600"><defs><pattern id="a" width="4000" height="6000" patternTransform="translate(532.1124 2.2694) scale(0.2)" patternUnits="userSpaceOnUse" viewBox="0 0 4000 6000"><rect width="4000" height="6000" style="fill:none"/><path d="M3555.3089,4527.6348l-5.9008,1.6584a3.4664,3.4664,0,0,0-2.3992,4.2749l2.1316,7.5847c2.2214,7.9044,6.9233,13.1491,13.6909,11.2471" style="fill:none;stroke:#000;stroke-linecap:round;stroke-linejoin:round;stroke-width:2px;fill-rule:evenodd"/><path d="M3589.13,4576.1043l13.8694-3.898a1.7158,1.7158,0,0,0,1.1876-2.1161l0-.0012a5.6212,5.6212,0,0,0-5.1684-4.0951l-7.0148-.3038a1.7158,1.7158,0,0,1-1.5776-1.25l-.9371-3.3345a1.7313,1.7313,0,0,1,.9884-2.0455c6.95-3.1093,10.2282-13.6424,8.1413-21.0682l-7.2021-25.627a1.7158,1.7158,0,0,0-2.1161-1.1876l-17.0688,4.7972-17.0688,4.7972a1.7159,1.7159,0,0,0-1.1876,2.1161l7.2021,25.627c2.0869,7.4258,10.372,14.7091,17.9243,13.7424a1.7312,1.7312,0,0,1,1.9092,1.2311l.9371,3.3345a1.7158,1.7158,0,0,1-.6955,1.8888l-5.83,3.9137a5.6214,5.6214,0,0,0-2.2785,6.1881l0,.0012a1.7158,1.7158,0,0,0,2.1161,1.1876Z" style="fill:none;stroke:#000;stroke-linecap:round;stroke-linejoin:round;stroke-width:2px;fill-rule:evenodd"/><path d="M3592.75,4517.1119l5.9008-1.6584a3.4662,3.4662,0,0,1,4.2749,2.3991l2.1316,7.5847c2.2214,7.9044.94,14.8307-5.8276,16.7328" style="fill:none;stroke:#000;stroke-linecap:round;stroke-linejoin:round;stroke-width:2px;fill-rule:evenodd"/><polyline points="3581.144 4544.378 3576.934 4529.399 3573.967 4533.208" style="fill:none;stroke:#000;stroke-linecap:round;stroke-linejoin:round;stroke-width:2px;fill-rule:evenodd"/><line x1="3577.5341" y1="4545.3923" x2="3584.753" y2="4543.3634" style="fill:none;stroke:#000;stroke-linecap:round;stroke-linejoin:round;stroke-width:2px"/><path d="M2296.44,5648.1664l4.77,44.2181a.86.86,0,0,0,1.2692.6618s2.7073-6.69,13.7695-12.7638,18.16-4.7661,18.16-4.7661a.86.86,0,0,0,.123-1.4261l-34.7462-27.7608" style="fill:none;stroke:#000;stroke-linejoin:round;stroke-width:2px;fill-rule:evenodd"/><path d="M2301.8115,5693.1156s4.8258,1.1019,17.8855-6.068,15.1287-12.0574,15.1287-12.0574" style="fill:none;stroke:#000;stroke-linejoin:round;stroke-width:2px;fill-rule:evenodd"/><circle cx="2296.6641" cy="5644.6092" r="3.5671" transform="translate(-3756.5704 4941.3092) rotate(-61.2325)" style="fill:none;stroke:#000;stroke-linejoin:round;stroke-width:2px"/><path d="M2280.37,5663.1762s2.6992-.6105,4.0456,2.6887c1.22,2.9889,4.1136.2059,4.8536,3.2257.73,2.9791,3.9351,2.6152,3.9351,2.6152" style="fill:none;stroke:#000;stroke-linecap:round;stroke-miterlimit:10;stroke-width:2px"/><path d="M2295.1336,5684.69a2.1973,2.1973,0,0,0-2.8474-.6251c-1.7988.7194-1.804-1.6892-3.4161-.75a2.1686,2.1686,0,0,1-2.77-.608" style="fill:none;stroke:#000;stroke-linecap:round;stroke-miterlimit:10;stroke-width:2px"/><path d="M2317.0617,5652.8227a2.1975,2.1975,0,0,1-.354-2.8936c.8853-1.7236-1.5114-1.9545-.4248-3.4716a2.1689,2.1689,0,0,0-.3444-2.8146" style="fill:none;stroke:#000;stroke-linecap:round;stroke-miterlimit:10;stroke-width:2px"/><path d="M2329.3256,5648.2489s-2.44.5118-1.8065,3.5431c.5741,2.7462-3.1354,1.6553-2.1674,4.2508.9549,2.56-1.7572,3.4464-1.7572,3.4464" style="fill:none;stroke:#000;stroke-linecap:round;stroke-miterlimit:10;stroke-width:2px"/><circle cx="2291.2218" cy="5657.739" r="0.4301" transform="translate(-3582.8272 7317.6354) rotate(-83.7328)" style="fill:none;stroke:#000;stroke-linecap:round;stroke-miterlimit:10;stroke-width:3px"/><circle cx="2333.7672" cy="5664.8079" r="0.4301" transform="translate(-3551.9529 7366.2237) rotate(-83.7328)" style="fill:none;stroke:#000;stroke-linecap:round;stroke-miterlimit:10;stroke-width:3px"/><path d="M2668.6808,5088.5946c-20.2483,1.5576-35.5686,17.0469-34.219,34.5964a29.3555,29.3555,0,0,0,10.3018,19.8754l-.0366-.0162-2.427,23.4746,22.4948-14.617-.1-.044a42.0969,42.0969,0,0,0,8.8729.283c20.2483-1.5576,35.5688-17.0469,34.2192-34.5964S2688.9291,5087.037,2668.6808,5088.5946Z" style="fill:none;stroke:#000;stroke-linecap:round;stroke-linejoin:round;stroke-width:2px"/><circle cx="2688.6266" cy="5120.8319" r="1.0415" transform="translate(-2623.3335 7408.7811) rotate(-85.6012)" style="fill:none;stroke:#000;stroke-linecap:round;stroke-miterlimit:10;stroke-width:3px"/><circle cx="2671.2627" cy="5122.1676" r="1.0415" transform="translate(-2640.6973 7392.7017) rotate(-85.6012)" style="fill:none;stroke:#000;stroke-linecap:round;stroke-miterlimit:10;stroke-width:3px"/><circle cx="2653.8989" cy="5123.5033" r="1.0415" transform="matrix(0.0767, -0.9971, 0.9971, 0.0767, -2658.0612, 7376.6223)" style="fill:none;stroke:#000;stroke-linecap:round;stroke-miterlimit:10;stroke-width:3px"/><path d="M2719.3469,5158.8038c11.7772-1.7338,22.543,5.1356,24.0461,15.3432a17.2077,17.2077,0,0,1-3.3131,12.6975l.0188-.014,4.43,13.1054-14.7541-5.4408.0513-.0381a24.6758,24.6758,0,0,1-5.0357,1.3118c-11.7772,1.7338-22.5431-5.1355-24.0462-15.3432S2707.57,5160.5377,2719.3469,5158.8038Z" style="fill:none;stroke:#000;stroke-linecap:round;stroke-linejoin:round;stroke-width:2px"/><circle cx="2712.1228" cy="5179.8183" r="0.6105" transform="translate(-2807.4738 7108.5951) rotate(-81.6252)" style="fill:none;stroke:#000;stroke-linecap:round;stroke-miterlimit:10;stroke-width:3px"/><circle cx="2722.2224" cy="5178.3314" r="0.6105" transform="translate(-2797.3743 7117.3166) rotate(-81.6252)" style="fill:none;stroke:#000;stroke-linecap:round;stroke-miterlimit:10;stroke-width:3px"/><circle cx="2732.3219" cy="5176.8446" r="0.6105" transform="translate(-2787.2748 7126.0382) rotate(-81.6252)" style="fill:none;stroke:#000;stroke-linecap:round;stroke-miterlimit:10;stroke-width:3px"/><path d="M3575.0228,5261.4321l5.4345,36.3546a3.7723,3.7723,0,0,1-3.1731,4.2886h0a3.7722,3.7722,0,0,1-4.2885-3.1731l-5.4345-36.3547a3.7723,3.7723,0,0,1,3.1731-4.2885h0A3.7723,3.7723,0,0,1,3575.0228,5261.4321Z" style="fill:none;stroke:#000;stroke-linejoin:round;stroke-width:2px;fill-rule:evenodd"/><path d="M3567.6468,5262.5457s-13.0085,8.5237-20.217,9.6012l-3.5707.5337" style="fill:none;stroke:#000;stroke-linejoin:round;stroke-width:2px;fill-rule:evenodd"/><path d="M3576.85,5273.6549a6.0207,6.0207,0,1,1,1.78,11.9091" style="fill:none;stroke:#000;stroke-linejoin:round;stroke-width:2px;fill-rule:evenodd"/><path d="M3526.4991,5275.2753l17.2759-2.5822,3.507,23.4621-17.2759,2.5822a4,4,0,0,1-4.5474-3.3647l-2.3243-15.55A4,4,0,0,1,3526.4991,5275.2753Z" style="fill:none;stroke:#000;stroke-linejoin:round;stroke-width:2px;fill-rule:evenodd"/><path d="M3534.4317,5311.95l4.9314-.7371a2.0872,2.0872,0,0,0,1.7561-1.7586l1.8737-12.6582-12.6541,1.8914,1.72,11.5068A2.0872,2.0872,0,0,0,3534.4317,5311.95Z" style="fill:none;stroke:#000;stroke-linejoin:round;stroke-width:2px;fill-rule:evenodd"/><line x1="3601.7058" y1="5276.0273" x2="3590.942" y2="5277.6363" style="fill:#fff;stroke:#000;stroke-linecap:round;stroke-miterlimit:10;stroke-width:2px"/><line x1="3602.6021" y1="5291.8867" x2="3592.4758" y2="5287.8981" style="fill:#fff;stroke:#000;stroke-linecap:round;stroke-miterlimit:10;stroke-width:2px"/><line x1="3597.9254" y1="5260.5991" x2="3589.4081" y2="5267.3743" style="fill:#fff;stroke:#000;stroke-linecap:round;stroke-miterlimit:10;stroke-width:2px"/><path d="M3573.0776,5298.8788s-14.9324-4.3474-22.1409-3.27l-3.5707.5337" style="fill:none;stroke:#000;stroke-linejoin:round;stroke-width:2px;fill-rule:evenodd"/><path d="M1247.8152,5236.0569l-6.6621,7.3121a.6414.6414,0,0,0-.1614.5183l1.3651,10.0482a.6414.6414,0,0,1-.9149.6637l-8.908-4.3094a.6414.6414,0,0,0-.5684.0048l-9.1889,4.64a.6414.6414,0,0,1-.9242-.6623l1.4206-10.0455a.6414.6414,0,0,0-.19-.5518l-7.307-7.0381a.6414.6414,0,0,1,.32-1.091l10.0968-2.0048a.6414.6414,0,0,0,.4508-.3464l4.3625-8.8823a.6414.6414,0,0,1,1.13-.0407l5.1141,8.7558a.6414.6414,0,0,0,.4464.3088l9.7523,1.6562A.6414.6414,0,0,1,1247.8152,5236.0569Z" style="fill:none;stroke:#000;stroke-linecap:round;stroke-linejoin:round;stroke-width:2px;fill-rule:evenodd"/><line x1="1213.3807" y1="5247.327" x2="1189.6931" y2="5255.489" style="fill:none;stroke:#000;stroke-linecap:round;stroke-linejoin:round;stroke-width:2px"/><line x1="1212.4328" y1="5256.4969" x2="1197.0061" y2="5261.8123" style="fill:none;stroke:#000;stroke-linecap:round;stroke-linejoin:round;stroke-width:2px"/><line x1="1206.9855" y1="5240.6874" x2="1191.5588" y2="5246.0029" style="fill:none;stroke:#000;stroke-linecap:round;stroke-linejoin:round;stroke-width:2px"/><path d="M1546.101,5988.2129l-1.5989,21.3722a1.39,1.39,0,0,0,.4169,1.1l15.75,15.3185a1.39,1.39,0,0,1-.6742,2.3542l-20.9527,4.5461a1.39,1.39,0,0,0-.9633.7675L1528.6,6053.86a1.39,1.39,0,0,1-2.4613.1044l-10.9938-19.0346a1.39,1.39,0,0,0-1.0613-.6873l-21.866-2.2471a1.39,1.39,0,0,1-.9113-2.2887l14.5472-16.9058a1.39,1.39,0,0,0,.3064-1.193l-4.4213-20.98a1.39,1.39,0,0,1,1.8725-1.5781l20.4193,8.1064a1.39,1.39,0,0,0,1.1741-.0694l18.8492-10.2A1.39,1.39,0,0,1,1546.101,5988.2129Z" style="fill:none;stroke:#000;stroke-linecap:round;stroke-linejoin:round;stroke-width:2px;fill-rule:evenodd"/><line x1="1553.5925" y1="5974.4034" x2="1561.643" y2="5961.9732" style="fill:none;stroke:#000;stroke-linecap:round;stroke-linejoin:round;stroke-width:2px"/><line x1="1569.1589" y1="6001.9289" x2="1583.6407" y2="5998.8317" style="fill:none;stroke:#000;stroke-linecap:round;stroke-linejoin:round;stroke-width:2px"/><line x1="1522.1078" y1="5971.4564" x2="1519.0112" y2="5956.9745" style="fill:none;stroke:#000;stroke-linecap:round;stroke-linejoin:round;stroke-width:2px"/><line x1="1493.6529" y1="5978.1814" x2="1483.8789" y2="5967.0563" style="fill:none;stroke:#000;stroke-linecap:round;stroke-linejoin:round;stroke-width:2px"/><path d="M412.8208,5659.3774,375.674,5656.24a2,2,0,0,1-1.8246-2.1611l2.06-24.4122a2,2,0,0,1,2.1612-1.8247l37.1468,3.1373a2,2,0,0,1,1.8246,2.1611l-2.06,24.4122A2,2,0,0,1,412.8208,5659.3774Z" style="fill:none;stroke:#000;stroke-linecap:round;stroke-miterlimit:10;stroke-width:2px"/><line x1="392.5108" y1="5644.0104" x2="375.0069" y2="5656.1838" style="fill:none;stroke:#000;stroke-linecap:round;stroke-linejoin:round;stroke-width:2px"/><line x1="413.7902" y1="5659.4593" x2="398.3196" y2="5644.5034" style="fill:none;stroke:#000;stroke-linecap:round;stroke-linejoin:round;stroke-width:2px"/><path d="M416.0741,5632.391l-19.8817,13.559a1.5239,1.5239,0,0,1-1.8691-.165l-17.0325-16.67" style="fill:none;stroke:#000;stroke-linecap:round;stroke-linejoin:round;stroke-width:2px"/><path d="M406.6568,4656.6794a19.7353,19.7353,0,0,0-17.7884,7.7918l0,0a3.9632,3.9632,0,0,0-.0619,4.6l8.1978,12.046a4.4708,4.4708,0,0,0,3.29,1.9044l8.1781.7536,8.1781.7536a4.4708,4.4708,0,0,0,3.5827-1.271l10.2612-10.345a3.9632,3.9632,0,0,0,.78-4.5337h0a19.7356,19.7356,0,0,0-16.0651-10.9116Z" style="fill:none;stroke:#000;stroke-linecap:round;stroke-linejoin:round;stroke-width:2px;fill-rule:evenodd"/><path d="M417.73,4684.6284l2.6252,101.11a4.9669,4.9669,0,0,1-2.8142,4.5578L400.27,4798.917a4.5853,4.5853,0,0,1-4.7758-.44l-15.4053-11.6324a4.9666,4.9666,0,0,1-1.9338-4.9951l21.0593-98.9273" style="fill:none;stroke:#000;stroke-linecap:round;stroke-linejoin:round;stroke-width:2px;fill-rule:evenodd"/><path d="M387.7032,4736.9971l-14.158,22.3063a6.4385,6.4385,0,0,1-4.0174,2.7918l-.0052.0012a6.6417,6.6417,0,0,1-7.9405-4.5716l-.0013-.005a5.892,5.892,0,0,1,.7284-4.6854l33.1366-52.2075" style="fill:none;stroke:#000;stroke-linejoin:round;stroke-width:2px;fill-rule:evenodd"/><line x1="418.5442" y1="4731.8417" x2="386.0471" y2="4744.5848" style="fill:#fff;stroke:#000;stroke-linecap:round;stroke-miterlimit:10;stroke-width:2px"/><line x1="419.4388" y1="4749.7363" x2="382.4291" y2="4764.2688" style="fill:#fff;stroke:#000;stroke-linecap:round;stroke-miterlimit:10;stroke-width:2px"/><line x1="419.0254" y1="4765.5375" x2="379.1649" y2="4781.2666" style="fill:#fff;stroke:#000;stroke-linecap:round;stroke-miterlimit:10;stroke-width:2px"/><circle cx="2535.0913" cy="4098.9318" r="20.9858" transform="translate(-1965.5929 5822.8145) rotate(-79.2224)" style="fill:none;stroke:#000;stroke-miterlimit:10;stroke-width:2px"/><line x1="2559.4977" y1="4063.0494" x2="2552.3159" y2="4073.6081" style="fill:#fff;stroke:#000;stroke-linecap:round;stroke-miterlimit:10;stroke-width:2px"/><line x1="2510.685" y1="4134.8143" x2="2517.8667" y2="4124.2555" style="fill:#fff;stroke:#000;stroke-linecap:round;stroke-miterlimit:10;stroke-width:2px"/><line x1="2570.9738" y1="4123.338" x2="2560.415" y2="4116.1562" style="fill:#fff;stroke:#000;stroke-linecap:round;stroke-miterlimit:10;stroke-width:2px"/><line x1="2499.2089" y1="4074.5257" x2="2509.7676" y2="4081.7074" style="fill:#fff;stroke:#000;stroke-linecap:round;stroke-miterlimit:10;stroke-width:2px"/><line x1="2577.722" y1="4090.8169" x2="2565.1775" y2="4093.2047" style="fill:#fff;stroke:#000;stroke-linecap:round;stroke-miterlimit:10;stroke-width:2px"/><line x1="2492.4607" y1="4107.0468" x2="2505.0051" y2="4104.6589" style="fill:#fff;stroke:#000;stroke-linecap:round;stroke-miterlimit:10;stroke-width:2px"/><line x1="2543.2061" y1="4141.5623" x2="2540.8182" y2="4129.0179" style="fill:#fff;stroke:#000;stroke-linecap:round;stroke-miterlimit:10;stroke-width:2px"/><line x1="2526.9765" y1="4056.3014" x2="2529.3643" y2="4068.8458" style="fill:#fff;stroke:#000;stroke-linecap:round;stroke-miterlimit:10;stroke-width:2px"/><path d="M2537.4552,4111.3507a12.6419,12.6419,0,1,1-4.7279-24.8377" style="fill:none;stroke:#000;stroke-linecap:round;stroke-miterlimit:10;stroke-width:2px;fill-rule:evenodd"/><path d="M1555.3089,1527.6348l-5.9008,1.6584a3.4664,3.4664,0,0,0-2.3992,4.2749l2.1316,7.5847c2.2214,7.9044,6.9233,13.1491,13.6909,11.2471" style="fill:none;stroke:#000;stroke-linecap:round;stroke-linejoin:round;stroke-width:2px;fill-rule:evenodd"/><path d="M1589.13,1576.1043l13.8694-3.898a1.7158,1.7158,0,0,0,1.1876-2.1161l0-.0012a5.6212,5.6212,0,0,0-5.1684-4.0951l-7.0148-.3038a1.7158,1.7158,0,0,1-1.5776-1.25l-.9371-3.3345a1.7313,1.7313,0,0,1,.9884-2.0455c6.95-3.1093,10.2282-13.6424,8.1413-21.0682l-7.2021-25.627a1.7158,1.7158,0,0,0-2.1161-1.1876l-17.0688,4.7972-17.0688,4.7972a1.7159,1.7159,0,0,0-1.1876,2.1161l7.2021,25.627c2.0869,7.4258,10.372,14.7091,17.9243,13.7424a1.7312,1.7312,0,0,1,1.9092,1.2311l.9371,3.3345a1.7158,1.7158,0,0,1-.6955,1.8888l-5.83,3.9137a5.6214,5.6214,0,0,0-2.2785,6.1881l0,.0012a1.7158,1.7158,0,0,0,2.1161,1.1876Z" style="fill:none;stroke:#000;stroke-linecap:round;stroke-linejoin:round;stroke-width:2px;fill-rule:evenodd"/><path d="M1592.75,1517.1119l5.9008-1.6584a3.4662,3.4662,0,0,1,4.2749,2.3991l2.1316,7.5847c2.2214,7.9044.94,14.8307-5.8276,16.7328" style="fill:none;stroke:#000;stroke-linecap:round;stroke-linejoin:round;stroke-width:2px;fill-rule:evenodd"/><polyline points="1581.144 1544.378 1576.934 1529.399 1573.967 1533.208" style="fill:none;stroke:#000;stroke-linecap:round;stroke-linejoin:round;stroke-width:2px;fill-rule:evenodd"/><line x1="1577.5341" y1="1545.3923" x2="1584.753" y2="1543.3634" style="fill:none;stroke:#000;stroke-linecap:round;stroke-linejoin:round;stroke-width:2px"/><path d="M3247.8152,2236.0569l-6.6621,7.3121a.6414.6414,0,0,0-.1614.5183l1.3651,10.0482a.6414.6414,0,0,1-.9149.6637l-8.908-4.3094a.6414.6414,0,0,0-.5684.0048l-9.1889,4.64a.6414.6414,0,0,1-.9242-.6623l1.4206-10.0455a.6414.6414,0,0,0-.19-.5518l-7.307-7.0381a.6414.6414,0,0,1,.32-1.091l10.0968-2.0048a.6414.6414,0,0,0,.4508-.3464l4.3625-8.8823a.6414.6414,0,0,1,1.13-.0407l5.1141,8.7558a.6414.6414,0,0,0,.4464.3088l9.7523,1.6562A.6414.6414,0,0,1,3247.8152,2236.0569Z" style="fill:none;stroke:#000;stroke-linecap:round;stroke-linejoin:round;stroke-width:2px;fill-rule:evenodd"/><line x1="3213.3807" y1="2247.327" x2="3189.6931" y2="2255.489" style="fill:none;stroke:#000;stroke-linecap:round;stroke-linejoin:round;stroke-width:2px"/><line x1="3212.4328" y1="2256.4969" x2="3197.0061" y2="2261.8123" style="fill:none;stroke:#000;stroke-linecap:round;stroke-linejoin:round;stroke-width:2px"/><line x1="3206.9855" y1="2240.6874" x2="3191.5588" y2="2246.0029" style="fill:none;stroke:#000;stroke-linecap:round;stroke-linejoin:round;stroke-width:2px"/><path d="M3546.101,2988.2129l-1.5989,21.3722a1.39,1.39,0,0,0,.4169,1.1l15.75,15.3185a1.39,1.39,0,0,1-.6742,2.3542l-20.9527,4.5461a1.39,1.39,0,0,0-.9632.7675L3528.6,3053.86a1.39,1.39,0,0,1-2.4613.1044l-10.9938-19.0346a1.39,1.39,0,0,0-1.0613-.6873l-21.866-2.2471a1.39,1.39,0,0,1-.9113-2.2887l14.5472-16.9058a1.39,1.39,0,0,0,.3064-1.193l-4.4213-20.98a1.39,1.39,0,0,1,1.8725-1.5781l20.4193,8.1064a1.39,1.39,0,0,0,1.1741-.0694l18.8492-10.2A1.39,1.39,0,0,1,3546.101,2988.2129Z" style="fill:none;stroke:#000;stroke-linecap:round;stroke-linejoin:round;stroke-width:2px;fill-rule:evenodd"/><path d="M3518.0345,3039.35l-40.8142,63.0186a5.46,5.46,0,0,1-7.55,1.6146h0a5.4594,5.4594,0,0,1-1.6146-7.55l40.8142-63.0186" style="fill:none;stroke:#000;stroke-linejoin:round;stroke-width:2px;fill-rule:evenodd"/><line x1="3553.5925" y1="2974.4034" x2="3561.643" y2="2961.9732" style="fill:none;stroke:#000;stroke-linecap:round;stroke-linejoin:round;stroke-width:2px"/><line x1="3530.0689" y1="3067.2184" x2="3532.0132" y2="3082.0521" style="fill:none;stroke:#000;stroke-linecap:round;stroke-linejoin:round;stroke-width:2px"/><line x1="3554.7991" y1="3051.9584" x2="3563.8455" y2="3063.9818" style="fill:none;stroke:#000;stroke-linecap:round;stroke-linejoin:round;stroke-width:2px"/><line x1="3569.1589" y1="3001.9289" x2="3583.6407" y2="2998.8317" style="fill:none;stroke:#000;stroke-linecap:round;stroke-linejoin:round;stroke-width:2px"/><line x1="3574.66" y1="3030.6456" x2="3588.8095" y2="3035.0145" style="fill:none;stroke:#000;stroke-linecap:round;stroke-linejoin:round;stroke-width:2px"/><line x1="3478.5163" y1="3033.8304" x2="3464.1848" y2="3038.1231" style="fill:none;stroke:#000;stroke-linecap:round;stroke-linejoin:round;stroke-width:2px"/><line x1="3482.3271" y1="3005.022" x2="3467.6554" y2="3001.6844" style="fill:none;stroke:#000;stroke-linecap:round;stroke-linejoin:round;stroke-width:2px"/><line x1="3522.1078" y1="2971.4564" x2="3519.0112" y2="2956.9745" style="fill:none;stroke:#000;stroke-linecap:round;stroke-linejoin:round;stroke-width:2px"/><line x1="3493.6529" y1="2978.1814" x2="3483.8789" y2="2967.0563" style="fill:none;stroke:#000;stroke-linecap:round;stroke-linejoin:round;stroke-width:2px"/><path d="M296.44,2648.1664l4.77,44.2181a.86.86,0,0,0,1.2692.6618s2.7073-6.69,13.7695-12.7638,18.16-4.7661,18.16-4.7661a.86.86,0,0,0,.123-1.4261L299.7856,2646.33" style="fill:none;stroke:#000;stroke-linejoin:round;stroke-width:2px;fill-rule:evenodd"/><path d="M301.8115,2693.1156s4.8258,1.1019,17.8855-6.068,15.1287-12.0574,15.1287-12.0574" style="fill:none;stroke:#000;stroke-linejoin:round;stroke-width:2px;fill-rule:evenodd"/><circle cx="296.6641" cy="2644.6092" r="3.5671" transform="translate(-2164.3177 1631.9218) rotate(-61.2325)" style="fill:none;stroke:#000;stroke-linejoin:round;stroke-width:2px"/><path d="M280.37,2663.1762s2.6992-.6105,4.0456,2.6887c1.22,2.9889,4.1136.2059,4.8536,3.2257.73,2.9791,3.9351,2.6152,3.9351,2.6152" style="fill:none;stroke:#000;stroke-linecap:round;stroke-miterlimit:10;stroke-width:2px"/><path d="M295.1336,2684.69a2.1973,2.1973,0,0,0-2.8474-.6251c-1.7988.7194-1.804-1.6892-3.4161-.75a2.1686,2.1686,0,0,1-2.77-.608" style="fill:none;stroke:#000;stroke-linecap:round;stroke-miterlimit:10;stroke-width:2px"/><path d="M317.0617,2652.8227a2.1975,2.1975,0,0,1-.354-2.8936c.8853-1.7236-1.5114-1.9545-.4247-3.4716a2.1689,2.1689,0,0,0-.3444-2.8146" style="fill:none;stroke:#000;stroke-linecap:round;stroke-miterlimit:10;stroke-width:2px"/><path d="M329.3256,2648.2489s-2.44.5118-1.8065,3.5431c.5741,2.7462-3.1353,1.6553-2.1674,4.2508.9549,2.56-1.7572,3.4464-1.7572,3.4464" style="fill:none;stroke:#000;stroke-linecap:round;stroke-miterlimit:10;stroke-width:2px"/><circle cx="291.2218" cy="2657.739" r="0.4301" transform="translate(-2382.4249 2657.086) rotate(-83.7328)" style="fill:none;stroke:#000;stroke-linecap:round;stroke-miterlimit:10;stroke-width:3px"/><circle cx="333.7672" cy="2664.8079" r="0.4301" transform="translate(-2351.5505 2705.6743) rotate(-83.7328)" style="fill:none;stroke:#000;stroke-linecap:round;stroke-miterlimit:10;stroke-width:3px"/><path d="M1806.8055,3631.8708c-4.81,12.01-16.1986,19.5667-25.0874,16.0065s-11.8149-17.1313-7.1017-28.899a17.3375,17.3375,0,0,1,32.1891,12.8924Z" style="fill:none;stroke:#000;stroke-linecap:round;stroke-linejoin:round;stroke-width:2px;fill-rule:evenodd"/><path d="M1781.7182,3647.8773c3.7948,1.52,3.893,7.5528,3.893,7.5528l-5.9617-2.3878-5.9617-2.3878S1777.9234,3646.3574,1781.7182,3647.8773Z" style="fill:none;stroke:#000;stroke-linecap:round;stroke-linejoin:round;stroke-width:2px;fill-rule:evenodd"/><path d="M1779.6495,3653.0423a13.0171,13.0171,0,0,0-4.163,10.4281c.145,3.486-.2259,4.6125-2.6877,6.71-3.6511,3.1114-4.0505,10.1131-4.0505,10.1131" style="fill:none;stroke:#000;stroke-linecap:round;stroke-linejoin:round;stroke-width:2px"/><path d="M1827.9971,3663.1329c-7.2871,5.8727-17.146,6.6065-21.4923,1.2134s-1.3868-14.99,5.7529-20.7436a12.5415,12.5415,0,0,1,15.7394,19.53Z" style="fill:none;stroke:#000;stroke-linecap:round;stroke-linejoin:round;stroke-width:2px;fill-rule:evenodd"/><path d="M1806.5536,3664.5665c2.2431,2.7831-.263,7.4233-.263,7.4233l-3.5239-4.3723-3.5239-4.3723S1804.31,3661.7834,1806.5536,3664.5665Z" style="fill:none;stroke:#000;stroke-linecap:round;stroke-linejoin:round;stroke-width:2px;fill-rule:evenodd"/><path d="M1802.7667,3667.6174s-4.537.32-5.714,4.3581c-.7569,2.5974-1.7793,2.8117-4.0714,3.2811a8.8025,8.8025,0,0,0-6.1359,4.9449" style="fill:none;stroke:#000;stroke-linecap:round;stroke-linejoin:round;stroke-width:2px"/><path d="M2412.8208,2659.3774l-37.1468-3.1373a2,2,0,0,1-1.8246-2.1611l2.06-24.4122a2,2,0,0,1,2.1612-1.8247l37.1468,3.1373a2,2,0,0,1,1.8246,2.1611l-2.06,24.4122A2,2,0,0,1,2412.8208,2659.3774Z" style="fill:none;stroke:#000;stroke-linecap:round;stroke-miterlimit:10;stroke-width:2px"/><line x1="2392.5108" y1="2644.0104" x2="2375.0069" y2="2656.1838" style="fill:none;stroke:#000;stroke-linecap:round;stroke-linejoin:round;stroke-width:2px"/><line x1="2413.7902" y1="2659.4593" x2="2398.3196" y2="2644.5034" style="fill:none;stroke:#000;stroke-linecap:round;stroke-linejoin:round;stroke-width:2px"/><path d="M2416.0741,2632.391l-19.8817,13.559a1.5239,1.5239,0,0,1-1.8691-.165l-17.0325-16.67" style="fill:none;stroke:#000;stroke-linecap:round;stroke-linejoin:round;stroke-width:2px"/><path d="M1435.2822,4284.3538l28.8853,37.0561a3.113,3.113,0,0,1-.5415,4.3691l-39.2181,30.57a3.1131,3.1131,0,0,1-4.3691-.5413l-39.3011-50.4183a3.113,3.113,0,0,1,.5415-4.3691l25.8561-20.1544a3.1132,3.1132,0,0,1,2.2968-.6342l23.7779,2.9467A3.113,3.113,0,0,1,1435.2822,4284.3538Z" style="fill:none;stroke:#000;stroke-miterlimit:10;stroke-width:2px"/><path d="M1434.4843,4283.33l-12.3391,9.6181a3.1131,3.1131,0,0,1-4.3691-.5413l-9.618-12.3386" style="fill:none;stroke:#000;stroke-miterlimit:10;stroke-width:2px"/><line x1="1408.0715" y1="4319.6306" x2="1429.5499" y2="4302.8886" style="fill:none;stroke:#000;stroke-linecap:round;stroke-miterlimit:10;stroke-width:2px"/><line x1="1413.5863" y1="4326.7054" x2="1430.1536" y2="4313.7915" style="fill:none;stroke:#000;stroke-linecap:round;stroke-miterlimit:10;stroke-width:2px"/><line x1="1419.1011" y1="4333.7802" x2="1441.8073" y2="4316.0812" style="fill:none;stroke:#000;stroke-linecap:round;stroke-miterlimit:10;stroke-width:2px"/><line x1="1424.616" y1="4340.855" x2="1444.8666" y2="4325.07" style="fill:none;stroke:#000;stroke-linecap:round;stroke-miterlimit:10;stroke-width:2px"/><path d="M1524.81,4276.5563l-9.7843,29.2132a2.0416,2.0416,0,0,1-2.5845,1.2871l-30.9276-10.3581a2.0416,2.0416,0,0,1-1.288-2.584l13.3125-39.7473a2.0416,2.0416,0,0,1,2.5845-1.2871l20.39,6.829a2.0423,2.0423,0,0,1,1.1793,1.0255l7.0092,14.0632A2.0408,2.0408,0,0,1,1524.81,4276.5563Z" style="fill:none;stroke:#000;stroke-miterlimit:10;stroke-width:2px"/><path d="M1525.08,4275.7493l-9.7307-3.2589a2.0416,2.0416,0,0,1-1.288-2.584l3.2579-9.7272" style="fill:none;stroke:#000;stroke-miterlimit:10;stroke-width:2px"/><line x1="1495.6619" y1="4274.4662" x2="1512.5998" y2="4280.1389" style="fill:none;stroke:#000;stroke-linecap:round;stroke-miterlimit:10;stroke-width:2px"/><line x1="1493.7938" y1="4280.0436" x2="1506.8589" y2="4284.4193" style="fill:none;stroke:#000;stroke-linecap:round;stroke-miterlimit:10;stroke-width:2px"/><line x1="1491.9258" y1="4285.621" x2="1509.832" y2="4291.6181" style="fill:none;stroke:#000;stroke-linecap:round;stroke-miterlimit:10;stroke-width:2px"/><line x1="1490.0578" y1="4291.1984" x2="1506.0275" y2="4296.5469" style="fill:none;stroke:#000;stroke-linecap:round;stroke-miterlimit:10;stroke-width:2px"/><path d="M668.6808,2088.5946c-20.2483,1.5576-35.5686,17.0469-34.219,34.5964a29.3555,29.3555,0,0,0,10.3018,19.8754l-.0366-.0162-2.427,23.4746,22.4948-14.617-.1-.044a42.0969,42.0969,0,0,0,8.8729.283c20.2483-1.5576,35.5688-17.0469,34.2192-34.5964S688.9291,2087.037,668.6808,2088.5946Z" style="fill:none;stroke:#000;stroke-linecap:round;stroke-linejoin:round;stroke-width:2px"/><circle cx="688.6266" cy="2120.8319" r="1.0415" transform="translate(-1478.7744 2644.7664) rotate(-85.6012)" style="fill:none;stroke:#000;stroke-linecap:round;stroke-miterlimit:10;stroke-width:3px"/><circle cx="671.2627" cy="2122.1676" r="1.0415" transform="translate(-1496.1382 2628.687) rotate(-85.6012)" style="fill:none;stroke:#000;stroke-linecap:round;stroke-miterlimit:10;stroke-width:3px"/><circle cx="653.8989" cy="2123.5033" r="1.0415" transform="matrix(0.0767, -0.9971, 0.9971, 0.0767, -1513.5021, 2612.6076)" style="fill:none;stroke:#000;stroke-linecap:round;stroke-miterlimit:10;stroke-width:3px"/><path d="M719.3469,2158.8038c11.7772-1.7338,22.543,5.1356,24.0461,15.3432a17.2077,17.2077,0,0,1-3.3131,12.6975l.0188-.014,4.43,13.1054-14.7541-5.4408.0513-.0381a24.6758,24.6758,0,0,1-5.0357,1.3118c-11.7772,1.7338-22.5431-5.1355-24.0462-15.3432S707.57,2160.5377,719.3469,2158.8038Z" style="fill:none;stroke:#000;stroke-linecap:round;stroke-linejoin:round;stroke-width:2px"/><circle cx="712.1228" cy="2179.8183" r="0.6105" transform="translate(-1548.1698 2566.8632) rotate(-81.6252)" style="fill:none;stroke:#000;stroke-linecap:round;stroke-miterlimit:10;stroke-width:3px"/><circle cx="722.2224" cy="2178.3314" r="0.6105" transform="translate(-1538.0703 2575.5848) rotate(-81.6252)" style="fill:none;stroke:#000;stroke-linecap:round;stroke-miterlimit:10;stroke-width:3px"/><circle cx="732.3219" cy="2176.8446" r="0.6105" transform="translate(-1527.9708 2584.3063) rotate(-81.6252)" style="fill:none;stroke:#000;stroke-linecap:round;stroke-miterlimit:10;stroke-width:3px"/><path d="M1575.0228,2261.4321l5.4345,36.3546a3.7723,3.7723,0,0,1-3.1731,4.2886h0a3.7722,3.7722,0,0,1-4.2885-3.1731l-5.4345-36.3547a3.7723,3.7723,0,0,1,3.1731-4.2885h0A3.7723,3.7723,0,0,1,1575.0228,2261.4321Z" style="fill:none;stroke:#000;stroke-linejoin:round;stroke-width:2px;fill-rule:evenodd"/><path d="M1567.6468,2262.5457s-13.0085,8.5237-20.217,9.6012l-3.5707.5337" style="fill:none;stroke:#000;stroke-linejoin:round;stroke-width:2px;fill-rule:evenodd"/><path d="M1576.85,2273.6549a6.0207,6.0207,0,1,1,1.78,11.9091" style="fill:none;stroke:#000;stroke-linejoin:round;stroke-width:2px;fill-rule:evenodd"/><path d="M1526.4991,2275.2753l17.2759-2.5822,3.507,23.4621-17.2759,2.5822a4,4,0,0,1-4.5474-3.3647l-2.3243-15.55A4,4,0,0,1,1526.4991,2275.2753Z" style="fill:none;stroke:#000;stroke-linejoin:round;stroke-width:2px;fill-rule:evenodd"/><path d="M1534.4317,2311.95l4.9314-.7371a2.0872,2.0872,0,0,0,1.7561-1.7586l1.8737-12.6582-12.6541,1.8914,1.72,11.5068A2.0872,2.0872,0,0,0,1534.4317,2311.95Z" style="fill:none;stroke:#000;stroke-linejoin:round;stroke-width:2px;fill-rule:evenodd"/><line x1="1601.7058" y1="2276.0273" x2="1590.942" y2="2277.6363" style="fill:#fff;stroke:#000;stroke-linecap:round;stroke-miterlimit:10;stroke-width:2px"/><line x1="1602.6021" y1="2291.8867" x2="1592.4758" y2="2287.8981" style="fill:#fff;stroke:#000;stroke-linecap:round;stroke-miterlimit:10;stroke-width:2px"/><line x1="1597.9254" y1="2260.5991" x2="1589.4081" y2="2267.3743" style="fill:#fff;stroke:#000;stroke-linecap:round;stroke-miterlimit:10;stroke-width:2px"/><path d="M1573.0776,2298.8788s-14.9324-4.3474-22.1408-3.27l-3.5707.5337" style="fill:none;stroke:#000;stroke-linejoin:round;stroke-width:2px;fill-rule:evenodd"/><path d="M2406.6568,1656.6794a19.7353,19.7353,0,0,0-17.7884,7.7918l0,0a3.9632,3.9632,0,0,0-.0619,4.6l8.1978,12.046a4.4708,4.4708,0,0,0,3.29,1.9044l8.1781.7536,8.1781.7536a4.4708,4.4708,0,0,0,3.5827-1.271l10.2612-10.345a3.9632,3.9632,0,0,0,.78-4.5337h0a19.7356,19.7356,0,0,0-16.0651-10.9116Z" style="fill:none;stroke:#000;stroke-linecap:round;stroke-linejoin:round;stroke-width:2px;fill-rule:evenodd"/><path d="M2417.73,1684.6284l2.6252,101.11a4.9669,4.9669,0,0,1-2.8142,4.5578l-17.2716,8.6211a4.5853,4.5853,0,0,1-4.7758-.44l-15.4053-11.6324a4.9666,4.9666,0,0,1-1.9338-4.9951l21.0593-98.9273" style="fill:none;stroke:#000;stroke-linecap:round;stroke-linejoin:round;stroke-width:2px;fill-rule:evenodd"/><path d="M2387.7032,1736.9971l-14.158,22.3063a6.4385,6.4385,0,0,1-4.0174,2.7918l-.0052.0012a6.6417,6.6417,0,0,1-7.9405-4.5716l-.0013-.005a5.892,5.892,0,0,1,.7284-4.6854l33.1366-52.2075" style="fill:none;stroke:#000;stroke-linejoin:round;stroke-width:2px;fill-rule:evenodd"/><line x1="2418.5442" y1="1731.8417" x2="2386.0471" y2="1744.5848" style="fill:#fff;stroke:#000;stroke-linecap:round;stroke-miterlimit:10;stroke-width:2px"/><line x1="2419.4388" y1="1749.7363" x2="2382.4291" y2="1764.2688" style="fill:#fff;stroke:#000;stroke-linecap:round;stroke-miterlimit:10;stroke-width:2px"/><line x1="2419.0254" y1="1765.5375" x2="2379.1649" y2="1781.2666" style="fill:#fff;stroke:#000;stroke-linecap:round;stroke-miterlimit:10;stroke-width:2px"/><path d="M332.9886,3760.8215c7.1437,10.1478,16.1295,19.7171,21.8054,26.3176a4.8913,4.8913,0,0,0,6.556.797c7.0958-5.046,18.1173-12.18,27.4881-20.3171" style="fill:none;stroke:#000;stroke-linecap:round;stroke-linejoin:round;stroke-width:2px;fill-rule:evenodd"/><path d="M402.7846,3752.0116c4.4463-7.4536,5.4149-15.149-.31-22.4608h0a20.558,20.558,0,0,0-28.7763-3.5046l-8.9957,7.0422-6.8974-8.8116a20.6212,20.6212,0,0,0-28.3766-4.1011c-7.8078,5.7621-8.8234,13.634-6.2377,22.1355" style="fill:none;stroke:#000;stroke-linecap:round;stroke-linejoin:round;stroke-width:2px;fill-rule:evenodd"/><path d="M318.3186,3750.74l28.0064,3.4108a6.0633,6.0633,0,0,0,5.8406-2.7512l5.3936-7.2126,8.8645,25.2706,6.5232-8.9353a6.0633,6.0633,0,0,1,5.63-2.4436l26.9183,3.2783" style="fill:none;stroke:#000;stroke-linecap:round;stroke-miterlimit:10;stroke-width:2px;fill-rule:evenodd"/><line x1="3245.2104" y1="3823.1536" x2="3249.0908" y2="3819.3856" style="fill:none;stroke:#000;stroke-linecap:round;stroke-linejoin:round;stroke-width:2px"/><path d="M3251.1794,3821.5364l-4.1771-4.3016a1,1,0,0,1,.0208-1.4141l7.7985-7.5727,5.57,5.7364-7.7985,7.5728A1,1,0,0,1,3251.1794,3821.5364Z" style="fill:none;stroke:#000;stroke-linecap:round;stroke-linejoin:round;stroke-width:2px"/><path d="M3262.1667,3815.812l-9.12-9.3916a1,1,0,0,1,.0208-1.4141l54.8846-53.2953a1,1,0,0,1,1.4141.0208l9.12,9.3916a1,1,0,0,1-.0208,1.4141l-54.8846,53.2953A1,1,0,0,1,3262.1667,3815.812Z" style="fill:none;stroke:#000;stroke-linecap:round;stroke-linejoin:round;stroke-width:2px"/><line x1="3300.3056" y1="3780.1713" x2="3289.7924" y2="3769.3449" style="fill:none;stroke:#000;stroke-linecap:round;stroke-linejoin:round;stroke-width:2px"/><path d="M3303.5819,3755.9547c-3.5413-3.6468-7.53-4.7228-10.9151-1.4354l-18.5909,18.0527" style="fill:none;stroke:#000;stroke-linecap:round;stroke-linejoin:round;stroke-width:2px"/><path d="M3316.7686,3759.3872l-5.7176-5.8879,3.26-3.1655a3.2773,3.2773,0,0,1,4.6343.068l1.1513,1.1856a3.2773,3.2773,0,0,1-.068,4.6343Z" style="fill:none;stroke:#000;stroke-linecap:round;stroke-linejoin:round;stroke-width:2px"/><path d="M2688.757,3211.4214c7.6734,2.919,14.9356.5074,22.6025-9.8659,6.5586-8.8739,17.2992-.8113,10.8,7.9824l-.8439,1.1418a76.7038,76.7038,0,0,1-7.9924,9.0449c-1.9194,1.8946-2.859,3.8342.1222,6.0377,4.77,3.5255,13.3521,9.6428,13.3521,9.6428,6.5682,4.8547-1.7928,15.3772-8.4786,10.4355,5.5876,4.13-.9311,13.03-7.405,8.2453,4.7737,3.5283-1.7637,11.5525-6.7964,7.8328,2.5592,1.8916-2.7118,11.0513-9.3749,6.1265l-30.9361-22.8655Z" style="fill:none;stroke:#000;stroke-linecap:round;stroke-linejoin:round;stroke-width:2px"/><line x1="2718.3186" y1="3245.8406" x2="2714.4971" y2="3243.0161" style="fill:none;stroke:#000;stroke-linecap:round;stroke-linejoin:round;stroke-width:2px"/><line x1="2711.4888" y1="3254.5111" x2="2706.7278" y2="3250.9921" style="fill:none;stroke:#000;stroke-linecap:round;stroke-linejoin:round;stroke-width:2px"/><line x1="2704.1173" y1="3261.9187" x2="2699.3707" y2="3258.4104" style="fill:none;stroke:#000;stroke-linecap:round;stroke-linejoin:round;stroke-width:2px"/><path d="M2649.4807,3237.62l9.6754,7.1513a4,4,0,0,0,5.5943-.8392l22.8751-30.95a4,4,0,0,0-.8392-5.5942l-9.6754-7.1513a4,4,0,0,0-5.5943.8392l-22.8751,30.95A4,4,0,0,0,2649.4807,3237.62Z" style="fill:none;stroke:#000;stroke-linecap:round;stroke-linejoin:round;stroke-width:2px"/><circle cx="2661.6019" cy="3231.3409" r="0.6806" transform="translate(-1399.4695 2214.7839) rotate(-36.4689)" style="fill:none;stroke:#000;stroke-linecap:round;stroke-miterlimit:10;stroke-width:3px"/><path d="M1246.6735,3055.2447l-28.0009,3.029a1.7628,1.7628,0,0,1-1.4586-.54l-20.6665-21.37a1.7955,1.7955,0,0,0-3.0668,1.0277l-5.2279,29.3645a1.9278,1.9278,0,0,1-.9735,1.3709l-26.1688,13.9636a1.9937,1.9937,0,0,0-.05,3.4333l25.3769,14.6045a1.9408,1.9408,0,0,1,.94,1.453l3.7224,30.3823a1.8021,1.8021,0,0,0,3.0368,1.1839l21.68-20.9028a1.7536,1.7536,0,0,1,1.5553-.4717l27.698,5.3739a1.9069,1.9069,0,0,0,2.0056-2.6682l-11.3633-28.1471a2.0446,2.0446,0,0,1,.05-1.6385l12.7248-26.6456A1.9224,1.9224,0,0,0,1246.6735,3055.2447Z" style="fill:none;stroke:#000;stroke-linecap:round;stroke-linejoin:round;stroke-width:2px;fill-rule:evenodd"/><line x1="1162.5985" y1="3118.5662" x2="1103.8271" y2="3161.3896" style="fill:none;stroke:#000;stroke-linecap:round;stroke-linejoin:round;stroke-width:2px"/><line x1="1140.0244" y1="3104.3878" x2="1101.7493" y2="3132.2771" style="fill:none;stroke:#000;stroke-linecap:round;stroke-linejoin:round;stroke-width:2px"/><line x1="1166.9536" y1="3146.0194" x2="1128.6786" y2="3173.9087" style="fill:none;stroke:#000;stroke-linecap:round;stroke-linejoin:round;stroke-width:2px"/><path d="M3806.8055,631.8708c-4.81,12.01-16.1986,19.5667-25.0874,16.0065s-11.8149-17.1313-7.1017-28.899a17.3375,17.3375,0,0,1,32.1891,12.8925Z" style="fill:none;stroke:#000;stroke-linecap:round;stroke-linejoin:round;stroke-width:2px;fill-rule:evenodd"/><path d="M3781.7182,647.8773c3.7948,1.52,3.893,7.5528,3.893,7.5528l-5.9617-2.3878-5.9617-2.3878S3777.9234,646.3574,3781.7182,647.8773Z" style="fill:none;stroke:#000;stroke-linecap:round;stroke-linejoin:round;stroke-width:2px;fill-rule:evenodd"/><path d="M3779.6495,653.0423a13.0171,13.0171,0,0,0-4.163,10.4281c.145,3.486-.2259,4.6125-2.6877,6.71-3.6511,3.1114-4.0505,10.1131-4.0505,10.1131" style="fill:none;stroke:#000;stroke-linecap:round;stroke-linejoin:round;stroke-width:2px"/><path d="M3827.9971,663.1329c-7.2871,5.8727-17.146,6.6065-21.4923,1.2134s-1.3868-14.99,5.7529-20.7436a12.5415,12.5415,0,0,1,15.7394,19.53Z" style="fill:none;stroke:#000;stroke-linecap:round;stroke-linejoin:round;stroke-width:2px;fill-rule:evenodd"/><path d="M3806.5536,664.5665c2.2431,2.7831-.263,7.4233-.263,7.4233l-3.5239-4.3723-3.5239-4.3723S3804.31,661.7834,3806.5536,664.5665Z" style="fill:none;stroke:#000;stroke-linecap:round;stroke-linejoin:round;stroke-width:2px;fill-rule:evenodd"/><path d="M3802.7667,667.6174s-4.537.32-5.714,4.3581c-.7569,2.5974-1.7793,2.8117-4.0714,3.2811a8.8025,8.8025,0,0,0-6.1359,4.9449" style="fill:none;stroke:#000;stroke-linecap:round;stroke-linejoin:round;stroke-width:2px"/><path d="M3435.2822,1284.3538l28.8853,37.0561a3.113,3.113,0,0,1-.5415,4.3691l-39.2181,30.57a3.1131,3.1131,0,0,1-4.3691-.5413l-39.3011-50.4183a3.113,3.113,0,0,1,.5415-4.3691l25.8561-20.1544a3.1132,3.1132,0,0,1,2.2968-.6342l23.7779,2.9467A3.113,3.113,0,0,1,3435.2822,1284.3538Z" style="fill:none;stroke:#000;stroke-miterlimit:10;stroke-width:2px"/><path d="M3434.4843,1283.33l-12.3391,9.6181a3.1131,3.1131,0,0,1-4.3691-.5413l-9.618-12.3386" style="fill:none;stroke:#000;stroke-miterlimit:10;stroke-width:2px"/><line x1="3408.0715" y1="1319.6306" x2="3429.5499" y2="1302.8886" style="fill:none;stroke:#000;stroke-linecap:round;stroke-miterlimit:10;stroke-width:2px"/><line x1="3413.5863" y1="1326.7054" x2="3430.1536" y2="1313.7915" style="fill:none;stroke:#000;stroke-linecap:round;stroke-miterlimit:10;stroke-width:2px"/><line x1="3419.1011" y1="1333.7802" x2="3441.8073" y2="1316.0812" style="fill:none;stroke:#000;stroke-linecap:round;stroke-miterlimit:10;stroke-width:2px"/><line x1="3424.616" y1="1340.855" x2="3444.8666" y2="1325.07" style="fill:none;stroke:#000;stroke-linecap:round;stroke-miterlimit:10;stroke-width:2px"/><path d="M3524.81,1276.5563l-9.7843,29.2132a2.0416,2.0416,0,0,1-2.5845,1.2871l-30.9276-10.3581a2.0416,2.0416,0,0,1-1.288-2.584l13.3125-39.7473a2.0416,2.0416,0,0,1,2.5845-1.2871l20.39,6.829a2.0423,2.0423,0,0,1,1.1793,1.0255l7.0092,14.0632A2.0408,2.0408,0,0,1,3524.81,1276.5563Z" style="fill:none;stroke:#000;stroke-miterlimit:10;stroke-width:2px"/><path d="M3525.08,1275.7493l-9.7307-3.2589a2.0416,2.0416,0,0,1-1.288-2.584l3.2579-9.7272" style="fill:none;stroke:#000;stroke-miterlimit:10;stroke-width:2px"/><line x1="3495.6619" y1="1274.4662" x2="3512.5998" y2="1280.1389" style="fill:none;stroke:#000;stroke-linecap:round;stroke-miterlimit:10;stroke-width:2px"/><line x1="3493.7938" y1="1280.0436" x2="3506.8589" y2="1284.4193" style="fill:none;stroke:#000;stroke-linecap:round;stroke-miterlimit:10;stroke-width:2px"/><line x1="3491.9258" y1="1285.621" x2="3509.832" y2="1291.6181" style="fill:none;stroke:#000;stroke-linecap:round;stroke-miterlimit:10;stroke-width:2px"/><line x1="3490.0578" y1="1291.1984" x2="3506.0275" y2="1296.5469" style="fill:none;stroke:#000;stroke-linecap:round;stroke-miterlimit:10;stroke-width:2px"/><path d="M2332.9886,760.8215c7.1437,10.1478,16.1295,19.7171,21.8054,26.3176a4.8913,4.8913,0,0,0,6.556.797c7.0958-5.046,18.1173-12.18,27.4881-20.3171" style="fill:none;stroke:#000;stroke-linecap:round;stroke-linejoin:round;stroke-width:2px;fill-rule:evenodd"/><path d="M2402.7846,752.0116c4.4463-7.4536,5.4149-15.149-.31-22.4608h0a20.558,20.558,0,0,0-28.7763-3.5046l-8.9957,7.0422-6.8974-8.8116a20.6212,20.6212,0,0,0-28.3766-4.1011c-7.8078,5.7621-8.8234,13.634-6.2377,22.1355" style="fill:none;stroke:#000;stroke-linecap:round;stroke-linejoin:round;stroke-width:2px;fill-rule:evenodd"/><path d="M2318.3186,750.74l28.0064,3.4108a6.0633,6.0633,0,0,0,5.8406-2.7512l5.3936-7.2126,8.8645,25.2706,6.5232-8.9353a6.0633,6.0633,0,0,1,5.63-2.4436l26.9183,3.2783" style="fill:none;stroke:#000;stroke-linecap:round;stroke-miterlimit:10;stroke-width:2px;fill-rule:evenodd"/><path d="M3246.6735,55.2447l-28.0009,3.029a1.7628,1.7628,0,0,1-1.4586-.54l-20.6665-21.37a1.7955,1.7955,0,0,0-3.0668,1.0277l-5.2279,29.3645a1.9278,1.9278,0,0,1-.9735,1.3709L3161.1106,82.09a1.9937,1.9937,0,0,0-.05,3.4333l25.3769,14.6045a1.9408,1.9408,0,0,1,.94,1.453l3.7224,30.3823a1.8021,1.8021,0,0,0,3.0368,1.1839l21.68-20.9028a1.7536,1.7536,0,0,1,1.5553-.4717l27.698,5.3739a1.9069,1.9069,0,0,0,2.0056-2.6682L3235.712,86.3315a2.0446,2.0446,0,0,1,.05-1.6385l12.7248-26.6456A1.9224,1.9224,0,0,0,3246.6735,55.2447Z" style="fill:none;stroke:#000;stroke-linecap:round;stroke-linejoin:round;stroke-width:2px;fill-rule:evenodd"/><line x1="3162.5985" y1="118.5662" x2="3103.8271" y2="161.3896" style="fill:none;stroke:#000;stroke-linecap:round;stroke-linejoin:round;stroke-width:2px"/><line x1="3140.0244" y1="104.3878" x2="3101.7493" y2="132.2771" style="fill:none;stroke:#000;stroke-linecap:round;stroke-linejoin:round;stroke-width:2px"/><line x1="3166.9536" y1="146.0194" x2="3128.6786" y2="173.9087" style="fill:none;stroke:#000;stroke-linecap:round;stroke-linejoin:round;stroke-width:2px"/><circle cx="535.0913" cy="1098.9318" r="20.9858" transform="translate(-644.5166 1419.0866) rotate(-79.2224)" style="fill:none;stroke:#000;stroke-miterlimit:10;stroke-width:2px"/><line x1="559.4977" y1="1063.0494" x2="552.3159" y2="1073.6081" style="fill:#fff;stroke:#000;stroke-linecap:round;stroke-miterlimit:10;stroke-width:2px"/><line x1="510.685" y1="1134.8143" x2="517.8667" y2="1124.2555" style="fill:#fff;stroke:#000;stroke-linecap:round;stroke-miterlimit:10;stroke-width:2px"/><line x1="570.9738" y1="1123.338" x2="560.415" y2="1116.1562" style="fill:#fff;stroke:#000;stroke-linecap:round;stroke-miterlimit:10;stroke-width:2px"/><line x1="499.2089" y1="1074.5257" x2="509.7676" y2="1081.7074" style="fill:#fff;stroke:#000;stroke-linecap:round;stroke-miterlimit:10;stroke-width:2px"/><line x1="577.722" y1="1090.8169" x2="565.1775" y2="1093.2047" style="fill:#fff;stroke:#000;stroke-linecap:round;stroke-miterlimit:10;stroke-width:2px"/><line x1="492.4607" y1="1107.0468" x2="505.0051" y2="1104.6589" style="fill:#fff;stroke:#000;stroke-linecap:round;stroke-miterlimit:10;stroke-width:2px"/><line x1="543.2061" y1="1141.5623" x2="540.8182" y2="1129.0179" style="fill:#fff;stroke:#000;stroke-linecap:round;stroke-miterlimit:10;stroke-width:2px"/><line x1="526.9765" y1="1056.3014" x2="529.3643" y2="1068.8458" style="fill:#fff;stroke:#000;stroke-linecap:round;stroke-miterlimit:10;stroke-width:2px"/><path d="M537.4552,1111.3507a12.6419,12.6419,0,1,1-4.7279-24.8377" style="fill:none;stroke:#000;stroke-linecap:round;stroke-miterlimit:10;stroke-width:2px;fill-rule:evenodd"/><path d="M1546.101-11.7871l-1.5989,21.3722a1.39,1.39,0,0,0,.4169,1.1l15.75,15.3185a1.39,1.39,0,0,1-.6742,2.3542l-20.9527,4.5461a1.39,1.39,0,0,0-.9633.7675L1528.6,53.86a1.39,1.39,0,0,1-2.4613.1044L1515.1449,34.93a1.39,1.39,0,0,0-1.0613-.6873l-21.866-2.2471a1.39,1.39,0,0,1-.9113-2.2887l14.5472-16.9058a1.39,1.39,0,0,0,.3064-1.193l-4.4213-20.98a1.39,1.39,0,0,1,1.8725-1.5781l20.4193,8.1064a1.39,1.39,0,0,0,1.1741-.0694l18.8492-10.2A1.39,1.39,0,0,1,1546.101-11.7871Z" style="fill:none;stroke:#000;stroke-linecap:round;stroke-linejoin:round;stroke-width:2px;fill-rule:evenodd"/><path d="M1518.0345,39.35,1477.22,102.3682a5.46,5.46,0,0,1-7.55,1.6146h0a5.4594,5.4594,0,0,1-1.6146-7.55L1508.87,33.4141" style="fill:none;stroke:#000;stroke-linejoin:round;stroke-width:2px;fill-rule:evenodd"/><line x1="1530.0689" y1="67.2184" x2="1532.0132" y2="82.0521" style="fill:none;stroke:#000;stroke-linecap:round;stroke-linejoin:round;stroke-width:2px"/><line x1="1554.7991" y1="51.9584" x2="1563.8455" y2="63.9818" style="fill:none;stroke:#000;stroke-linecap:round;stroke-linejoin:round;stroke-width:2px"/><line x1="1569.1589" y1="1.9289" x2="1583.6407" y2="-1.1683" style="fill:none;stroke:#000;stroke-linecap:round;stroke-linejoin:round;stroke-width:2px"/><line x1="1574.66" y1="30.6456" x2="1588.8095" y2="35.0145" style="fill:none;stroke:#000;stroke-linecap:round;stroke-linejoin:round;stroke-width:2px"/><line x1="1478.5163" y1="33.8304" x2="1464.1848" y2="38.1231" style="fill:none;stroke:#000;stroke-linecap:round;stroke-linejoin:round;stroke-width:2px"/><line x1="1482.3271" y1="5.022" x2="1467.6554" y2="1.6844" style="fill:none;stroke:#000;stroke-linecap:round;stroke-linejoin:round;stroke-width:2px"/><line x1="1245.2104" y1="823.1536" x2="1249.0908" y2="819.3856" style="fill:none;stroke:#000;stroke-linecap:round;stroke-linejoin:round;stroke-width:2px"/><path d="M1251.1794,821.5364l-4.1771-4.3016a1,1,0,0,1,.0208-1.4141l7.7985-7.5727,5.57,5.7364-7.7985,7.5728A1,1,0,0,1,1251.1794,821.5364Z" style="fill:none;stroke:#000;stroke-linecap:round;stroke-linejoin:round;stroke-width:2px"/><path d="M1262.1667,815.812l-9.12-9.3916a1,1,0,0,1,.0208-1.4141l54.8846-53.2953a1,1,0,0,1,1.4141.0208l9.12,9.3916a1,1,0,0,1-.0208,1.4141l-54.8846,53.2953A1,1,0,0,1,1262.1667,815.812Z" style="fill:none;stroke:#000;stroke-linecap:round;stroke-linejoin:round;stroke-width:2px"/><line x1="1300.3056" y1="780.1713" x2="1289.7924" y2="769.3449" style="fill:none;stroke:#000;stroke-linecap:round;stroke-linejoin:round;stroke-width:2px"/><path d="M1303.5819,755.9547c-3.5413-3.6468-7.53-4.7228-10.9151-1.4354l-18.5909,18.0527" style="fill:none;stroke:#000;stroke-linecap:round;stroke-linejoin:round;stroke-width:2px"/><path d="M1316.7686,759.3872l-5.7176-5.8879,3.26-3.1655a3.2773,3.2773,0,0,1,4.6343.068l1.1513,1.1856a3.2773,3.2773,0,0,1-.068,4.6343Z" style="fill:none;stroke:#000;stroke-linecap:round;stroke-linejoin:round;stroke-width:2px"/><path d="M688.757,211.4214c7.6734,2.919,14.9356.5074,22.6025-9.8659,6.5586-8.8739,17.2992-.8113,10.8,7.9824l-.8439,1.1418a76.7037,76.7037,0,0,1-7.9924,9.0449c-1.9194,1.8946-2.859,3.8342.1222,6.0377,4.77,3.5255,13.3521,9.6428,13.3521,9.6428,6.5682,4.8547-1.7928,15.3772-8.4786,10.4355,5.5876,4.13-.9311,13.03-7.405,8.2453,4.7737,3.5283-1.7637,11.5525-6.7964,7.8328,2.5592,1.8916-2.7118,11.0513-9.3749,6.1265L663.8063,245.18Z" style="fill:none;stroke:#000;stroke-linecap:round;stroke-linejoin:round;stroke-width:2px"/><line x1="718.3186" y1="245.8406" x2="714.4971" y2="243.0161" style="fill:none;stroke:#000;stroke-linecap:round;stroke-linejoin:round;stroke-width:2px"/><line x1="711.4888" y1="254.5111" x2="706.7278" y2="250.9921" style="fill:none;stroke:#000;stroke-linecap:round;stroke-linejoin:round;stroke-width:2px"/><line x1="704.1173" y1="261.9187" x2="699.3707" y2="258.4104" style="fill:none;stroke:#000;stroke-linecap:round;stroke-linejoin:round;stroke-width:2px"/><path d="M649.4807,237.62l9.6754,7.1513a4,4,0,0,0,5.5943-.8392l22.8751-30.95a4,4,0,0,0-.8392-5.5942l-9.6754-7.1513a4,4,0,0,0-5.5943.8392l-22.8751,30.95A4,4,0,0,0,649.4807,237.62Z" style="fill:none;stroke:#000;stroke-linecap:round;stroke-linejoin:round;stroke-width:2px"/><circle cx="661.6019" cy="231.3409" r="0.6806" transform="translate(-7.9507 438.5487) rotate(-36.4689)" style="fill:none;stroke:#000;stroke-linecap:round;stroke-miterlimit:10;stroke-width:3px"/></pattern></defs><title>Asset 8</title><rect width="9910.1192" height="5600" style="fill:url(#a)"/></svg>