<svg xmlns="http://www.w3.org/2000/svg" viewBox="0 0 38 47"><title>ai</title><path d="M38,13.8291V44a3.0033,3.0033,0,0,1-3,3H3a3.0033,3.0033,0,0,1-3-3V3A3.0033,3.0033,0,0,1,3,0H24.17A2.9815,2.9815,0,0,1,26.291.8789l10.83,10.8291A2.9815,2.9815,0,0,1,38,13.8291ZM25.999,11.001a1.0007,1.0007,0,0,0,1,1h7.5868L25.999,3.415ZM36,44V14.001H26.999a3.0033,3.0033,0,0,1-3-3V2H3A1.0007,1.0007,0,0,0,2,3V44a1.0007,1.0007,0,0,0,1,1H35A1.0007,1.0007,0,0,0,36,44Z" style="fa325aill:#fa325a"/><path d="M22.5333,34.8535a3.748,3.748,0,0,1,.1611.6123.37.37,0,0,1-.0859.3389.7058.7058,0,0,1-.4189.1387c-.2.0186-.4766.0273-.8271.0273-.3652,0-.65-.0059-.8535-.0156a2.23,2.23,0,0,1-.4678-.0645.43.43,0,0,1-.2256-.1348.7354.7354,0,0,1-.1074-.2256l-.9346-2.793H13.5529l-.8809,2.7178a.86.86,0,0,1-.1123.252.4651.4651,0,0,1-.2266.1621,1.6641,1.6641,0,0,1-.4395.08q-.2856.022-.7471.0215a7.1579,7.1579,0,0,1-.7734-.0322.59.59,0,0,1-.3867-.1553.4227.4227,0,0,1-.0752-.35,3.508,3.508,0,0,1,.1611-.6016L14.3585,22.5a1.05,1.05,0,0,1,.15-.2949.5257.5257,0,0,1,.2734-.1719,2.1833,2.1833,0,0,1,.5215-.0762c.2217-.01.5156-.0156.8809-.0156.4229,0,.7588.0059,1.01.0156a2.7092,2.7092,0,0,1,.5859.0762.56.56,0,0,1,.3008.1768,1.0542,1.0542,0,0,1,.1553.3223ZM16.1525,24.6592h-.0107l-1.9658,5.9082h3.9424Z" style="fill:#f0f1f2"/><path d="M27.2277,22.7148a1.518,1.518,0,0,1-.333,1.1279,1.8316,1.8316,0,0,1-1.2354.3115,1.8327,1.8327,0,0,1-1.2295-.3008,1.4678,1.4678,0,0,1-.3174-1.085,1.5585,1.5585,0,0,1,.3271-1.1338,1.8135,1.8135,0,0,1,1.2412-.3164,1.8052,1.8052,0,0,1,1.2246.3066A1.4721,1.4721,0,0,1,27.2277,22.7148ZM27.0236,35.541a.29.29,0,0,1-.0645.1875.4674.4674,0,0,1-.2207.1348,1.8718,1.8718,0,0,1-.4131.08,7.8653,7.8653,0,0,1-1.3105,0,1.8718,1.8718,0,0,1-.4131-.08.4674.4674,0,0,1-.2207-.1348.29.29,0,0,1-.0645-.1875V25.98a.29.29,0,0,1,.0645-.1875.5035.5035,0,0,1,.2207-.1406,1.8551,1.8551,0,0,1,.4131-.0908,6.6781,6.6781,0,0,1,1.3105,0,1.8551,1.8551,0,0,1,.4131.0908.5035.5035,0,0,1,.2207.1406.29.29,0,0,1,.0645.1875Z" style="fill:#fa325a"/></svg>
