<svg xmlns="http://www.w3.org/2000/svg" version="1" width="694.346" height="341.185"><g fill="#0079c2"><path d="M217.168 220.887h43.168v14.105h-20.535v99.105h-22.633v-113.21M285.929 291.597l3.879-56.605h1.299l3.879 56.605h-9.057zm-25.064 42.5h22.16l2.097-30.066h10.67l2.107 30.066h22.15l-11.803-113.21h-35.578l-11.803 113.21M352.463 294.473v21.343c0 2.877 2.227 3.712 3.526 3.712 2.134 0 3.619-1.763 3.619-3.712v-26.354c0-3.526-.65-7.423-9.094-7.423h-9.187v-12.435h9.558c6.403 0 8.723-1.484 8.723-8.444v-22.456c0-1.949-1.485-3.712-3.62-3.712-1.298 0-3.525.742-3.525 3.712v18.466H329.82v-16.054c0-7.887.928-20.229 16.795-20.229h18.745c15.868 0 16.889 12.342 16.889 20.23v18.094c0 12.342-8.63 15.683-15.404 15.404v1.114c15.218-.371 15.404 11.32 15.404 15.31v22.828c0 7.98-1.021 20.23-16.889 20.23h-18.745c-15.867 0-16.795-12.25-16.795-20.23v-19.394h22.642M397.097 220.887h52.429v113.21h-22.642v-99.105h-7.145v99.105h-22.642v-113.21M487.015 283.152v-48.16h2.97c2.412 0 4.175 2.041 4.175 5.66v36.84c0 3.619-1.763 5.66-4.176 5.66h-2.97zm-22.642 50.945h22.642v-38.51h12.99c15.776 0 16.797-12.249 16.797-20.23v-34.24c0-7.888-1.021-20.23-16.796-20.23h-35.633v113.21M561.436 315.816c0 1.949-1.485 3.712-3.619 3.712-1.3 0-3.526-.835-3.526-3.712v-77.112c0-2.97 2.227-3.712 3.526-3.712 2.134 0 3.619 1.763 3.619 3.712v77.112zm-29.787-1.949c0 7.98 1.02 20.23 16.796 20.23h18.837c15.775 0 16.796-12.25 16.796-20.23v-72.75c0-7.888-1.02-20.23-16.796-20.23h-18.837c-15.775 0-16.796 12.342-16.796 20.23v72.75M657.757 220.887h29.508v113.21h-22.641v-70.988h-.836l-11.692 70.988h-18.095l-11.599-70.988h-.835v70.988h-22.642v-113.21h29.416l14.754 79.618 14.662-79.618M187.826 66.106c-6.931-30.344-24.303-55.027-26.697-59.018-3.786 5.66-17.64 27.468-24.683 51.594-7.693 27.003-8.825 50.944-6.17 74.421 2.635 23.57 12.591 47.79 12.591 47.79 5.29 12.62 13.214 26.26 18.374 32.942 7.562-9.836 24.943-39.16 30.362-77.39 3.016-21.344 3.146-39.995-3.777-70.34zm-26.697 140.12c-3.405-6.403-8.695-18.56-9.196-37.49-.13-18.187 7.173-33.87 9.308-37.117 1.902 3.248 8.193 16.888 8.945 35.54.51 18.188-5.54 32.571-9.057 39.067zm24.684-88.62c-.26 11.6-1.643 23.849-3.406 31.18.631-12.62-.881-30.344-3.777-44.263-2.895-13.827-11.089-37.025-17.63-47.697-6.041 10.208-13.484 30.251-17.381 47.604-3.916 17.353-4.027 38.417-4.027 44.727-1.04-5.29-3.638-24.312-2.905-43.335.613-15.682 4.287-31.921 6.301-39.345 7.683-24.776 16.378-40.644 18.011-43.15 1.634 2.506 12.583 22.086 18.262 42.593 5.652 20.508 6.793 40.18 6.552 51.687"/><path d="M172.886 220.887h-52.698v35.355c.047 0 .084-.093.13-.093 12.416-12.434 32.553-12.434 44.978 0 12.416 12.342 12.416 32.478 0 44.913-.056.092-.112.092-.167.185-.065 0-.13.093-.186.186-12.388 12.249-28.571 18.373-44.755 18.373-16.257 0-32.515-6.124-44.912-18.559-21.863-21.806-24.452-55.676-7.786-80.36a64.287 64.287 0 0 1 7.786-9.465c12.397-12.434 28.655-18.559 44.912-18.559v-85c-62.469 0-113.107 50.573-113.107 113.024s50.638 113.117 113.107 113.117c32.571 0 61.913-13.827 82.55-35.819v-77.298h-29.852"/></g></svg>