<svg id="index_320px" data-name="index@320px" xmlns="http://www.w3.org/2000/svg" viewBox="0 0 22 22"><defs><style>.cls-1{opacity:.7}.cls-2{fill:#f0f1f2}</style></defs><title>insta</title><g id="footer"><g id="social" class="cls-1"><path class="cls-2" d="M1312.19 4058.9h-15.89a3.06 3.06 0 0 0-3.06 3.06v15.89a3.06 3.06 0 0 0 3.06 3.06h15.89a3.06 3.06 0 0 0 3.06-3.06V4062a3.06 3.06 0 0 0-3.06-3.1zm-7.94 6.72a4.28 4.28 0 1 1-4.28 4.28 4.28 4.28 0 0 1 4.28-4.28zm8.56 12.22a.61.61 0 0 1-.61.61h-15.9a.61.61 0 0 1-.61-.61v-9.78h2.09a6.72 6.72 0 1 0 12.93 0h2.09v9.78zm0-12.83a.61.61 0 0 1-.61.61h-3.06a.61.61 0 0 1-.61-.61V4062a.61.61 0 0 1 .61-.61h3.06a.61.61 0 0 1 .61.61v3z" transform="translate(-1293.25 -4058.9)" id="instagram"/></g></g></svg>