<svg xmlns="http://www.w3.org/2000/svg" viewBox="0 0 50.58 30"><defs><style>.cls-1,.cls-2{fill:#041b26;fill-rule:evenodd}.cls-2{fill:#fa325a}</style></defs><title>Asset 5</title><g id="Layer_2" data-name="Layer 2"><g id="index_320px.sub-screens" data-name="index@320px.sub-screens"><g id="projects"><g id="header"><g id="logo"><path id="logo-2" data-name="logo" class="cls-1" d="M43.81 16.49a11.65 11.65 0 0 1 4.8-11.62 12.61 12.61 0 0 1-4.8 11.62zm-8.5 13.25A11.69 11.69 0 0 1 45.93 23a12.64 12.64 0 0 1-10.62 6.74zm5.75-7a11.65 11.65 0 0 1 9.52-8.21 12.61 12.61 0 0 1-9.52 8.2zM6.77 16.49A11.65 11.65 0 0 0 2 4.87a12.61 12.61 0 0 0 4.77 11.62zm8.5 13.25A11.69 11.69 0 0 0 4.65 23a12.65 12.65 0 0 0 10.62 6.74zm-5.75-7A11.65 11.65 0 0 0 0 14.52a12.61 12.61 0 0 0 9.52 8.21zM44.89 4.29a2.15 2.15 0 0 0-3 0l-.89.85-.85-.85a2.15 2.15 0 0 0-3 0C35 6.46 39.69 9.88 41 11.21c1.34-1.33 6.06-4.75 3.89-6.92zm-27.5-2.75c-.38.2-.78.43-1.13.65a14.49 14.49 0 0 0-4.79 5.06 13 13 0 0 0-1 2 14.17 14.17 0 0 0-.66 2.22C6.67 25.8 24.66 35.76 35.89 26.26a18.35 18.35 0 0 0 3.18-3.38 16.86 16.86 0 0 0 2.16-4 24.89 24.89 0 0 0 1.07-4.59c0-1.19-.75-2.14-2.16-1.58s-.71 2.13-1.85 5.16a14.09 14.09 0 0 1-12.23 9.09 12.59 12.59 0 0 1-5.63-1 8.48 8.48 0 0 1-1.58-.81c-4.22-2.3-7.55-8.14-5.77-13.91a11.64 11.64 0 0 1 4.14-5.93 10.69 10.69 0 0 1 8.17-2.11 10.36 10.36 0 0 1 6.24 3.6 9 9 0 0 1-2.32 13.76 7.81 7.81 0 0 1-7.8-.05C15.43 16.57 18 9 23.17 8.45a4.67 4.67 0 0 1 5.31 4.62c-.25 3.6-4.73 4.2-5.2 1.52.51.35.67.71 1.55.62a2 2 0 0 0 1.54-1c1.07-2.49-1.92-4.89-4.5-3-3.22 2.32-1.55 7.26 2.37 8 5.27 1.05 9.29-5 6.38-10A8.17 8.17 0 0 0 18 7.55c-6.11 5.45-2.63 14.77 4.51 16.73 5.62 1.54 10.33-1.48 12.72-5.28 4-6.29.87-14.9-6.25-17.95a13.79 13.79 0 0 0-11.59.49z"/><path id="heart" class="cls-2" d="M44.89 4.29a2.15 2.15 0 0 0-3 0l-.89.85-.85-.85a2.15 2.15 0 0 0-3 0C35 6.46 39.69 9.88 41 11.21c1.34-1.33 6.06-4.75 3.89-6.92z"/></g></g></g></g></g></svg>