<svg id="index_320px" data-name="index@320px" xmlns="http://www.w3.org/2000/svg" viewBox="0 0 50.58 30"><defs><style>.cls-1{opacity:.7}.cls-2,.cls-4{fill:#f0f1f2}.cls-2,.cls-3{fill-rule:evenodd}.cls-3{fill:#fa325a}</style></defs><title>index</title><g id="footer"><g id="logo" class="cls-1"><path id="logo-2" data-name="logo" class="cls-2" d="M1199.81 3862.8a11.65 11.65 0 0 1 4.8-11.62 12.61 12.61 0 0 1-4.8 11.62zm-8.5 13.25a11.69 11.69 0 0 1 10.62-6.75 12.64 12.64 0 0 1-10.62 6.76zm5.75-7a11.65 11.65 0 0 1 9.52-8.21 12.61 12.61 0 0 1-9.52 8.16zm-34.28-6.24a11.65 11.65 0 0 0-4.8-11.62 12.61 12.61 0 0 0 4.79 11.61zm8.5 13.25a11.69 11.69 0 0 0-10.62-6.75 12.65 12.65 0 0 0 10.61 6.75zm-5.75-7a11.65 11.65 0 0 0-9.52-8.21 12.61 12.61 0 0 0 9.51 8.15zm35.37-18.44a2.15 2.15 0 0 0-3 0l-.85.85-.85-.85a2.15 2.15 0 0 0-3 0c-2.17 2.17 2.55 5.59 3.88 6.91 1.26-1.34 5.98-4.75 3.81-6.92zm-27.5-2.76c-.38.2-.78.43-1.13.65a14.49 14.49 0 0 0-4.79 5.06 13 13 0 0 0-1 2 14.17 14.17 0 0 0-.66 2.22c-3.15 14.29 14.85 24.25 26.07 14.75a18.35 18.35 0 0 0 3.18-3.38 16.86 16.86 0 0 0 2.16-4 24.89 24.89 0 0 0 1.07-4.59 1.48 1.48 0 0 0-2.16-1.58c-1.35.54-.71 2.13-1.85 5.16a14.09 14.09 0 0 1-12.23 9.09 12.59 12.59 0 0 1-5.63-1 8.48 8.48 0 0 1-1.58-.81c-4.22-2.3-7.55-8.14-5.77-13.91a11.64 11.64 0 0 1 4.14-5.93 10.69 10.69 0 0 1 8.16-2.09 10.36 10.36 0 0 1 6.24 3.6 9 9 0 0 1-2.32 13.76 7.81 7.81 0 0 1-7.8-.05c-6.08-3.93-3.51-11.5 1.65-12.05a4.67 4.67 0 0 1 5.31 4.62c-.25 3.6-4.73 4.2-5.2 1.52a1.8 1.8 0 0 0 1.55.62 2 2 0 0 0 1.54-1c1.07-2.49-1.92-4.89-4.5-3-3.22 2.32-1.55 7.26 2.37 8 5.27 1.05 9.29-5 6.38-10a8.17 8.17 0 0 0-12.59-1.68c-6.14 5.47-2.65 14.77 4.49 16.73 5.62 1.54 10.33-1.48 12.72-5.28 4-6.29.87-14.9-6.25-17.95a13.79 13.79 0 0 0-11.58.51z" transform="translate(-1156 -3846.31)"/><path class="cls-3" d="M1200.89 3850.61a2.15 2.15 0 0 0-3 0l-.85.85-.85-.85a2.15 2.15 0 0 0-3 0c-2.17 2.17 2.55 5.59 3.88 6.91 1.27-1.33 5.99-4.74 3.82-6.91z" transform="translate(-1156 -3846.31)"/><path id="logo-3" data-name="logo" class="cls-4" d="M1199.81 3862.8a11.65 11.65 0 0 1 4.8-11.62 12.61 12.61 0 0 1-4.8 11.62zm-8.5 13.25a11.69 11.69 0 0 1 10.62-6.75 12.64 12.64 0 0 1-10.62 6.76zm5.75-7a11.65 11.65 0 0 1 9.52-8.21 12.61 12.61 0 0 1-9.52 8.16zm-34.28-6.24a11.65 11.65 0 0 0-4.8-11.62 12.61 12.61 0 0 0 4.79 11.61zm8.5 13.25a11.69 11.69 0 0 0-10.62-6.75 12.65 12.65 0 0 0 10.61 6.75zm-5.75-7a11.65 11.65 0 0 0-9.52-8.21 12.61 12.61 0 0 0 9.51 8.15zm35.37-18.44a2.15 2.15 0 0 0-3 0l-.85.85-.85-.85a2.15 2.15 0 0 0-3 0c-2.17 2.17 2.55 5.59 3.88 6.91 1.26-1.34 5.98-4.75 3.81-6.92zm-27.5-2.76c-.38.2-.78.43-1.13.65a14.49 14.49 0 0 0-4.79 5.06 13 13 0 0 0-1 2 14.17 14.17 0 0 0-.66 2.22c-3.15 14.29 14.85 24.25 26.07 14.75a18.35 18.35 0 0 0 3.18-3.38 16.86 16.86 0 0 0 2.16-4 24.89 24.89 0 0 0 1.07-4.59 1.48 1.48 0 0 0-2.16-1.58c-1.35.54-.71 2.13-1.85 5.16a14.09 14.09 0 0 1-12.23 9.09 12.59 12.59 0 0 1-5.63-1 8.48 8.48 0 0 1-1.58-.81c-4.22-2.3-7.55-8.14-5.77-13.91a11.64 11.64 0 0 1 4.14-5.93 10.69 10.69 0 0 1 8.16-2.09 10.36 10.36 0 0 1 6.24 3.6 9 9 0 0 1-2.32 13.76 7.81 7.81 0 0 1-7.8-.05c-6.08-3.93-3.51-11.5 1.65-12.05a4.67 4.67 0 0 1 5.31 4.62c-.25 3.6-4.73 4.2-5.2 1.52a1.8 1.8 0 0 0 1.55.62 2 2 0 0 0 1.54-1c1.07-2.49-1.92-4.89-4.5-3-3.22 2.32-1.55 7.26 2.37 8 5.27 1.05 9.29-5 6.38-10a8.17 8.17 0 0 0-12.59-1.68c-6.14 5.47-2.65 14.77 4.49 16.73 5.62 1.54 10.33-1.48 12.72-5.28 4-6.29.87-14.9-6.25-17.95a13.79 13.79 0 0 0-11.58.51z" transform="translate(-1156 -3846.31)"/><path class="cls-4" d="M1200.89 3850.61a2.15 2.15 0 0 0-3 0l-.85.85-.85-.85a2.15 2.15 0 0 0-3 0c-2.17 2.17 2.55 5.59 3.88 6.91 1.27-1.33 5.99-4.74 3.82-6.91z" transform="translate(-1156 -3846.31)"/></g></g></svg>