<svg id="Layer_1" xmlns="http://www.w3.org/2000/svg" viewBox="0 0 195 37.7"><style>.st0{fill:none}.st1{fill:#00985f}</style><path class="st0" d="M-15-15.3h225.4v67.9H-15z"/><path class="st1" d="M21.1 1.8v17.5c0 .8-.6 1.4-1.4 1.4h-2.1c-.1 0-.2.1-.2.2v14.7c.5 0 1 .1 1.6.1 9.4 0 17-7.6 17-17C36 10 29.5 2.8 21.1 1.8zM20.7 28c-1.2 0-2.1-1-2.1-2.1 0-1.2 1-2.1 2.1-2.1 1.2 0 2.1 1 2.1 2.1.1 1.1-.9 2.1-2.1 2.1zm5 0c-1.2 0-2.1-1-2.1-2.1 0-1.2 1-2.1 2.1-2.1 1.2 0 2.1 1 2.1 2.1s-.9 2.1-2.1 2.1zm5 0c-1.2 0-2.1-1-2.1-2.1 0-1.2 1-2.1 2.1-2.1 1.2 0 2.1 1 2.1 2.1s-.9 2.1-2.1 2.1z"/><path class="st1" d="M19 1.7c-9.4 0-17 7.6-17 17 0 8.2 5.7 15 13.4 16.6V20c0-.7.6-1.3 1.3-1.4H18.8c.1 0 .2-.1.2-.2V1.7zm-3.3 14c-1.2 0-2.1-1-2.1-2.1 0-1.2 1-2.1 2.1-2.1 1.2 0 2.1 1 2.1 2.1s-.9 2.1-2.1 2.1z"/><g><path class="st1" d="M189.2 11v6.4h-8.6V11h-4.3v17h4.3v-6.9h8.6V28h4.2V11zM118.4 12.9c-.7-1.5-2.1-2.3-3.5-2.3s-2.8.8-3.5 2.3L104.5 28h4.5l1.5-3.6h8.8l1.5 3.6h4.5l-6.9-15.1zm-6.5 8.1l2.6-6.2c.1-.2.2-.2.3-.2.1 0 .3 0 .3.2l2.6 6.2h-5.8zM67.8 7.9c-2 0-3.3 1.1-4.2 3.2l-5.5 12.8-5.5-12.8c-.9-2.1-2.2-3.2-4.2-3.2-1.9 0-3.8 1.3-3.8 4.2v15.8h4.2V12.6l5.6 12.7c.7 1.8 2 2.9 3.7 2.9 1.8 0 3-1.1 3.7-2.9l5.6-12.7V28h4.2V12.2c0-2.9-1.9-4.3-3.8-4.3zM79.1 24.4c-.2 0-.4-.2-.4-.4v-3h10.6v-3.5H78.7v-2.6c0-.2.2-.4.4-.4h10.5v-3.6H77c-1.5 0-2.5 1.2-2.5 2.5v11.9c0 1.3 1.1 2.5 2.5 2.5h12.6v-3.6H79.1v.2zM96.7 28V15c0-.2.2-.4.4-.4h10.5V11H95c-1.5 0-2.5 1.2-2.5 2.5v14.4h4.2v.1zM173.5 19.5c0-5.9-2.6-8.7-9-8.7H163c-6.4 0-9 2.8-9 8.7 0 5.8 2.6 8.7 9 8.7h1.4c6.5-.1 9.1-2.9 9.1-8.7zm-9.1 5.1H163c-3.5 0-4.9-1.6-4.9-5.1 0-3.4 1.2-5.1 4.9-5.1h1.4c3.6 0 4.9 1.7 4.9 5.1 0 3.5-1.3 5.1-4.9 5.1zM142.2 8.3h-8.4c-6.3 0-8.8 3.2-8.8 8.7 0 .9.1 1.7.2 2.4.7 3.9 3 6.3 8.9 6.3h1.9v2.2h4.2v-2.2h1.8c5.9 0 8.2-2.4 8.9-6.3.1-.7.2-1.5.2-2.4-.1-5.5-2.7-8.7-8.9-8.7zm-6.4 13.9h-1.9c-2.9 0-3.9-1.1-4.5-2.8-.2-.6-.2-1.5-.2-2.4 0-3.6 1.7-5.1 4.1-5.1h2.6v10.3h-.1zm10.8-2.7c-.6 1.7-1.7 2.8-4.5 2.8h-1.9V11.9h2.6c2.4 0 4.1 1.5 4.1 5.1-.1 1-.1 1.8-.3 2.5z"/></g></svg>