<?xml version="1.0" encoding="utf-8"?>
<!-- Generator: Adobe Illustrator 20.0.0, SVG Export Plug-In . SVG Version: 6.00 Build 0)  -->
<svg version="1.1" id="Layer_1" xmlns="http://www.w3.org/2000/svg" xmlns:xlink="http://www.w3.org/1999/xlink" x="0px" y="0px"
	 viewBox="0 0 195 37.7" style="enable-background:new 0 0 195 37.7;" xml:space="preserve">
<style type="text/css">
	.st0{fill:none;}
	.st1{fill:#00985F;}
</style>
<g>
	<rect x="-15" y="-15.3" class="st0" width="225.4" height="67.9"/>
	<g>
		<g>
			<g>
				<path class="st1" d="M21.1,1.8v17.5l0,0l0,0c0,0.8-0.6,1.4-1.4,1.4h-2.1l0,0c-0.1,0-0.2,0.1-0.2,0.2v14.7c0.5,0,1,0.1,1.6,0.1
					c9.4,0,17-7.6,17-17C36,10,29.5,2.8,21.1,1.8z M20.7,28c-1.2,0-2.1-1-2.1-2.1c0-1.2,1-2.1,2.1-2.1c1.2,0,2.1,1,2.1,2.1
					C22.9,27,21.9,28,20.7,28z M25.7,28c-1.2,0-2.1-1-2.1-2.1c0-1.2,1-2.1,2.1-2.1c1.2,0,2.1,1,2.1,2.1S26.9,28,25.7,28z M30.7,28
					c-1.2,0-2.1-1-2.1-2.1c0-1.2,1-2.1,2.1-2.1c1.2,0,2.1,1,2.1,2.1S31.9,28,30.7,28z"/>
				<path class="st1" d="M19,1.7c-9.4,0-17,7.6-17,17c0,8.2,5.7,15,13.4,16.6V20l0,0c0-0.7,0.6-1.3,1.3-1.4l0,0h0.7h1.4
					c0.1,0,0.2-0.1,0.2-0.2V1.7L19,1.7z M15.7,15.7c-1.2,0-2.1-1-2.1-2.1c0-1.2,1-2.1,2.1-2.1c1.2,0,2.1,1,2.1,2.1
					S16.9,15.7,15.7,15.7z"/>
			</g>
			<g>
				<polygon class="st1" points="189.2,11 189.2,17.4 180.6,17.4 180.6,11 176.3,11 176.3,28 180.6,28 180.6,21.1 189.2,21.1 
					189.2,28 193.4,28 193.4,11 				"/>
				<path class="st1" d="M118.4,12.9c-0.7-1.5-2.1-2.3-3.5-2.3l0,0l0,0l0,0c-1.4,0-2.8,0.8-3.5,2.3L104.5,28h4.5l1.5-3.6h8.8
					l1.5,3.6h4.5L118.4,12.9z M111.9,21l2.6-6.2c0.1-0.2,0.2-0.2,0.3-0.2l0,0l0,0c0.1,0,0.3,0,0.3,0.2l2.6,6.2H111.9z"/>
				<path class="st1" d="M67.8,7.9c-2,0-3.3,1.1-4.2,3.2l-5.5,12.8l-5.5-12.8c-0.9-2.1-2.2-3.2-4.2-3.2c-1.9,0-3.8,1.3-3.8,4.2v15.8
					h4.2V12.6l5.6,12.7c0.7,1.8,2,2.9,3.7,2.9l0,0l0,0l0,0l0,0c1.8,0,3-1.1,3.7-2.9l5.6-12.7V28h4.2V12.2
					C71.6,9.3,69.7,7.9,67.8,7.9z"/>
				<path class="st1" d="M79.1,24.4c-0.2,0-0.4-0.2-0.4-0.4v-3h10.6v-3.5H78.7v-2.6c0-0.2,0.2-0.4,0.4-0.4h10.5v-3.6H77
					c-1.5,0-2.5,1.2-2.5,2.5v11.9c0,1.3,1.1,2.5,2.5,2.5h12.6v-3.6H79.1V24.4z"/>
				<path class="st1" d="M96.7,28V15c0-0.2,0.2-0.4,0.4-0.4h10.5V11H95c-1.5,0-2.5,1.2-2.5,2.5v14.4h4.2V28z"/>
				<path class="st1" d="M173.5,19.5c0-5.9-2.6-8.7-9-8.7H163c-6.4,0-9,2.8-9,8.7l0,0c0,5.8,2.6,8.7,9,8.7h1.4
					C170.9,28.1,173.5,25.3,173.5,19.5L173.5,19.5z M164.4,24.6H163c-3.5,0-4.9-1.6-4.9-5.1l0,0c0-3.4,1.2-5.1,4.9-5.1h1.4
					c3.6,0,4.9,1.7,4.9,5.1l0,0C169.3,23,168,24.6,164.4,24.6z"/>
				<path class="st1" d="M142.2,8.3h-8.4c-6.3,0-8.8,3.2-8.8,8.7c0,0.9,0.1,1.7,0.2,2.4c0.7,3.9,3,6.3,8.9,6.3h1.9v2.2h4.2v-2.2h1.8
					c5.9,0,8.2-2.4,8.9-6.3c0.1-0.7,0.2-1.5,0.2-2.4C151,11.5,148.4,8.3,142.2,8.3z M135.8,22.2h-1.9c-2.9,0-3.9-1.1-4.5-2.8
					c-0.2-0.6-0.2-1.5-0.2-2.4c0-3.6,1.7-5.1,4.1-5.1h2.6v10.3H135.8z M146.6,19.5c-0.6,1.7-1.7,2.8-4.5,2.8h-1.9V11.9h2.6
					c2.4,0,4.1,1.5,4.1,5.1C146.8,18,146.8,18.8,146.6,19.5z"/>
			</g>
		</g>
	</g>
</g>
</svg>
