<svg data-name="index@1280px" xmlns="http://www.w3.org/2000/svg" viewBox="0 0 2559.9999 1821.9321"><defs><pattern id="a" data-name="Icons (scattered 2)" width="4000" height="6000" patternTransform="rotate(-10 -16079.264 19826.65) scale(.2 .1954)" patternUnits="userSpaceOnUse" viewBox="0 0 4000 6000"><path fill="none" d="M0 0h4000v6000H0z"/><g fill="none" stroke="#000" stroke-linecap="round" stroke-linejoin="round" stroke-width="2"><path d="M3555.309 4527.635l-5.9 1.658a3.466 3.466 0 0 0-2.4 4.275l2.132 7.585c2.22 7.904 6.923 13.149 13.69 11.247" fill-rule="evenodd"/><path d="M3589.13 4576.105l13.87-3.898a1.716 1.716 0 0 0 1.187-2.117 5.621 5.621 0 0 0-5.168-4.096l-7.015-.304a1.716 1.716 0 0 1-1.578-1.25l-.937-3.334a1.731 1.731 0 0 1 .989-2.046c6.95-3.109 10.228-13.642 8.14-21.068l-7.201-25.627a1.716 1.716 0 0 0-2.116-1.187l-17.07 4.797-17.068 4.797a1.716 1.716 0 0 0-1.188 2.116l7.202 25.627c2.087 7.426 10.372 14.71 17.925 13.742a1.731 1.731 0 0 1 1.909 1.232l.937 3.334a1.716 1.716 0 0 1-.695 1.889l-5.83 3.914a5.621 5.621 0 0 0-2.279 6.188 1.716 1.716 0 0 0 2.116 1.188z" fill-rule="evenodd"/><path d="M3592.75 4517.112l5.9-1.658a3.466 3.466 0 0 1 4.276 2.399l2.131 7.584c2.222 7.905.94 14.831-5.827 16.733M3581.144 4544.378l-4.21-14.979-2.967 3.809" fill-rule="evenodd"/><path d="M3577.534 4545.392l7.219-2.028"/></g><g fill="none" stroke="#000"><path data-name="&amp;lt;Path&amp;gt;" d="M2296.44 5648.167l4.77 44.218a.86.86 0 0 0 1.27.661s2.707-6.69 13.769-12.763 18.16-4.766 18.16-4.766a.86.86 0 0 0 .123-1.427l-34.747-27.76" stroke-linejoin="round" stroke-width="2" fill-rule="evenodd"/><path d="M2301.811 5693.116s4.826 1.102 17.886-6.068 15.129-12.058 15.129-12.058" stroke-linejoin="round" stroke-width="2" fill-rule="evenodd"/><circle cx="2296.664" cy="5644.609" r="3.567" transform="rotate(-61.233 2296.66 5644.607)" stroke-linejoin="round" stroke-width="2"/><path d="M2280.37 5663.176s2.7-.61 4.046 2.69c1.22 2.988 4.113.205 4.853 3.225.73 2.979 3.935 2.615 3.935 2.615M2295.133 5684.69a2.197 2.197 0 0 0-2.847-.624c-1.799.719-1.804-1.69-3.416-.75a2.169 2.169 0 0 1-2.77-.609M2317.062 5652.823a2.197 2.197 0 0 1-.354-2.894c.885-1.723-1.512-1.954-.425-3.471a2.169 2.169 0 0 0-.344-2.815M2329.326 5648.25s-2.44.51-1.807 3.542c.574 2.746-3.135 1.656-2.167 4.251.955 2.56-1.757 3.446-1.757 3.446" stroke-linecap="round" stroke-miterlimit="10" stroke-width="2"/><circle cx="2291.222" cy="5657.739" r=".43" transform="rotate(-83.733 2291.22 5657.738)" stroke-linecap="round" stroke-miterlimit="10" stroke-width="3"/><circle cx="2333.767" cy="5664.808" r=".43" transform="rotate(-83.733 2333.765 5664.807)" stroke-linecap="round" stroke-miterlimit="10" stroke-width="3"/></g><g fill="none" stroke="#000" stroke-linecap="round"><path d="M2668.68 5088.595c-20.247 1.557-35.568 17.047-34.218 34.596a29.355 29.355 0 0 0 10.302 19.876l-.037-.017-2.427 23.475 22.495-14.617-.1-.044a42.097 42.097 0 0 0 8.873.283c20.248-1.558 35.568-17.047 34.219-34.596s-18.858-30.514-39.106-28.956z" stroke-linejoin="round" stroke-width="2"/><circle cx="2688.627" cy="5120.832" r="1.042" transform="rotate(-85.601 2688.498 5120.596)" stroke-miterlimit="10" stroke-width="3"/><circle cx="2671.263" cy="5122.168" r="1.042" transform="rotate(-85.601 2671.263 5122.168)" stroke-miterlimit="10" stroke-width="3"/><circle cx="2653.899" cy="5123.503" r="1.042" transform="rotate(-85.601 2653.9 5123.504)" stroke-miterlimit="10" stroke-width="3"/></g><g data-name="message" fill="none" stroke="#000" stroke-linecap="round"><path d="M2719.347 5158.804c11.777-1.734 22.543 5.136 24.046 15.343a17.208 17.208 0 0 1-3.313 12.698l.019-.014 4.43 13.105-14.755-5.44.052-.039a24.676 24.676 0 0 1-5.036 1.312c-11.777 1.734-22.543-5.135-24.046-15.343s6.826-19.888 18.603-21.622z" stroke-linejoin="round" stroke-width="2"/><circle cx="2712.123" cy="5179.818" r=".611" transform="rotate(-81.625 2712.126 5179.82)" stroke-miterlimit="10" stroke-width="3"/><circle cx="2722.222" cy="5178.332" r=".611" transform="rotate(-81.625 2722.226 5178.333)" stroke-miterlimit="10" stroke-width="3"/><circle cx="2732.322" cy="5176.845" r=".611" transform="rotate(-81.625 2732.325 5176.846)" stroke-miterlimit="10" stroke-width="3"/></g><g stroke="#000" stroke-width="2"><path d="M3575.023 5261.432l5.434 36.355a3.772 3.772 0 0 1-3.173 4.288 3.772 3.772 0 0 1-4.288-3.173l-5.435-36.354a3.772 3.772 0 0 1 3.173-4.289 3.772 3.772 0 0 1 4.289 3.173z" fill="none" stroke-linejoin="round" fill-rule="evenodd"/><path d="M3567.647 5262.546s-13.009 8.523-20.217 9.601l-3.571.534M3576.85 5273.655a6.02 6.02 0 1 1 1.78 11.91M3526.5 5275.275l17.275-2.582 3.507 23.462-17.276 2.583a4 4 0 0 1-4.547-3.365l-2.325-15.55a4 4 0 0 1 3.365-4.548z" fill="none" stroke-linejoin="round" fill-rule="evenodd"/><path d="M3534.432 5311.95l4.931-.737a2.087 2.087 0 0 0 1.756-1.759l1.874-12.658-12.654 1.891 1.72 11.507a2.087 2.087 0 0 0 2.373 1.756z" fill="none" stroke-linejoin="round" fill-rule="evenodd"/><path fill="#fff" stroke-linecap="round" stroke-miterlimit="10" d="M3601.706 5276.028l-10.764 1.608M3602.602 5291.887l-10.126-3.989M3597.925 5260.599l-8.517 6.775"/><path d="M3573.078 5298.879s-14.933-4.347-22.141-3.27l-3.571.534" fill="none" stroke-linejoin="round" fill-rule="evenodd"/></g><path data-name="star" d="M1247.815 5236.057l-6.662 7.312a.641.641 0 0 0-.161.518l1.365 10.049a.641.641 0 0 1-.915.663l-8.908-4.31a.641.641 0 0 0-.568.006l-9.19 4.64a.641.641 0 0 1-.924-.663l1.421-10.045a.641.641 0 0 0-.19-.552l-7.307-7.038a.641.641 0 0 1 .32-1.091l10.097-2.005a.641.641 0 0 0 .45-.346l4.363-8.883a.641.641 0 0 1 1.13-.04l5.114 8.756a.641.641 0 0 0 .447.308l9.752 1.657a.641.641 0 0 1 .366 1.064z" fill="none" stroke="#000" stroke-linecap="round" stroke-linejoin="round" stroke-width="2" fill-rule="evenodd"/><path fill="none" stroke="#000" stroke-linecap="round" stroke-linejoin="round" stroke-width="2" d="M1213.381 5247.327l-23.688 8.162M1212.433 5256.497l-15.427 5.316M1206.986 5240.688l-15.427 5.315"/><path data-name="star" d="M1546.101 5988.213l-1.599 21.372a1.39 1.39 0 0 0 .417 1.1l15.75 15.319a1.39 1.39 0 0 1-.674 2.354l-20.953 4.546a1.39 1.39 0 0 0-.963.768l-9.479 20.188a1.39 1.39 0 0 1-2.461.104l-10.994-19.034a1.39 1.39 0 0 0-1.061-.688l-21.866-2.247a1.39 1.39 0 0 1-.912-2.288l14.548-16.906a1.39 1.39 0 0 0 .306-1.193l-4.421-20.98a1.39 1.39 0 0 1 1.872-1.578l20.42 8.106a1.39 1.39 0 0 0 1.174-.07l18.849-10.2a1.39 1.39 0 0 1 2.047 1.327z" fill="none" stroke="#000" stroke-linecap="round" stroke-linejoin="round" stroke-width="2" fill-rule="evenodd"/><path fill="none" stroke="#000" stroke-linecap="round" stroke-linejoin="round" stroke-width="2" d="M1553.592 5974.404l8.051-12.431M1569.159 6001.929l14.482-3.097M1522.108 5971.457l-3.097-14.482M1493.653 5978.181l-9.774-11.125"/><g fill="none" stroke="#000" stroke-linecap="round" stroke-width="2"><path d="M412.82 5659.378l-37.146-3.138a2 2 0 0 1-1.825-2.161l2.06-24.412a2 2 0 0 1 2.162-1.825l37.146 3.137a2 2 0 0 1 1.825 2.161l-2.06 24.413a2 2 0 0 1-2.161 1.825z" stroke-miterlimit="10"/><path stroke-linejoin="round" d="M392.511 5644.011l-17.504 12.173M413.79 5659.459l-15.47-14.955M416.074 5632.391l-19.882 13.56a1.524 1.524 0 0 1-1.869-.166l-17.032-16.67"/></g><g stroke="#000" stroke-width="2"><path d="M406.657 4656.68a19.735 19.735 0 0 0-17.789 7.792 3.963 3.963 0 0 0-.062 4.6l8.198 12.046a4.47 4.47 0 0 0 3.29 1.904l8.178.754 8.178.753a4.47 4.47 0 0 0 3.583-1.27l10.261-10.346a3.963 3.963 0 0 0 .78-4.533 19.736 19.736 0 0 0-16.065-10.912z" fill="none" stroke-linecap="round" stroke-linejoin="round" fill-rule="evenodd"/><path d="M417.73 4684.628l2.625 101.11a4.967 4.967 0 0 1-2.814 4.558l-17.272 8.621a4.585 4.585 0 0 1-4.775-.44l-15.406-11.632a4.967 4.967 0 0 1-1.934-4.995l21.06-98.927" fill="none" stroke-linecap="round" stroke-linejoin="round" fill-rule="evenodd"/><path d="M387.703 4736.997l-14.158 22.307a6.439 6.439 0 0 1-4.017 2.791l-.006.002a6.642 6.642 0 0 1-7.94-4.572l-.001-.005a5.892 5.892 0 0 1 .728-4.685l33.137-52.208" fill="none" stroke-linejoin="round" fill-rule="evenodd"/><path fill="#fff" stroke-linecap="round" stroke-miterlimit="10" d="M418.544 4731.842l-32.497 12.743M419.439 4749.736l-37.01 14.533M419.025 4765.538l-39.86 15.729"/></g><g stroke="#000" stroke-miterlimit="10" stroke-width="2"><circle cx="2535.091" cy="4098.932" r="20.986" transform="rotate(-79.222 2535.09 4098.932)" fill="none"/><path fill="#fff" stroke-linecap="round" d="M2559.498 4063.05l-7.182 10.558M2510.685 4134.814l7.182-10.558M2570.974 4123.338l-10.559-7.182M2499.209 4074.526l10.559 7.182M2577.722 4090.817l-12.545 2.388M2492.461 4107.047l12.544-2.388M2543.206 4141.562l-2.388-12.544M2526.977 4056.302l2.387 12.544"/><path d="M2537.455 4111.35a12.642 12.642 0 1 1-4.728-24.837" fill="none" stroke-linecap="round" fill-rule="evenodd"/></g><g data-name="trophy" fill="none" stroke="#000" stroke-linecap="round" stroke-linejoin="round" stroke-width="2"><path d="M1555.309 1527.635l-5.9 1.658a3.466 3.466 0 0 0-2.4 4.275l2.132 7.585c2.22 7.904 6.923 13.149 13.69 11.247" fill-rule="evenodd"/><path d="M1589.13 1576.104l13.87-3.898a1.716 1.716 0 0 0 1.187-2.116 5.621 5.621 0 0 0-5.168-4.096l-7.015-.304a1.716 1.716 0 0 1-1.578-1.25l-.937-3.334a1.731 1.731 0 0 1 .988-2.046c6.95-3.109 10.229-13.642 8.142-21.068l-7.202-25.627a1.716 1.716 0 0 0-2.116-1.187l-17.07 4.797-17.068 4.797a1.716 1.716 0 0 0-1.188 2.116l7.203 25.627c2.086 7.426 10.371 14.71 17.924 13.742a1.731 1.731 0 0 1 1.909 1.232l.937 3.334a1.716 1.716 0 0 1-.695 1.889l-5.83 3.914a5.621 5.621 0 0 0-2.279 6.188 1.716 1.716 0 0 0 2.116 1.188z" fill-rule="evenodd"/><path d="M1592.75 1517.112l5.9-1.658a3.466 3.466 0 0 1 4.276 2.399l2.131 7.585c2.222 7.904.94 14.83-5.827 16.732M1581.144 1544.378l-4.21-14.979-2.967 3.809" fill-rule="evenodd"/><path d="M1577.534 1545.392l7.219-2.028"/></g><g data-name="star-rising"><path data-name="star" d="M3247.815 2236.057l-6.662 7.312a.641.641 0 0 0-.161.518l1.365 10.049a.641.641 0 0 1-.915.663l-8.908-4.31a.641.641 0 0 0-.569.006l-9.188 4.64a.641.641 0 0 1-.925-.663l1.421-10.045a.641.641 0 0 0-.19-.552l-7.307-7.038a.641.641 0 0 1 .32-1.091l10.097-2.005a.641.641 0 0 0 .45-.346l4.363-8.883a.641.641 0 0 1 1.13-.04l5.114 8.756a.641.641 0 0 0 .447.308l9.752 1.657a.641.641 0 0 1 .366 1.064z" fill="none" stroke="#000" stroke-linecap="round" stroke-linejoin="round" stroke-width="2" fill-rule="evenodd"/><path fill="none" stroke="#000" stroke-linecap="round" stroke-linejoin="round" stroke-width="2" d="M3213.381 2247.327l-23.688 8.162M3212.433 2256.497l-15.427 5.316M3206.985 2240.688l-15.426 5.315"/></g><g data-name="wand"><path data-name="star" d="M3546.101 2988.213l-1.599 21.372a1.39 1.39 0 0 0 .417 1.1l15.75 15.319a1.39 1.39 0 0 1-.674 2.354l-20.953 4.546a1.39 1.39 0 0 0-.963.768l-9.479 20.188a1.39 1.39 0 0 1-2.461.104l-10.994-19.034a1.39 1.39 0 0 0-1.061-.687l-21.866-2.248a1.39 1.39 0 0 1-.912-2.288l14.548-16.906a1.39 1.39 0 0 0 .306-1.193l-4.421-20.98a1.39 1.39 0 0 1 1.872-1.578l20.42 8.106a1.39 1.39 0 0 0 1.174-.07l18.849-10.2a1.39 1.39 0 0 1 2.047 1.327z" fill="none" stroke="#000" stroke-linecap="round" stroke-linejoin="round" stroke-width="2" fill-rule="evenodd"/><path d="M3518.034 3039.35l-40.814 63.019a5.46 5.46 0 0 1-7.55 1.614 5.46 5.46 0 0 1-1.614-7.55l40.814-63.018" fill="none" stroke="#000" stroke-linejoin="round" stroke-width="2" fill-rule="evenodd"/><path fill="none" stroke="#000" stroke-linecap="round" stroke-linejoin="round" stroke-width="2" d="M3553.593 2974.404l8.05-12.431M3530.069 3067.218l1.944 14.834M3554.799 3051.959l9.046 12.023M3569.159 3001.929l14.482-3.097M3574.66 3030.646l14.149 4.369M3478.516 3033.831l-14.331 4.292M3482.327 3005.022l-14.672-3.338M3522.108 2971.456l-3.097-14.481M3493.653 2978.182l-9.774-11.125"/></g><g data-name="birthday-hat" fill="none" stroke="#000"><path data-name="&amp;lt;Path&amp;gt;" d="M296.44 2648.166l4.77 44.219a.86.86 0 0 0 1.27.661s2.706-6.69 13.769-12.763 18.16-4.767 18.16-4.767a.86.86 0 0 0 .123-1.426l-34.746-27.76" stroke-linejoin="round" stroke-width="2" fill-rule="evenodd"/><path d="M301.812 2693.116s4.825 1.102 17.885-6.068 15.129-12.058 15.129-12.058" stroke-linejoin="round" stroke-width="2" fill-rule="evenodd"/><circle cx="296.664" cy="2644.609" r="3.567" transform="rotate(-61.233 296.663 2644.608)" stroke-linejoin="round" stroke-width="2"/><path d="M280.37 2663.176s2.7-.61 4.046 2.69c1.22 2.988 4.113.205 4.853 3.225.73 2.979 3.935 2.615 3.935 2.615M295.134 2684.69a2.197 2.197 0 0 0-2.848-.625c-1.799.72-1.804-1.689-3.416-.75a2.169 2.169 0 0 1-2.77-.608M317.062 2652.823a2.197 2.197 0 0 1-.354-2.894c.885-1.723-1.512-1.954-.425-3.471a2.169 2.169 0 0 0-.344-2.815M329.326 2648.25s-2.44.51-1.807 3.542c.574 2.746-3.135 1.656-2.167 4.251.955 2.56-1.757 3.446-1.757 3.446" stroke-linecap="round" stroke-miterlimit="10" stroke-width="2"/><circle cx="291.222" cy="2657.739" r=".43" transform="rotate(-83.733 291.22 2657.738)" stroke-linecap="round" stroke-miterlimit="10" stroke-width="3"/><circle cx="333.767" cy="2664.808" r=".43" transform="rotate(-83.733 333.766 2664.807)" stroke-linecap="round" stroke-miterlimit="10" stroke-width="3"/></g><g fill="none" stroke="#000" stroke-linecap="round" stroke-linejoin="round" stroke-width="2"><path d="M1806.805 3631.87c-4.81 12.01-16.198 19.568-25.087 16.007s-11.815-17.13-7.102-28.899a17.337 17.337 0 0 1 32.19 12.893z" fill-rule="evenodd"/><path d="M1781.718 3647.877c3.795 1.52 3.893 7.553 3.893 7.553l-5.962-2.388-5.961-2.387s4.235-4.298 8.03-2.778z" fill-rule="evenodd"/><path d="M1779.65 3653.042a13.017 13.017 0 0 0-4.164 10.428c.145 3.487-.226 4.613-2.687 6.71-3.651 3.112-4.05 10.114-4.05 10.114"/><path d="M1827.997 3663.133c-7.287 5.873-17.146 6.606-21.492 1.213s-1.387-14.99 5.753-20.743a12.541 12.541 0 0 1 15.74 19.53zM1806.553 3664.567c2.244 2.783-.263 7.423-.263 7.423l-3.523-4.372-3.524-4.373s5.067-1.461 7.31 1.322z" fill-rule="evenodd"/><path d="M1802.767 3667.618s-4.537.32-5.714 4.358c-.757 2.597-1.78 2.811-4.072 3.28a8.803 8.803 0 0 0-6.136 4.946"/></g><g data-name="envelope" fill="none" stroke="#000" stroke-linecap="round" stroke-width="2"><path d="M2412.82 2659.378l-37.146-3.138a2 2 0 0 1-1.825-2.16l2.06-24.413a2 2 0 0 1 2.162-1.825l37.146 3.138a2 2 0 0 1 1.825 2.16l-2.06 24.413a2 2 0 0 1-2.161 1.825z" stroke-miterlimit="10"/><path stroke-linejoin="round" d="M2392.511 2644.01l-17.504 12.174M2413.79 2659.459l-15.47-14.955M2416.074 2632.391l-19.882 13.56a1.524 1.524 0 0 1-1.869-.166l-17.032-16.67"/></g><g fill="none" stroke="#000" stroke-miterlimit="10" stroke-width="2"><path d="M1435.282 4284.354l28.885 37.056a3.113 3.113 0 0 1-.541 4.37l-39.218 30.57a3.113 3.113 0 0 1-4.37-.542l-39.3-50.419a3.113 3.113 0 0 1 .541-4.369l25.856-20.154a3.113 3.113 0 0 1 2.297-.634l23.778 2.946a3.113 3.113 0 0 1 2.072 1.176z"/><path d="M1434.484 4283.33l-12.339 9.618a3.113 3.113 0 0 1-4.369-.541l-9.618-12.339"/><path stroke-linecap="round" d="M1408.072 4319.631l21.478-16.742M1413.586 4326.706l16.568-12.914M1419.101 4333.78l22.706-17.699M1424.616 4340.855l20.251-15.785"/></g><g data-name="document" fill="none" stroke="#000" stroke-miterlimit="10" stroke-width="2"><path d="M1524.81 4276.556l-9.785 29.214a2.042 2.042 0 0 1-2.584 1.287l-30.928-10.358a2.042 2.042 0 0 1-1.288-2.584l13.313-39.748a2.042 2.042 0 0 1 2.584-1.287l20.39 6.83a2.042 2.042 0 0 1 1.18 1.025l7.009 14.063a2.04 2.04 0 0 1 .109 1.558z"/><path d="M1525.08 4275.75l-9.73-3.26a2.042 2.042 0 0 1-1.289-2.583l3.258-9.728"/><path stroke-linecap="round" d="M1495.662 4274.466l16.938 5.673M1493.794 4280.044l13.065 4.375M1491.926 4285.621l17.906 5.997M1490.058 4291.199l15.969 5.348"/></g><g data-name="message" fill="none" stroke="#000" stroke-linecap="round"><path d="M668.68 2088.595c-20.247 1.557-35.568 17.047-34.218 34.596a29.355 29.355 0 0 0 10.302 19.876l-.037-.017-2.427 23.475 22.495-14.617-.1-.044a42.097 42.097 0 0 0 8.873.283c20.248-1.558 35.568-17.047 34.219-34.596s-18.858-30.514-39.106-28.956z" stroke-linejoin="round" stroke-width="2"/><circle cx="688.627" cy="2120.832" r="1.042" transform="rotate(-85.601 688.627 2120.832)" stroke-miterlimit="10" stroke-width="3"/><circle cx="671.263" cy="2122.168" r="1.042" transform="rotate(-85.601 671.263 2122.168)" stroke-miterlimit="10" stroke-width="3"/><circle cx="653.899" cy="2123.503" r="1.042" transform="rotate(-85.601 653.867 2123.405)" stroke-miterlimit="10" stroke-width="3"/></g><g data-name="message" fill="none" stroke="#000" stroke-linecap="round"><path d="M719.347 2158.804c11.777-1.734 22.543 5.136 24.046 15.343a17.208 17.208 0 0 1-3.313 12.698l.019-.014 4.43 13.105-14.754-5.44.05-.039a24.676 24.676 0 0 1-5.035 1.312c-11.777 1.734-22.543-5.136-24.046-15.343s6.826-19.888 18.603-21.622z" stroke-linejoin="round" stroke-width="2"/><circle cx="712.123" cy="2179.818" r=".611" transform="rotate(-81.625 712.124 2179.82)" stroke-miterlimit="10" stroke-width="3"/><circle cx="722.222" cy="2178.332" r=".611" transform="rotate(-81.625 722.224 2178.332)" stroke-miterlimit="10" stroke-width="3"/><circle cx="732.322" cy="2176.845" r=".611" transform="rotate(-81.625 732.323 2176.845)" stroke-miterlimit="10" stroke-width="3"/></g><g data-name="horn" stroke="#000" stroke-width="2"><path d="M1575.023 2261.432l5.434 36.355a3.772 3.772 0 0 1-3.173 4.289 3.772 3.772 0 0 1-4.288-3.174l-5.435-36.354a3.772 3.772 0 0 1 3.173-4.289 3.772 3.772 0 0 1 4.289 3.173z" fill="none" stroke-linejoin="round" fill-rule="evenodd"/><path d="M1567.647 2262.546s-13.009 8.524-20.217 9.601l-3.571.534M1576.85 2273.655a6.02 6.02 0 1 1 1.78 11.91M1526.5 2275.276l17.275-2.583 3.507 23.462-17.276 2.583a4 4 0 0 1-4.547-3.365l-2.325-15.55a4 4 0 0 1 3.365-4.547z" fill="none" stroke-linejoin="round" fill-rule="evenodd"/><path d="M1534.432 2311.95l4.931-.737a2.087 2.087 0 0 0 1.756-1.759l1.874-12.658-12.654 1.892 1.72 11.506a2.087 2.087 0 0 0 2.373 1.756z" fill="none" stroke-linejoin="round" fill-rule="evenodd"/><path fill="#fff" stroke-linecap="round" stroke-miterlimit="10" d="M1601.706 2276.028l-10.764 1.608M1602.602 2291.887l-10.126-3.989M1597.925 2260.599l-8.517 6.775"/><path d="M1573.078 2298.879s-14.933-4.347-22.141-3.27l-3.571.534" fill="none" stroke-linejoin="round" fill-rule="evenodd"/></g><g data-name="tie" stroke="#000" stroke-width="2"><path d="M2406.657 1656.68a19.735 19.735 0 0 0-17.789 7.792 3.963 3.963 0 0 0-.062 4.6l8.198 12.046a4.47 4.47 0 0 0 3.29 1.904l8.178.754 8.178.753a4.47 4.47 0 0 0 3.583-1.27l10.261-10.346a3.963 3.963 0 0 0 .78-4.533 19.736 19.736 0 0 0-16.065-10.912z" fill="none" stroke-linecap="round" stroke-linejoin="round" fill-rule="evenodd"/><path d="M2417.73 1684.629l2.625 101.11a4.967 4.967 0 0 1-2.814 4.557l-17.272 8.621a4.585 4.585 0 0 1-4.775-.44l-15.406-11.632a4.967 4.967 0 0 1-1.933-4.995l21.059-98.927" fill="none" stroke-linecap="round" stroke-linejoin="round" fill-rule="evenodd"/><path d="M2387.703 1736.997l-14.158 22.307a6.439 6.439 0 0 1-4.017 2.791l-.005.002a6.642 6.642 0 0 1-7.941-4.572l-.001-.005a5.892 5.892 0 0 1 .728-4.685l33.137-52.208" fill="none" stroke-linejoin="round" fill-rule="evenodd"/><path fill="#fff" stroke-linecap="round" stroke-miterlimit="10" d="M2418.544 1731.842l-32.497 12.743M2419.439 1749.736l-37.01 14.533M2419.025 1765.538l-39.86 15.729"/></g><g fill="none" stroke="#000" stroke-linecap="round" stroke-width="2" fill-rule="evenodd"><path data-name="heart" d="M332.989 3760.822c7.143 10.147 16.13 19.717 21.805 26.317a4.891 4.891 0 0 0 6.556.797c7.096-5.046 18.117-12.18 27.488-20.317M402.785 3752.012c4.446-7.454 5.414-15.15-.31-22.461a20.558 20.558 0 0 0-28.777-3.505l-8.995 7.043-6.898-8.812a20.621 20.621 0 0 0-28.376-4.101c-7.808 5.762-8.824 13.634-6.238 22.135" stroke-linejoin="round"/><path d="M318.318 3750.74l28.007 3.41a6.063 6.063 0 0 0 5.84-2.75l5.394-7.213 8.865 25.27 6.523-8.935a6.063 6.063 0 0 1 5.63-2.443l26.918 3.278" stroke-miterlimit="10"/></g><g fill="none" stroke="#000" stroke-linecap="round" stroke-linejoin="round" stroke-width="2"><path d="M3245.21 3823.154l3.881-3.768M3251.18 3821.537l-4.178-4.302a1 1 0 0 1 .021-1.414l7.799-7.573 5.57 5.737-7.799 7.572a1 1 0 0 1-1.414-.02z"/><path d="M3262.167 3815.812l-9.12-9.391a1 1 0 0 1 .02-1.415l54.885-53.295a1 1 0 0 1 1.414.02l9.12 9.393a1 1 0 0 1-.02 1.414l-54.885 53.295a1 1 0 0 1-1.414-.02zM3300.305 3780.171l-10.513-10.826"/><path d="M3303.582 3755.955c-3.541-3.647-7.53-4.723-10.915-1.436l-18.591 18.053M3316.769 3759.387l-5.718-5.888 3.26-3.165a3.277 3.277 0 0 1 4.634.068l1.152 1.185a3.277 3.277 0 0 1-.068 4.635z"/></g><g fill="none" stroke="#000" stroke-linecap="round"><path d="M2688.757 3211.421c7.673 2.92 14.936.508 22.602-9.865 6.56-8.874 17.3-.812 10.8 7.982l-.843 1.142a76.704 76.704 0 0 1-7.993 9.045c-1.92 1.894-2.859 3.834.122 6.037 4.77 3.526 13.352 9.643 13.352 9.643 6.569 4.855-1.792 15.377-8.478 10.436 5.588 4.13-.931 13.03-7.405 8.245 4.774 3.528-1.764 11.553-6.797 7.833 2.56 1.891-2.711 11.051-9.374 6.126l-30.936-22.865zM2718.318 3245.841l-3.821-2.825M2711.489 3254.511l-4.761-3.519M2704.117 3261.919l-4.746-3.508" stroke-linejoin="round" stroke-width="2"/><path d="M2649.48 3237.62l9.676 7.151a4 4 0 0 0 5.594-.839l22.876-30.95a4 4 0 0 0-.84-5.594l-9.675-7.151a4 4 0 0 0-5.594.839l-22.875 30.95a4 4 0 0 0 .839 5.594z" stroke-linejoin="round" stroke-width="2"/><circle cx="2661.602" cy="3231.341" r=".681" transform="rotate(-36.469 2661.604 3231.343)" stroke-miterlimit="10" stroke-width="3"/></g><g data-name="star-rising"><path data-name="star" d="M1246.674 3055.245l-28.001 3.029a1.763 1.763 0 0 1-1.459-.54l-20.666-21.37a1.796 1.796 0 0 0-3.067 1.028l-5.228 29.364a1.928 1.928 0 0 1-.974 1.37l-26.169 13.965a1.994 1.994 0 0 0-.05 3.433l25.377 14.604a1.94 1.94 0 0 1 .94 1.453l3.723 30.383a1.802 1.802 0 0 0 3.037 1.184l21.68-20.903a1.754 1.754 0 0 1 1.555-.472l27.698 5.374a1.907 1.907 0 0 0 2.006-2.668l-11.364-28.147a2.045 2.045 0 0 1 .05-1.639l12.725-26.645a1.922 1.922 0 0 0-1.813-2.803z" fill="none" stroke="#000" stroke-linecap="round" stroke-linejoin="round" stroke-width="2" fill-rule="evenodd"/><path fill="none" stroke="#000" stroke-linecap="round" stroke-linejoin="round" stroke-width="2" d="M1162.599 3118.566l-58.772 42.824M1140.024 3104.388l-38.275 27.889M1166.954 3146.019l-38.276 27.89"/></g><g data-name="balloons" fill="none" stroke="#000" stroke-linecap="round" stroke-linejoin="round" stroke-width="2"><path d="M3806.805 631.87c-4.81 12.01-16.198 19.568-25.087 16.007s-11.815-17.13-7.102-28.899a17.337 17.337 0 0 1 32.19 12.893z" fill-rule="evenodd"/><path d="M3781.718 647.877c3.795 1.52 3.893 7.553 3.893 7.553l-5.962-2.388-5.961-2.387s4.235-4.298 8.03-2.778z" fill-rule="evenodd"/><path d="M3779.65 653.042a13.017 13.017 0 0 0-4.164 10.429c.145 3.486-.226 4.612-2.687 6.71-3.651 3.11-4.05 10.113-4.05 10.113"/><path d="M3827.997 663.133c-7.287 5.873-17.146 6.606-21.492 1.213s-1.387-14.99 5.753-20.743a12.541 12.541 0 0 1 15.74 19.53zM3806.553 664.567c2.244 2.783-.262 7.423-.262 7.423l-3.524-4.372-3.524-4.373s5.067-1.461 7.31 1.322z" fill-rule="evenodd"/><path d="M3802.767 667.618s-4.537.32-5.714 4.358c-.757 2.597-1.78 2.811-4.072 3.28a8.803 8.803 0 0 0-6.136 4.946"/></g><g data-name="document" fill="none" stroke="#000" stroke-miterlimit="10" stroke-width="2"><path d="M3435.282 1284.354l28.885 37.056a3.113 3.113 0 0 1-.541 4.37l-39.218 30.57a3.113 3.113 0 0 1-4.37-.542l-39.3-50.419a3.113 3.113 0 0 1 .541-4.369l25.856-20.154a3.113 3.113 0 0 1 2.297-.634l23.778 2.947a3.113 3.113 0 0 1 2.072 1.175z"/><path d="M3434.484 1283.33l-12.339 9.618a3.113 3.113 0 0 1-4.369-.541l-9.618-12.339"/><path stroke-linecap="round" d="M3408.072 1319.631l21.478-16.742M3413.586 1326.706l16.568-12.914M3419.101 1333.78l22.706-17.699M3424.616 1340.855l20.251-15.785"/></g><g data-name="document" fill="none" stroke="#000" stroke-miterlimit="10" stroke-width="2"><path d="M3524.81 1276.556l-9.785 29.214a2.042 2.042 0 0 1-2.584 1.287l-30.928-10.358a2.042 2.042 0 0 1-1.288-2.584l13.313-39.748a2.042 2.042 0 0 1 2.584-1.287l20.39 6.83a2.042 2.042 0 0 1 1.18 1.025l7.009 14.063a2.04 2.04 0 0 1 .108 1.558z"/><path d="M3525.08 1275.75l-9.73-3.26a2.042 2.042 0 0 1-1.289-2.583l3.258-9.728"/><path stroke-linecap="round" d="M3495.662 1274.466l16.938 5.673M3493.794 1280.044l13.065 4.375M3491.926 1285.621l17.906 5.997M3490.058 1291.199l15.97 5.348"/></g><g data-name="heart" fill="none" stroke="#000" stroke-linecap="round" stroke-width="2" fill-rule="evenodd"><path data-name="heart" d="M2332.989 760.822c7.143 10.147 16.13 19.717 21.805 26.317a4.891 4.891 0 0 0 6.556.797c7.096-5.046 18.117-12.18 27.488-20.317M2402.785 752.012c4.446-7.454 5.415-15.15-.31-22.461a20.558 20.558 0 0 0-28.777-3.505l-8.995 7.043-6.898-8.812a20.621 20.621 0 0 0-28.376-4.101c-7.808 5.762-8.824 13.634-6.238 22.135" stroke-linejoin="round"/><path d="M2318.318 750.74l28.007 3.41a6.063 6.063 0 0 0 5.84-2.75l5.394-7.213 8.865 25.27 6.523-8.935a6.063 6.063 0 0 1 5.63-2.443l26.918 3.278" stroke-miterlimit="10"/></g><g data-name="star-rising"><path data-name="star" d="M3246.673 55.245l-28 3.029a1.763 1.763 0 0 1-1.459-.54l-20.666-21.37a1.796 1.796 0 0 0-3.067 1.028l-5.228 29.364a1.928 1.928 0 0 1-.974 1.37l-26.168 13.965a1.994 1.994 0 0 0-.05 3.433l25.376 14.604a1.94 1.94 0 0 1 .94 1.453l3.723 30.383a1.802 1.802 0 0 0 3.037 1.184l21.68-20.903a1.754 1.754 0 0 1 1.555-.472l27.698 5.374a1.907 1.907 0 0 0 2.005-2.668l-11.363-28.147a2.045 2.045 0 0 1 .05-1.639l12.725-26.645a1.922 1.922 0 0 0-1.814-2.803z" fill="none" stroke="#000" stroke-linecap="round" stroke-linejoin="round" stroke-width="2" fill-rule="evenodd"/><path fill="none" stroke="#000" stroke-linecap="round" stroke-linejoin="round" stroke-width="2" d="M3162.599 118.566l-58.772 42.824M3140.024 104.388l-38.275 27.889M3166.954 146.019l-38.276 27.89"/></g><g data-name="sun" stroke="#000" stroke-miterlimit="10" stroke-width="2"><circle cx="535.091" cy="1098.932" r="20.986" transform="rotate(-79.222 535.09 1098.932)" fill="none"/><path fill="#fff" stroke-linecap="round" d="M559.498 1063.05l-7.182 10.558M510.685 1134.814l7.182-10.558M570.974 1123.338l-10.559-7.182M499.209 1074.526l10.559 7.182M577.722 1090.817l-12.545 2.388M492.461 1107.047l12.544-2.388M543.206 1141.562l-2.388-12.544M526.976 1056.302l2.388 12.544"/><path d="M537.455 1111.35a12.642 12.642 0 1 1-4.728-24.837" fill="none" stroke-linecap="round" fill-rule="evenodd"/></g><g data-name="wand"><path data-name="star" d="M1546.101-11.787l-1.599 21.372a1.39 1.39 0 0 0 .417 1.1l15.75 15.319a1.39 1.39 0 0 1-.674 2.354l-20.953 4.546a1.39 1.39 0 0 0-.963.768L1528.6 53.86a1.39 1.39 0 0 1-2.461.104l-10.994-19.034a1.39 1.39 0 0 0-1.061-.687l-21.866-2.247a1.39 1.39 0 0 1-.912-2.29l14.547-16.905a1.39 1.39 0 0 0 .307-1.193l-4.421-20.98a1.39 1.39 0 0 1 1.872-1.578l20.419 8.107a1.39 1.39 0 0 0 1.174-.07l18.85-10.2a1.39 1.39 0 0 1 2.047 1.326z" fill="none" stroke="#000" stroke-linecap="round" stroke-linejoin="round" stroke-width="2" fill-rule="evenodd"/><path d="M1518.034 39.35l-40.814 63.018a5.46 5.46 0 0 1-7.55 1.615 5.46 5.46 0 0 1-1.615-7.55l40.815-63.019" fill="none" stroke="#000" stroke-linejoin="round" stroke-width="2" fill-rule="evenodd"/><path fill="none" stroke="#000" stroke-linecap="round" stroke-linejoin="round" stroke-width="2" d="M1530.069 67.219l1.944 14.833M1554.799 51.959l9.046 12.023M1569.159 1.929l14.482-3.097M1574.66 30.646l14.15 4.369M1478.516 33.831l-14.331 4.292M1482.327 5.022l-14.672-3.337"/></g><g data-name="pen" fill="none" stroke="#000" stroke-linecap="round" stroke-linejoin="round" stroke-width="2"><path d="M1245.21 823.154l3.881-3.768M1251.18 821.537l-4.178-4.302a1 1 0 0 1 .021-1.414l7.799-7.573 5.57 5.736-7.799 7.573a1 1 0 0 1-1.414-.02z"/><path d="M1262.167 815.812l-9.12-9.392a1 1 0 0 1 .02-1.414l54.885-53.295a1 1 0 0 1 1.414.02l9.12 9.393a1 1 0 0 1-.02 1.414l-54.885 53.295a1 1 0 0 1-1.414-.02zM1300.305 780.172l-10.513-10.827"/><path d="M1303.582 755.955c-3.541-3.647-7.53-4.723-10.915-1.436l-18.591 18.053M1316.768 759.387l-5.717-5.888 3.26-3.165a3.277 3.277 0 0 1 4.634.068l1.151 1.186a3.277 3.277 0 0 1-.068 4.634z"/></g><g data-name="like" fill="none" stroke="#000" stroke-linecap="round"><path d="M688.757 211.422c7.673 2.919 14.936.507 22.602-9.866 6.56-8.874 17.3-.812 10.8 7.982l-.843 1.142a76.704 76.704 0 0 1-7.993 9.045c-1.92 1.894-2.859 3.834.122 6.037 4.77 3.526 13.352 9.643 13.352 9.643 6.569 4.855-1.792 15.377-8.478 10.436 5.587 4.13-.931 13.03-7.405 8.245 4.774 3.528-1.764 11.553-6.797 7.833 2.56 1.891-2.711 11.051-9.374 6.126l-30.937-22.865zM718.318 245.841l-3.821-2.825M711.489 254.511l-4.761-3.519M704.117 261.919l-4.746-3.508" stroke-linejoin="round" stroke-width="2"/><path d="M649.48 237.62l9.676 7.151a4 4 0 0 0 5.594-.839l22.875-30.95a4 4 0 0 0-.839-5.594l-9.675-7.151a4 4 0 0 0-5.594.839l-22.876 30.95a4 4 0 0 0 .84 5.594z" stroke-linejoin="round" stroke-width="2"/><circle cx="661.602" cy="231.341" r=".681" transform="rotate(-36.469 661.602 231.341)" stroke-miterlimit="10" stroke-width="3"/></g></pattern></defs><title>nd-icon-pattern</title><path opacity=".3" fill="url(#a)" d="M0 0h2560v1821.932H0z"/></svg>