<svg xmlns="http://www.w3.org/2000/svg" viewBox="0 0 9910.1192 5600"><defs><pattern id="a" width="4000" height="6000" patternTransform="matrix(.2 0 0 .2 532.112 2.27)" patternUnits="userSpaceOnUse" viewBox="0 0 4000 6000"><path fill="none" d="M0 0h4000v6000H0z"/><path d="M3555.309 4527.635l-5.9 1.658a3.466 3.466 0 0 0-2.4 4.275l2.132 7.585c2.22 7.904 6.923 13.149 13.69 11.247" fill="none" stroke="#000" stroke-linecap="round" stroke-linejoin="round" stroke-width="2" fill-rule="evenodd"/><path d="M3589.13 4576.104l13.87-3.898a1.716 1.716 0 0 0 1.187-2.116v-.001a5.621 5.621 0 0 0-5.168-4.095l-7.015-.304a1.716 1.716 0 0 1-1.578-1.25l-.937-3.334a1.731 1.731 0 0 1 .989-2.046c6.95-3.11 10.228-13.642 8.14-21.068l-7.201-25.627a1.716 1.716 0 0 0-2.116-1.188l-17.07 4.798-17.068 4.797a1.716 1.716 0 0 0-1.188 2.116l7.202 25.627c2.087 7.426 10.372 14.709 17.925 13.742a1.731 1.731 0 0 1 1.909 1.231l.937 3.335a1.716 1.716 0 0 1-.695 1.889l-5.83 3.913a5.621 5.621 0 0 0-2.279 6.188v.002a1.716 1.716 0 0 0 2.116 1.187z" fill="none" stroke="#000" stroke-linecap="round" stroke-linejoin="round" stroke-width="2" fill-rule="evenodd"/><path d="M3592.75 4517.112l5.9-1.659a3.466 3.466 0 0 1 4.276 2.4l2.131 7.584c2.222 7.905.94 14.831-5.827 16.733M3581.144 4544.378l-4.21-14.979-2.967 3.809" fill="none" stroke="#000" stroke-linecap="round" stroke-linejoin="round" stroke-width="2" fill-rule="evenodd"/><path fill="none" stroke="#000" stroke-linecap="round" stroke-linejoin="round" stroke-width="2" d="M3577.534 4545.392l7.219-2.029"/><path d="M2296.44 5648.166l4.77 44.218a.86.86 0 0 0 1.27.662s2.707-6.69 13.769-12.764 18.16-4.766 18.16-4.766a.86.86 0 0 0 .123-1.426l-34.747-27.76" fill="none" stroke="#000" stroke-linejoin="round" stroke-width="2" fill-rule="evenodd"/><path d="M2301.811 5693.116s4.826 1.102 17.886-6.068 15.129-12.058 15.129-12.058" fill="none" stroke="#000" stroke-linejoin="round" stroke-width="2" fill-rule="evenodd"/><circle cx="2296.664" cy="5644.609" r="3.567" transform="rotate(-61.233 2296.66 5644.607)" fill="none" stroke="#000" stroke-linejoin="round" stroke-width="2"/><path d="M2280.37 5663.176s2.7-.61 4.046 2.689c1.22 2.989 4.113.206 4.853 3.226.73 2.979 3.935 2.615 3.935 2.615M2295.134 5684.69a2.197 2.197 0 0 0-2.848-.625c-1.799.72-1.804-1.69-3.416-.75a2.169 2.169 0 0 1-2.77-.608M2317.062 5652.823a2.197 2.197 0 0 1-.354-2.894c.885-1.724-1.512-1.954-.425-3.472a2.169 2.169 0 0 0-.344-2.814M2329.326 5648.249s-2.44.512-1.807 3.543c.574 2.746-3.135 1.655-2.167 4.25.955 2.56-1.757 3.447-1.757 3.447" fill="none" stroke="#000" stroke-linecap="round" stroke-miterlimit="10" stroke-width="2"/><circle cx="2291.222" cy="5657.739" r=".43" transform="rotate(-83.733 2291.22 5657.738)" fill="none" stroke="#000" stroke-linecap="round" stroke-miterlimit="10" stroke-width="3"/><circle cx="2333.767" cy="5664.808" r=".43" transform="rotate(-83.733 2333.765 5664.807)" fill="none" stroke="#000" stroke-linecap="round" stroke-miterlimit="10" stroke-width="3"/><path d="M2668.68 5088.595c-20.247 1.557-35.568 17.047-34.218 34.596a29.355 29.355 0 0 0 10.302 19.875l-.037-.016-2.427 23.475 22.495-14.617-.1-.044a42.097 42.097 0 0 0 8.873.283c20.248-1.558 35.568-17.047 34.219-34.597s-18.858-30.513-39.106-28.955z" fill="none" stroke="#000" stroke-linecap="round" stroke-linejoin="round" stroke-width="2"/><circle cx="2688.627" cy="5120.832" r="1.042" transform="rotate(-85.601 2688.627 5120.832)" fill="none" stroke="#000" stroke-linecap="round" stroke-miterlimit="10" stroke-width="3"/><circle cx="2671.263" cy="5122.168" r="1.042" transform="rotate(-85.601 2671.263 5122.168)" fill="none" stroke="#000" stroke-linecap="round" stroke-miterlimit="10" stroke-width="3"/><circle cx="2653.899" cy="5123.503" r="1.042" transform="rotate(-85.601 2653.772 5123.267)" fill="none" stroke="#000" stroke-linecap="round" stroke-miterlimit="10" stroke-width="3"/><path d="M2719.347 5158.804c11.777-1.734 22.543 5.135 24.046 15.343a17.208 17.208 0 0 1-3.313 12.697l.019-.013 4.43 13.105-14.754-5.44.05-.039a24.676 24.676 0 0 1-5.035 1.312c-11.777 1.734-22.543-5.136-24.046-15.343s6.826-19.888 18.603-21.622z" fill="none" stroke="#000" stroke-linecap="round" stroke-linejoin="round" stroke-width="2"/><circle cx="2712.123" cy="5179.818" r=".611" transform="rotate(-81.625 2712.126 5179.82)" fill="none" stroke="#000" stroke-linecap="round" stroke-miterlimit="10" stroke-width="3"/><circle cx="2722.222" cy="5178.331" r=".611" transform="rotate(-81.625 2722.226 5178.333)" fill="none" stroke="#000" stroke-linecap="round" stroke-miterlimit="10" stroke-width="3"/><circle cx="2732.322" cy="5176.845" r=".611" transform="rotate(-81.625 2732.325 5176.846)" fill="none" stroke="#000" stroke-linecap="round" stroke-miterlimit="10" stroke-width="3"/><path d="M3575.023 5261.432l5.434 36.355a3.772 3.772 0 0 1-3.173 4.288 3.772 3.772 0 0 1-4.288-3.173l-5.435-36.355a3.772 3.772 0 0 1 3.173-4.288 3.772 3.772 0 0 1 4.289 3.173z" fill="none" stroke="#000" stroke-linejoin="round" stroke-width="2" fill-rule="evenodd"/><path d="M3567.647 5262.546s-13.009 8.523-20.217 9.6l-3.57.535M3576.85 5273.655a6.02 6.02 0 1 1 1.78 11.909M3526.5 5275.275l17.275-2.582 3.507 23.462-17.276 2.582a4 4 0 0 1-4.547-3.364l-2.325-15.55a4 4 0 0 1 3.365-4.548z" fill="none" stroke="#000" stroke-linejoin="round" stroke-width="2" fill-rule="evenodd"/><path d="M3534.432 5311.95l4.931-.737a2.087 2.087 0 0 0 1.756-1.759l1.874-12.658-12.654 1.891 1.72 11.507a2.087 2.087 0 0 0 2.373 1.756z" fill="none" stroke="#000" stroke-linejoin="round" stroke-width="2" fill-rule="evenodd"/><path fill="#fff" stroke="#000" stroke-linecap="round" stroke-miterlimit="10" stroke-width="2" d="M3601.706 5276.027l-10.764 1.609M3602.602 5291.887l-10.126-3.989M3597.925 5260.599l-8.517 6.775"/><path d="M3573.078 5298.879s-14.933-4.348-22.141-3.27l-3.571.533" fill="none" stroke="#000" stroke-linejoin="round" stroke-width="2" fill-rule="evenodd"/><path d="M1247.815 5236.057l-6.662 7.312a.641.641 0 0 0-.161.518l1.365 10.048a.641.641 0 0 1-.915.664l-8.908-4.31a.641.641 0 0 0-.568.006l-9.19 4.64a.641.641 0 0 1-.924-.663l1.421-10.045a.641.641 0 0 0-.19-.552l-7.307-7.038a.641.641 0 0 1 .32-1.091l10.097-2.005a.641.641 0 0 0 .45-.346l4.363-8.883a.641.641 0 0 1 1.13-.04l5.114 8.755a.641.641 0 0 0 .447.31l9.752 1.655a.641.641 0 0 1 .366 1.065z" fill="none" stroke="#000" stroke-linecap="round" stroke-linejoin="round" stroke-width="2" fill-rule="evenodd"/><path fill="none" stroke="#000" stroke-linecap="round" stroke-linejoin="round" stroke-width="2" d="M1213.381 5247.327l-23.688 8.162M1212.433 5256.497l-15.427 5.315M1206.986 5240.687l-15.427 5.316"/><path d="M1546.101 5988.213l-1.599 21.372a1.39 1.39 0 0 0 .417 1.1l15.75 15.319a1.39 1.39 0 0 1-.674 2.354l-20.953 4.546a1.39 1.39 0 0 0-.963.767l-9.479 20.189a1.39 1.39 0 0 1-2.461.104l-10.994-19.034a1.39 1.39 0 0 0-1.061-.688l-21.866-2.247a1.39 1.39 0 0 1-.912-2.288l14.547-16.906a1.39 1.39 0 0 0 .307-1.193l-4.421-20.98a1.39 1.39 0 0 1 1.872-1.578l20.42 8.106a1.39 1.39 0 0 0 1.173-.07l18.85-10.2a1.39 1.39 0 0 1 2.047 1.327z" fill="none" stroke="#000" stroke-linecap="round" stroke-linejoin="round" stroke-width="2" fill-rule="evenodd"/><path fill="none" stroke="#000" stroke-linecap="round" stroke-linejoin="round" stroke-width="2" d="M1553.592 5974.403l8.051-12.43M1569.159 6001.929l14.482-3.097M1522.108 5971.456l-3.097-14.481M1493.653 5978.181l-9.774-11.125"/><path d="M412.82 5659.377l-37.146-3.137a2 2 0 0 1-1.825-2.161l2.06-24.412a2 2 0 0 1 2.162-1.825l37.146 3.137a2 2 0 0 1 1.825 2.161l-2.06 24.413a2 2 0 0 1-2.161 1.824z" fill="none" stroke="#000" stroke-linecap="round" stroke-miterlimit="10" stroke-width="2"/><path fill="none" stroke="#000" stroke-linecap="round" stroke-linejoin="round" stroke-width="2" d="M392.511 5644.01l-17.504 12.174M413.79 5659.459l-15.47-14.956M416.074 5632.391l-19.882 13.559a1.524 1.524 0 0 1-1.869-.165l-17.032-16.67"/><path d="M406.657 4656.68a19.735 19.735 0 0 0-17.789 7.791 3.963 3.963 0 0 0-.062 4.6l8.198 12.046a4.47 4.47 0 0 0 3.29 1.905l8.178.753 8.179.754a4.47 4.47 0 0 0 3.582-1.271l10.261-10.345a3.963 3.963 0 0 0 .78-4.534 19.736 19.736 0 0 0-16.065-10.911z" fill="none" stroke="#000" stroke-linecap="round" stroke-linejoin="round" stroke-width="2" fill-rule="evenodd"/><path d="M417.73 4684.628l2.625 101.11a4.967 4.967 0 0 1-2.814 4.558l-17.271 8.621a4.585 4.585 0 0 1-4.776-.44l-15.405-11.632a4.967 4.967 0 0 1-1.934-4.995l21.06-98.928" fill="none" stroke="#000" stroke-linecap="round" stroke-linejoin="round" stroke-width="2" fill-rule="evenodd"/><path d="M387.703 4736.997l-14.158 22.306a6.439 6.439 0 0 1-4.017 2.792l-.005.001a6.642 6.642 0 0 1-7.94-4.571l-.002-.005a5.892 5.892 0 0 1 .728-4.686l33.137-52.207" fill="none" stroke="#000" stroke-linejoin="round" stroke-width="2" fill-rule="evenodd"/><path fill="#fff" stroke="#000" stroke-linecap="round" stroke-miterlimit="10" stroke-width="2" d="M418.544 4731.842l-32.497 12.743M419.439 4749.736l-37.01 14.533M419.025 4765.538l-39.86 15.729"/><circle cx="2535.091" cy="4098.932" r="20.986" transform="rotate(-79.222 2535.09 4098.931)" fill="none" stroke="#000" stroke-miterlimit="10" stroke-width="2"/><path fill="#fff" stroke="#000" stroke-linecap="round" stroke-miterlimit="10" stroke-width="2" d="M2559.498 4063.049l-7.182 10.559M2510.685 4134.814l7.182-10.558M2570.974 4123.338l-10.559-7.182M2499.209 4074.526l10.559 7.181M2577.722 4090.817l-12.545 2.388M2492.461 4107.047l12.544-2.388M2543.206 4141.562l-2.388-12.544M2526.977 4056.301l2.387 12.545"/><path d="M2537.455 4111.35a12.642 12.642 0 1 1-4.728-24.837" fill="none" stroke="#000" stroke-linecap="round" stroke-miterlimit="10" stroke-width="2" fill-rule="evenodd"/><path d="M1555.309 1527.635l-5.9 1.658a3.466 3.466 0 0 0-2.4 4.275l2.132 7.585c2.22 7.904 6.923 13.149 13.69 11.247" fill="none" stroke="#000" stroke-linecap="round" stroke-linejoin="round" stroke-width="2" fill-rule="evenodd"/><path d="M1589.13 1576.104l13.87-3.898a1.716 1.716 0 0 0 1.187-2.116v-.001a5.621 5.621 0 0 0-5.168-4.095l-7.015-.304a1.716 1.716 0 0 1-1.578-1.25l-.937-3.334a1.731 1.731 0 0 1 .988-2.046c6.95-3.11 10.229-13.642 8.142-21.068l-7.202-25.627a1.716 1.716 0 0 0-2.116-1.188l-17.07 4.798-17.068 4.797a1.716 1.716 0 0 0-1.188 2.116l7.203 25.627c2.086 7.426 10.371 14.709 17.924 13.742a1.731 1.731 0 0 1 1.909 1.231l.937 3.335a1.716 1.716 0 0 1-.695 1.889l-5.83 3.913a5.621 5.621 0 0 0-2.279 6.188v.002a1.716 1.716 0 0 0 2.116 1.187z" fill="none" stroke="#000" stroke-linecap="round" stroke-linejoin="round" stroke-width="2" fill-rule="evenodd"/><path d="M1592.75 1517.112l5.9-1.658a3.466 3.466 0 0 1 4.276 2.399l2.131 7.584c2.222 7.905.94 14.831-5.827 16.733M1581.144 1544.378l-4.21-14.979-2.967 3.809" fill="none" stroke="#000" stroke-linecap="round" stroke-linejoin="round" stroke-width="2" fill-rule="evenodd"/><path fill="none" stroke="#000" stroke-linecap="round" stroke-linejoin="round" stroke-width="2" d="M1577.534 1545.392l7.219-2.029"/><path d="M3247.815 2236.057l-6.662 7.312a.641.641 0 0 0-.161.518l1.365 10.049a.641.641 0 0 1-.915.663l-8.908-4.31a.641.641 0 0 0-.569.006l-9.188 4.64a.641.641 0 0 1-.925-.663l1.421-10.045a.641.641 0 0 0-.19-.552l-7.307-7.038a.641.641 0 0 1 .32-1.091l10.097-2.005a.641.641 0 0 0 .45-.346l4.363-8.883a.641.641 0 0 1 1.13-.04l5.114 8.755a.641.641 0 0 0 .447.31l9.752 1.655a.641.641 0 0 1 .366 1.065z" fill="none" stroke="#000" stroke-linecap="round" stroke-linejoin="round" stroke-width="2" fill-rule="evenodd"/><path fill="none" stroke="#000" stroke-linecap="round" stroke-linejoin="round" stroke-width="2" d="M3213.381 2247.327l-23.688 8.162M3212.433 2256.497l-15.427 5.315M3206.985 2240.687l-15.426 5.316"/><path d="M3546.101 2988.213l-1.599 21.372a1.39 1.39 0 0 0 .417 1.1l15.75 15.319a1.39 1.39 0 0 1-.674 2.354l-20.953 4.546a1.39 1.39 0 0 0-.963.767l-9.479 20.189a1.39 1.39 0 0 1-2.461.104l-10.994-19.034a1.39 1.39 0 0 0-1.061-.687l-21.866-2.248a1.39 1.39 0 0 1-.912-2.288l14.547-16.906a1.39 1.39 0 0 0 .307-1.193l-4.421-20.98a1.39 1.39 0 0 1 1.872-1.578l20.42 8.106a1.39 1.39 0 0 0 1.173-.07l18.85-10.2a1.39 1.39 0 0 1 2.047 1.327z" fill="none" stroke="#000" stroke-linecap="round" stroke-linejoin="round" stroke-width="2" fill-rule="evenodd"/><path d="M3518.035 3039.35l-40.815 63.019a5.46 5.46 0 0 1-7.55 1.614 5.46 5.46 0 0 1-1.614-7.55l40.814-63.018" fill="none" stroke="#000" stroke-linejoin="round" stroke-width="2" fill-rule="evenodd"/><path fill="none" stroke="#000" stroke-linecap="round" stroke-linejoin="round" stroke-width="2" d="M3553.593 2974.403l8.05-12.43M3530.069 3067.218l1.944 14.834M3554.799 3051.958l9.046 12.024M3569.159 3001.929l14.482-3.097M3574.66 3030.646l14.149 4.369M3478.516 3033.83l-14.331 4.293M3482.327 3005.022l-14.672-3.338M3522.108 2971.456l-3.097-14.482M3493.653 2978.181l-9.774-11.125"/><path d="M296.44 2648.166l4.77 44.218a.86.86 0 0 0 1.27.662s2.706-6.69 13.769-12.763 18.16-4.767 18.16-4.767a.86.86 0 0 0 .123-1.426l-34.746-27.76" fill="none" stroke="#000" stroke-linejoin="round" stroke-width="2" fill-rule="evenodd"/><path d="M301.812 2693.116s4.825 1.102 17.885-6.068 15.129-12.058 15.129-12.058" fill="none" stroke="#000" stroke-linejoin="round" stroke-width="2" fill-rule="evenodd"/><circle cx="296.664" cy="2644.609" r="3.567" transform="rotate(-61.233 296.663 2644.608)" fill="none" stroke="#000" stroke-linejoin="round" stroke-width="2"/><path d="M280.37 2663.176s2.7-.61 4.046 2.689c1.22 2.989 4.113.206 4.853 3.226.73 2.979 3.935 2.615 3.935 2.615M295.134 2684.69a2.197 2.197 0 0 0-2.848-.625c-1.799.72-1.804-1.69-3.416-.75a2.169 2.169 0 0 1-2.77-.608M317.062 2652.823a2.197 2.197 0 0 1-.354-2.894c.885-1.723-1.512-1.954-.425-3.471a2.169 2.169 0 0 0-.344-2.815M329.326 2648.249s-2.44.512-1.807 3.543c.574 2.746-3.135 1.655-2.167 4.25.955 2.56-1.757 3.447-1.757 3.447" fill="none" stroke="#000" stroke-linecap="round" stroke-miterlimit="10" stroke-width="2"/><circle cx="291.222" cy="2657.739" r=".43" transform="rotate(-83.733 291.22 2657.738)" fill="none" stroke="#000" stroke-linecap="round" stroke-miterlimit="10" stroke-width="3"/><circle cx="333.767" cy="2664.808" r=".43" transform="rotate(-83.733 333.766 2664.807)" fill="none" stroke="#000" stroke-linecap="round" stroke-miterlimit="10" stroke-width="3"/><path d="M1806.805 3631.87c-4.81 12.01-16.198 19.568-25.087 16.007s-11.815-17.131-7.102-28.899a17.337 17.337 0 0 1 32.19 12.893z" fill="none" stroke="#000" stroke-linecap="round" stroke-linejoin="round" stroke-width="2" fill-rule="evenodd"/><path d="M1781.718 3647.877c3.795 1.52 3.893 7.553 3.893 7.553l-5.962-2.388-5.961-2.387s4.235-4.298 8.03-2.778z" fill="none" stroke="#000" stroke-linecap="round" stroke-linejoin="round" stroke-width="2" fill-rule="evenodd"/><path d="M1779.65 3653.042a13.017 13.017 0 0 0-4.164 10.428c.145 3.486-.225 4.613-2.687 6.71-3.651 3.112-4.05 10.114-4.05 10.114" fill="none" stroke="#000" stroke-linecap="round" stroke-linejoin="round" stroke-width="2"/><path d="M1827.997 3663.133c-7.287 5.873-17.146 6.606-21.492 1.213s-1.387-14.99 5.753-20.743a12.541 12.541 0 0 1 15.74 19.53zM1806.554 3664.566c2.243 2.784-.263 7.424-.263 7.424l-3.524-4.372-3.524-4.373s5.067-1.462 7.31 1.322z" fill="none" stroke="#000" stroke-linecap="round" stroke-linejoin="round" stroke-width="2" fill-rule="evenodd"/><path d="M1802.767 3667.617s-4.537.32-5.714 4.358c-.757 2.598-1.78 2.812-4.072 3.282a8.803 8.803 0 0 0-6.136 4.945" fill="none" stroke="#000" stroke-linecap="round" stroke-linejoin="round" stroke-width="2"/><path d="M2412.82 2659.377l-37.146-3.137a2 2 0 0 1-1.825-2.161l2.06-24.412a2 2 0 0 1 2.162-1.825l37.146 3.137a2 2 0 0 1 1.825 2.161l-2.06 24.413a2 2 0 0 1-2.161 1.824z" fill="none" stroke="#000" stroke-linecap="round" stroke-miterlimit="10" stroke-width="2"/><path fill="none" stroke="#000" stroke-linecap="round" stroke-linejoin="round" stroke-width="2" d="M2392.511 2644.01l-17.504 12.174M2413.79 2659.459l-15.47-14.956M2416.074 2632.391l-19.882 13.559a1.524 1.524 0 0 1-1.869-.165l-17.032-16.67"/><path d="M1435.282 4284.354l28.886 37.056a3.113 3.113 0 0 1-.542 4.369l-39.218 30.57a3.113 3.113 0 0 1-4.37-.541l-39.3-50.419a3.113 3.113 0 0 1 .541-4.369l25.856-20.154a3.113 3.113 0 0 1 2.297-.634l23.778 2.946a3.113 3.113 0 0 1 2.072 1.176z" fill="none" stroke="#000" stroke-miterlimit="10" stroke-width="2"/><path d="M1434.484 4283.33l-12.339 9.618a3.113 3.113 0 0 1-4.369-.541l-9.618-12.339" fill="none" stroke="#000" stroke-miterlimit="10" stroke-width="2"/><path fill="none" stroke="#000" stroke-linecap="round" stroke-miterlimit="10" stroke-width="2" d="M1408.072 4319.631l21.478-16.742M1413.586 4326.705l16.568-12.913M1419.101 4333.78l22.706-17.699M1424.616 4340.855l20.251-15.785"/><path d="M1524.81 4276.556l-9.784 29.214a2.042 2.042 0 0 1-2.585 1.287l-30.927-10.358a2.042 2.042 0 0 1-1.288-2.585l13.312-39.747a2.042 2.042 0 0 1 2.585-1.287l20.39 6.83a2.042 2.042 0 0 1 1.179 1.025l7.01 14.063a2.04 2.04 0 0 1 .108 1.558z" fill="none" stroke="#000" stroke-miterlimit="10" stroke-width="2"/><path d="M1525.08 4275.75l-9.73-3.26a2.042 2.042 0 0 1-1.289-2.584l3.258-9.727" fill="none" stroke="#000" stroke-miterlimit="10" stroke-width="2"/><path fill="none" stroke="#000" stroke-linecap="round" stroke-miterlimit="10" stroke-width="2" d="M1495.662 4274.466l16.938 5.673M1493.794 4280.044l13.065 4.375M1491.926 4285.621l17.906 5.997M1490.058 4291.198l15.969 5.349"/><path d="M668.68 2088.595c-20.247 1.557-35.568 17.047-34.218 34.596a29.355 29.355 0 0 0 10.302 19.875l-.037-.016-2.427 23.475 22.495-14.617-.1-.044a42.097 42.097 0 0 0 8.873.283c20.248-1.558 35.568-17.047 34.219-34.597s-18.858-30.513-39.106-28.955z" fill="none" stroke="#000" stroke-linecap="round" stroke-linejoin="round" stroke-width="2"/><circle cx="688.627" cy="2120.832" r="1.042" transform="rotate(-85.601 688.627 2120.832)" fill="none" stroke="#000" stroke-linecap="round" stroke-miterlimit="10" stroke-width="3"/><circle cx="671.263" cy="2122.168" r="1.042" transform="rotate(-85.601 671.263 2122.168)" fill="none" stroke="#000" stroke-linecap="round" stroke-miterlimit="10" stroke-width="3"/><circle cx="653.899" cy="2123.503" r="1.042" transform="rotate(-85.601 653.867 2123.405)" fill="none" stroke="#000" stroke-linecap="round" stroke-miterlimit="10" stroke-width="3"/><path d="M719.347 2158.804c11.777-1.734 22.543 5.135 24.046 15.343a17.208 17.208 0 0 1-3.313 12.697l.019-.013 4.43 13.105-14.754-5.44.05-.039a24.676 24.676 0 0 1-5.035 1.312c-11.777 1.734-22.543-5.136-24.046-15.343s6.826-19.888 18.603-21.622z" fill="none" stroke="#000" stroke-linecap="round" stroke-linejoin="round" stroke-width="2"/><circle cx="712.123" cy="2179.818" r=".611" transform="rotate(-81.625 712.124 2179.819)" fill="none" stroke="#000" stroke-linecap="round" stroke-miterlimit="10" stroke-width="3"/><circle cx="722.222" cy="2178.331" r=".611" transform="rotate(-81.625 722.224 2178.332)" fill="none" stroke="#000" stroke-linecap="round" stroke-miterlimit="10" stroke-width="3"/><circle cx="732.322" cy="2176.845" r=".611" transform="rotate(-81.625 732.323 2176.845)" fill="none" stroke="#000" stroke-linecap="round" stroke-miterlimit="10" stroke-width="3"/><path d="M1575.023 2261.432l5.434 36.355a3.772 3.772 0 0 1-3.173 4.288 3.772 3.772 0 0 1-4.288-3.173l-5.435-36.355a3.772 3.772 0 0 1 3.173-4.288 3.772 3.772 0 0 1 4.289 3.173z" fill="none" stroke="#000" stroke-linejoin="round" stroke-width="2" fill-rule="evenodd"/><path d="M1567.647 2262.546s-13.009 8.523-20.217 9.6l-3.57.535M1576.85 2273.655a6.02 6.02 0 1 1 1.78 11.909M1526.5 2275.275l17.275-2.582 3.507 23.462-17.276 2.582a4 4 0 0 1-4.547-3.364l-2.325-15.55a4 4 0 0 1 3.365-4.548z" fill="none" stroke="#000" stroke-linejoin="round" stroke-width="2" fill-rule="evenodd"/><path d="M1534.432 2311.95l4.931-.737a2.087 2.087 0 0 0 1.756-1.759l1.874-12.658-12.654 1.892 1.72 11.506a2.087 2.087 0 0 0 2.373 1.756z" fill="none" stroke="#000" stroke-linejoin="round" stroke-width="2" fill-rule="evenodd"/><path fill="#fff" stroke="#000" stroke-linecap="round" stroke-miterlimit="10" stroke-width="2" d="M1601.706 2276.027l-10.764 1.609M1602.602 2291.887l-10.126-3.989M1597.925 2260.599l-8.517 6.775"/><path d="M1573.078 2298.879s-14.933-4.348-22.141-3.27l-3.57.534" fill="none" stroke="#000" stroke-linejoin="round" stroke-width="2" fill-rule="evenodd"/><path d="M2406.657 1656.68a19.735 19.735 0 0 0-17.789 7.791 3.963 3.963 0 0 0-.061 4.6l8.197 12.046a4.47 4.47 0 0 0 3.29 1.905l8.178.753 8.178.754a4.47 4.47 0 0 0 3.583-1.271l10.261-10.345a3.963 3.963 0 0 0 .78-4.534 19.736 19.736 0 0 0-16.065-10.912z" fill="none" stroke="#000" stroke-linecap="round" stroke-linejoin="round" stroke-width="2" fill-rule="evenodd"/><path d="M2417.73 1684.628l2.625 101.11a4.967 4.967 0 0 1-2.814 4.558l-17.272 8.621a4.585 4.585 0 0 1-4.775-.44l-15.406-11.632a4.967 4.967 0 0 1-1.933-4.995l21.059-98.927" fill="none" stroke="#000" stroke-linecap="round" stroke-linejoin="round" stroke-width="2" fill-rule="evenodd"/><path d="M2387.703 1736.997l-14.158 22.306a6.439 6.439 0 0 1-4.017 2.792l-.005.001a6.642 6.642 0 0 1-7.94-4.571l-.002-.005a5.892 5.892 0 0 1 .728-4.686l33.137-52.207" fill="none" stroke="#000" stroke-linejoin="round" stroke-width="2" fill-rule="evenodd"/><path fill="#fff" stroke="#000" stroke-linecap="round" stroke-miterlimit="10" stroke-width="2" d="M2418.544 1731.842l-32.497 12.743M2419.439 1749.736l-37.01 14.533M2419.025 1765.537l-39.86 15.73"/><path d="M332.989 3760.822c7.143 10.147 16.13 19.717 21.805 26.317a4.891 4.891 0 0 0 6.556.797c7.096-5.046 18.117-12.18 27.488-20.317M402.785 3752.012c4.446-7.454 5.414-15.15-.31-22.461a20.558 20.558 0 0 0-28.777-3.505l-8.995 7.042-6.898-8.811a20.621 20.621 0 0 0-28.376-4.101c-7.808 5.762-8.824 13.634-6.238 22.135" fill="none" stroke="#000" stroke-linecap="round" stroke-linejoin="round" stroke-width="2" fill-rule="evenodd"/><path d="M318.319 3750.74l28.006 3.41a6.063 6.063 0 0 0 5.84-2.75l5.394-7.213 8.865 25.27 6.523-8.935a6.063 6.063 0 0 1 5.63-2.443l26.918 3.278" fill="none" stroke="#000" stroke-linecap="round" stroke-miterlimit="10" stroke-width="2" fill-rule="evenodd"/><path fill="none" stroke="#000" stroke-linecap="round" stroke-linejoin="round" stroke-width="2" d="M3245.21 3823.154l3.881-3.768M3251.18 3821.536l-4.178-4.301a1 1 0 0 1 .021-1.414l7.799-7.573 5.57 5.736-7.799 7.573a1 1 0 0 1-1.414-.02z"/><path d="M3262.167 3815.812l-9.12-9.392a1 1 0 0 1 .02-1.414l54.885-53.295a1 1 0 0 1 1.414.02l9.12 9.392a1 1 0 0 1-.02 1.414l-54.885 53.296a1 1 0 0 1-1.414-.021zM3300.306 3780.171l-10.514-10.826" fill="none" stroke="#000" stroke-linecap="round" stroke-linejoin="round" stroke-width="2"/><path d="M3303.582 3755.955c-3.541-3.647-7.53-4.723-10.915-1.436l-18.591 18.053M3316.769 3759.387l-5.718-5.888 3.26-3.165a3.277 3.277 0 0 1 4.634.068l1.152 1.185a3.277 3.277 0 0 1-.068 4.635zM2688.757 3211.421c7.673 2.92 14.936.508 22.602-9.865 6.56-8.874 17.3-.812 10.8 7.982l-.843 1.142a76.704 76.704 0 0 1-7.993 9.045c-1.92 1.894-2.859 3.834.122 6.037 4.77 3.526 13.352 9.643 13.352 9.643 6.569 4.855-1.792 15.377-8.478 10.436 5.588 4.13-.931 13.03-7.405 8.245 4.774 3.528-1.764 11.552-6.797 7.833 2.56 1.891-2.711 11.051-9.374 6.126l-30.936-22.865zM2718.319 3245.841l-3.822-2.825M2711.489 3254.511l-4.761-3.519M2704.117 3261.919l-4.746-3.509" fill="none" stroke="#000" stroke-linecap="round" stroke-linejoin="round" stroke-width="2"/><path d="M2649.48 3237.62l9.676 7.151a4 4 0 0 0 5.594-.839l22.876-30.95a4 4 0 0 0-.84-5.594l-9.675-7.151a4 4 0 0 0-5.594.839l-22.875 30.95a4 4 0 0 0 .839 5.594z" fill="none" stroke="#000" stroke-linecap="round" stroke-linejoin="round" stroke-width="2"/><circle cx="2661.602" cy="3231.341" r=".681" transform="rotate(-36.469 2661.604 3231.342)" fill="none" stroke="#000" stroke-linecap="round" stroke-miterlimit="10" stroke-width="3"/><path d="M1246.674 3055.245l-28.001 3.029a1.763 1.763 0 0 1-1.459-.54l-20.666-21.37a1.796 1.796 0 0 0-3.067 1.027l-5.228 29.365a1.928 1.928 0 0 1-.974 1.37l-26.169 13.964a1.994 1.994 0 0 0-.05 3.434l25.377 14.604a1.94 1.94 0 0 1 .94 1.453l3.723 30.383a1.802 1.802 0 0 0 3.037 1.183l21.68-20.902a1.754 1.754 0 0 1 1.555-.472l27.698 5.374a1.907 1.907 0 0 0 2.006-2.668l-11.364-28.147a2.045 2.045 0 0 1 .05-1.639l12.725-26.646a1.922 1.922 0 0 0-1.813-2.802z" fill="none" stroke="#000" stroke-linecap="round" stroke-linejoin="round" stroke-width="2" fill-rule="evenodd"/><path fill="none" stroke="#000" stroke-linecap="round" stroke-linejoin="round" stroke-width="2" d="M1162.599 3118.566l-58.772 42.824M1140.024 3104.388l-38.275 27.889M1166.954 3146.019l-38.275 27.89"/><path d="M3806.805 631.87c-4.81 12.01-16.198 19.568-25.087 16.007s-11.815-17.131-7.102-28.899a17.337 17.337 0 0 1 32.19 12.893z" fill="none" stroke="#000" stroke-linecap="round" stroke-linejoin="round" stroke-width="2" fill-rule="evenodd"/><path d="M3781.718 647.877c3.795 1.52 3.893 7.553 3.893 7.553l-5.962-2.388-5.961-2.387s4.235-4.298 8.03-2.778z" fill="none" stroke="#000" stroke-linecap="round" stroke-linejoin="round" stroke-width="2" fill-rule="evenodd"/><path d="M3779.65 653.042a13.017 13.017 0 0 0-4.164 10.428c.146 3.486-.225 4.613-2.687 6.71-3.651 3.112-4.05 10.114-4.05 10.114" fill="none" stroke="#000" stroke-linecap="round" stroke-linejoin="round" stroke-width="2"/><path d="M3827.997 663.133c-7.287 5.873-17.146 6.606-21.492 1.213s-1.387-14.99 5.753-20.743a12.541 12.541 0 0 1 15.74 19.53zM3806.554 664.567c2.243 2.783-.263 7.423-.263 7.423l-3.524-4.372-3.524-4.373s5.067-1.462 7.31 1.322z" fill="none" stroke="#000" stroke-linecap="round" stroke-linejoin="round" stroke-width="2" fill-rule="evenodd"/><path d="M3802.767 667.617s-4.537.32-5.714 4.359c-.757 2.597-1.78 2.811-4.072 3.28a8.803 8.803 0 0 0-6.136 4.946" fill="none" stroke="#000" stroke-linecap="round" stroke-linejoin="round" stroke-width="2"/><path d="M3435.282 1284.354l28.885 37.056a3.113 3.113 0 0 1-.541 4.369l-39.218 30.57a3.113 3.113 0 0 1-4.37-.541l-39.3-50.419a3.113 3.113 0 0 1 .541-4.369l25.856-20.154a3.113 3.113 0 0 1 2.297-.634l23.778 2.946a3.113 3.113 0 0 1 2.072 1.176z" fill="none" stroke="#000" stroke-miterlimit="10" stroke-width="2"/><path d="M3434.484 1283.33l-12.339 9.618a3.113 3.113 0 0 1-4.369-.541l-9.618-12.339" fill="none" stroke="#000" stroke-miterlimit="10" stroke-width="2"/><path fill="none" stroke="#000" stroke-linecap="round" stroke-miterlimit="10" stroke-width="2" d="M3408.072 1319.631l21.478-16.742M3413.586 1326.705l16.568-12.913M3419.101 1333.78l22.706-17.699M3424.616 1340.855l20.251-15.785"/><path d="M3524.81 1276.556l-9.784 29.213a2.042 2.042 0 0 1-2.585 1.288l-30.927-10.359a2.042 2.042 0 0 1-1.288-2.584l13.312-39.747a2.042 2.042 0 0 1 2.585-1.287l20.39 6.83a2.042 2.042 0 0 1 1.179 1.025l7.01 14.063a2.04 2.04 0 0 1 .108 1.558z" fill="none" stroke="#000" stroke-miterlimit="10" stroke-width="2"/><path d="M3525.08 1275.75l-9.73-3.26a2.042 2.042 0 0 1-1.289-2.584l3.258-9.727" fill="none" stroke="#000" stroke-miterlimit="10" stroke-width="2"/><path fill="none" stroke="#000" stroke-linecap="round" stroke-miterlimit="10" stroke-width="2" d="M3495.662 1274.466l16.938 5.673M3493.794 1280.044l13.065 4.375M3491.926 1285.621l17.906 5.997M3490.058 1291.198l15.97 5.349"/><path d="M2332.989 760.822c7.143 10.147 16.13 19.717 21.805 26.317a4.891 4.891 0 0 0 6.556.797c7.096-5.046 18.117-12.18 27.488-20.317M2402.785 752.012c4.446-7.454 5.415-15.15-.31-22.461a20.558 20.558 0 0 0-28.777-3.505l-8.995 7.042-6.898-8.811a20.621 20.621 0 0 0-28.376-4.101c-7.808 5.762-8.824 13.634-6.238 22.135" fill="none" stroke="#000" stroke-linecap="round" stroke-linejoin="round" stroke-width="2" fill-rule="evenodd"/><path d="M2318.319 750.74l28.006 3.41a6.063 6.063 0 0 0 5.84-2.75l5.394-7.213 8.865 25.27 6.523-8.935a6.063 6.063 0 0 1 5.63-2.443l26.918 3.278" fill="none" stroke="#000" stroke-linecap="round" stroke-miterlimit="10" stroke-width="2" fill-rule="evenodd"/><path d="M3246.673 55.245l-28 3.029a1.763 1.763 0 0 1-1.459-.54l-20.666-21.37a1.796 1.796 0 0 0-3.067 1.027l-5.228 29.365a1.928 1.928 0 0 1-.974 1.37l-26.168 13.964a1.994 1.994 0 0 0-.05 3.433l25.376 14.605a1.94 1.94 0 0 1 .94 1.453l3.723 30.382a1.802 1.802 0 0 0 3.037 1.184l21.68-20.903a1.754 1.754 0 0 1 1.555-.472l27.698 5.374a1.907 1.907 0 0 0 2.006-2.668l-11.364-28.146a2.045 2.045 0 0 1 .05-1.639l12.725-26.646a1.922 1.922 0 0 0-1.814-2.802z" fill="none" stroke="#000" stroke-linecap="round" stroke-linejoin="round" stroke-width="2" fill-rule="evenodd"/><path fill="none" stroke="#000" stroke-linecap="round" stroke-linejoin="round" stroke-width="2" d="M3162.599 118.566l-58.772 42.824M3140.024 104.388l-38.275 27.889M3166.954 146.019l-38.275 27.89"/><circle cx="535.091" cy="1098.932" r="20.986" transform="rotate(-79.222 535.09 1098.932)" fill="none" stroke="#000" stroke-miterlimit="10" stroke-width="2"/><path fill="#fff" stroke="#000" stroke-linecap="round" stroke-miterlimit="10" stroke-width="2" d="M559.498 1063.049l-7.182 10.559M510.685 1134.814l7.182-10.559M570.974 1123.338l-10.559-7.182M499.209 1074.526l10.559 7.181M577.722 1090.817l-12.544 2.388M492.461 1107.047l12.544-2.388M543.206 1141.562l-2.388-12.544M526.976 1056.301l2.388 12.545"/><path d="M537.455 1111.35a12.642 12.642 0 1 1-4.728-24.837" fill="none" stroke="#000" stroke-linecap="round" stroke-miterlimit="10" stroke-width="2" fill-rule="evenodd"/><path d="M1546.101-11.787l-1.599 21.372a1.39 1.39 0 0 0 .417 1.1l15.75 15.319a1.39 1.39 0 0 1-.674 2.354l-20.953 4.546a1.39 1.39 0 0 0-.963.767L1528.6 53.86a1.39 1.39 0 0 1-2.461.104l-10.994-19.034a1.39 1.39 0 0 0-1.061-.687l-21.866-2.247a1.39 1.39 0 0 1-.912-2.29l14.547-16.905a1.39 1.39 0 0 0 .307-1.193l-4.421-20.98a1.39 1.39 0 0 1 1.872-1.578l20.42 8.106a1.39 1.39 0 0 0 1.173-.069l18.85-10.2a1.39 1.39 0 0 1 2.047 1.326z" fill="none" stroke="#000" stroke-linecap="round" stroke-linejoin="round" stroke-width="2" fill-rule="evenodd"/><path d="M1518.034 39.35l-40.814 63.018a5.46 5.46 0 0 1-7.55 1.615 5.46 5.46 0 0 1-1.615-7.55l40.815-63.019" fill="none" stroke="#000" stroke-linejoin="round" stroke-width="2" fill-rule="evenodd"/><path fill="none" stroke="#000" stroke-linecap="round" stroke-linejoin="round" stroke-width="2" d="M1530.069 67.218l1.944 14.834M1554.799 51.958l9.046 12.024M1569.159 1.929l14.482-3.097M1574.66 30.646l14.15 4.368M1478.516 33.83l-14.331 4.293M1482.327 5.022l-14.672-3.338M1245.21 823.154l3.881-3.768M1251.18 821.536l-4.178-4.301a1 1 0 0 1 .021-1.414l7.799-7.573 5.57 5.736-7.799 7.573a1 1 0 0 1-1.414-.02z"/><path d="M1262.167 815.812l-9.12-9.392a1 1 0 0 1 .02-1.414l54.885-53.295a1 1 0 0 1 1.414.02l9.12 9.392a1 1 0 0 1-.02 1.415l-54.885 53.295a1 1 0 0 1-1.414-.021zM1300.306 780.171l-10.514-10.826" fill="none" stroke="#000" stroke-linecap="round" stroke-linejoin="round" stroke-width="2"/><path d="M1303.582 755.955c-3.541-3.647-7.53-4.723-10.915-1.436l-18.591 18.053M1316.769 759.387l-5.718-5.888 3.26-3.165a3.277 3.277 0 0 1 4.634.068l1.152 1.185a3.277 3.277 0 0 1-.068 4.635zM688.757 211.421c7.673 2.92 14.936.508 22.602-9.865 6.56-8.874 17.3-.812 10.8 7.982l-.843 1.142a76.704 76.704 0 0 1-7.993 9.045c-1.92 1.894-2.859 3.834.122 6.037 4.77 3.526 13.352 9.643 13.352 9.643 6.569 4.855-1.792 15.377-8.478 10.436 5.587 4.13-.931 13.03-7.405 8.245 4.774 3.528-1.764 11.552-6.797 7.833 2.56 1.891-2.711 11.051-9.374 6.126l-30.937-22.865zM718.319 245.841l-3.822-2.825M711.489 254.511l-4.761-3.519M704.117 261.919l-4.746-3.509" fill="none" stroke="#000" stroke-linecap="round" stroke-linejoin="round" stroke-width="2"/><path d="M649.48 237.62l9.676 7.151a4 4 0 0 0 5.594-.839l22.875-30.95a4 4 0 0 0-.839-5.594l-9.675-7.151a4 4 0 0 0-5.594.839l-22.876 30.95a4 4 0 0 0 .84 5.594z" fill="none" stroke="#000" stroke-linecap="round" stroke-linejoin="round" stroke-width="2"/><circle cx="661.602" cy="231.341" r=".681" transform="rotate(-36.469 661.602 231.341)" fill="none" stroke="#000" stroke-linecap="round" stroke-miterlimit="10" stroke-width="3"/></pattern></defs><title>Asset 8</title><path fill="url(#a)" d="M0 0h9910.119v5600H0z"/></svg>