<svg id="index_320px" data-name="index@320px" xmlns="http://www.w3.org/2000/svg" viewBox="0 0 15.06 26"><defs><style>.cls-1{opacity:.7}.cls-2{fill:#f0f1f2}</style></defs><title>ok</title><g id="footer"><g id="social" class="cls-1"><g id="ok.ru"><path class="cls-2" d="M1240.57 4070.32a6.71 6.71 0 1 0-6.71-6.71 6.72 6.72 0 0 0 6.71 6.71m0-9.49a2.78 2.78 0 1 1-2.78 2.78 2.78 2.78 0 0 1 2.78-2.78zM1243.29 4075.79a12.57 12.57 0 0 0 3.9-1.61 2 2 0 0 0-2.09-3.33 8.52 8.52 0 0 1-9 0 2 2 0 0 0-2.09 3.33 12.59 12.59 0 0 0 3.9 1.61l-3.75 3.75a2 2 0 0 0 2.78 2.78l3.68-3.69 3.69 3.69a2 2 0 1 0 2.78-2.78l-3.75-3.75" transform="translate(-1233.04 -4056.9)"/></g></g></g></svg>