<?xml version="1.0" encoding="utf-8"?>
<!-- Generator: Adobe Illustrator 18.0.0, SVG Export Plug-In . SVG Version: 6.00 Build 0)  -->
<!DOCTYPE svg PUBLIC "-//W3C//DTD SVG 1.1//EN" "http://www.w3.org/Graphics/SVG/1.1/DTD/svg11.dtd">
<svg version="1.1" id="Layer_1" xmlns="http://www.w3.org/2000/svg" xmlns:xlink="http://www.w3.org/1999/xlink" x="0px" y="0px"
	 viewBox="0 0 439.4 76.5" enable-background="new 0 0 439.4 76.5" xml:space="preserve">
<path fill="#08623C" d="M415.2,31.6h11.7c1,0,1.7,0.2,2.2,0.6c0.6,0.5,0.9,1.4,0.9,2.5c0,1.2-0.3,2-0.9,2.5
	c-0.5,0.4-1.2,0.6-2.2,0.6h-11.7V31.6L415.2,31.6z M407.1,51.1h8.1v-6.4h11.7c4.3,0,7.2-0.5,8.6-1.6c1.7-1.3,2.5-4.1,2.5-8.3
	c0-4.3-0.9-7.1-2.6-8.4c-1.4-1.1-4.2-1.6-8.5-1.6h-19.8L407.1,51.1L407.1,51.1z M381.6,31.6v19.6h8.1V31.6h11.6v-6.8H370v6.8H381.6
	L381.6,31.6z M330.4,51.1h8.1V40.8H356v10.3h8.1V24.8H356V34h-17.5v-9.2h-8.1V51.1L330.4,51.1z M323.7,51.1v-6.4h-20.2v-3.6h19.3
	v-6.3h-19.3v-3.7h20.2v-6.4h-28.3v26.4H323.7L323.7,51.1z M262.8,24.7h-8.1v26.4h25.5c0.6,0,1.1,0.1,1.3,0.4
	c0.3,0.3,0.4,0.7,0.4,1.3v2.6h8.1v-11h-2.6V24.7h-8.1v19.5h-16.6V24.7H262.8z M222.9,32.1c0.8-0.5,3.5-0.8,8.2-0.8
	c4.6,0,7.3,0.3,8.1,0.8c0.8,0.6,1.2,2.5,1.2,5.9s-0.4,5.3-1.2,5.9c-0.8,0.6-3.5,0.8-8.2,0.8c-4.6,0-7.3-0.3-8.1-0.8
	s-1.2-2.5-1.2-5.9S222.1,32.6,222.9,32.1L222.9,32.1L222.9,32.1z M246.1,26.4c-1.7-1.4-6.7-2-15.1-2s-13.4,0.7-15.1,2.1
	c-1.5,1.3-2.3,5.1-2.3,11.5c0,4.7,0.2,7.7,0.7,9.2c0.6,1.9,2.2,3.1,4.6,3.7c1.9,0.4,5.9,0.7,12.1,0.7c8.4,0,13.4-0.7,15.1-2
	c1.5-1.2,2.3-5.1,2.3-11.5C248.4,31.6,247.6,27.7,246.1,26.4L246.1,26.4L246.1,26.4z M175.3,51.1h8.1V40.8h4.2l10.3,10.3h11.7
	l-14.8-13.8L208,24.8h-11.2l-9.2,9.2h-4.2v-9.2h-8.1V51.1L175.3,51.1z M134.4,51.1h8.1V40.8H160v10.3h8.1V24.8H160V34h-17.5v-9.2
	h-8.1V51.1L134.4,51.1z M103,32.1c0.8-0.5,3.5-0.8,8.2-0.8c4.6,0,7.3,0.3,8.1,0.8c0.8,0.6,1.2,2.5,1.2,5.9s-0.4,5.3-1.2,5.9
	c-0.8,0.6-3.5,0.8-8.2,0.8c-4.6,0-7.3-0.3-8.1-0.8c-0.8-0.5-1.2-2.5-1.2-5.9S102.2,32.6,103,32.1L103,32.1L103,32.1z M126.2,26.4
	c-1.7-1.4-6.7-2-15.1-2S97.7,25.1,96,26.5c-1.5,1.3-2.3,5.1-2.3,11.5c0,4.7,0.2,7.7,0.7,9.2c0.6,1.9,2.2,3.1,4.6,3.7
	c1.9,0.4,5.9,0.7,12.1,0.7c8.4,0,13.4-0.7,15.1-2c1.6-1.2,2.3-5.1,2.3-11.5C128.5,31.6,127.7,27.7,126.2,26.4L126.2,26.4z"/>
<g>
	<path fill="#A0C96D" d="M14.5,53.1c-2.1-7.1-1.1-14.8,2.8-21.7c3.3-5.9,8.1-9.8,13.7-11.3c4.8-1.3,10.4-0.8,14.8,1.3
		c2.2,1.1,4,2.3,5.4,3.5c-1.9-3.1-5-6.8-10.2-9.4c-5.6-2.8-12-3.4-18.4-1.6C22.4,14,22.2,14,22,14.1c-0.1,0-0.3,0.1-0.4,0.1
		c-5.4,1.4-10,4.4-13.4,8.3l0,0c-5.8,6.6-8.4,15.9-6,25c0.1,0.4,0.2,0.9,0.4,1.3c0,0.1,0.1,0.2,0.1,0.3c5,15.6,19.8,25.8,35.9,25.5
		c-2.8-0.7-5.5-1.8-8.1-3.2C22.4,67.4,16.8,60.8,14.5,53.1L14.5,53.1z"/>
	<path fill="#E4AF6B" d="M69.3,19c0.8,2.8,1.2,5.6,1.3,8.6c0.3,9-2.6,17.2-8.1,23C57.3,56,50.2,59,42.3,59c-6.7,0-12.5-2.1-16.6-6.2
		c-3.5-3.5-5.9-8.6-6.2-13.5c-0.2-2.5,0-4.6,0.4-6.4c-1.7,3.2-3.4,7.8-3,13.5c0.4,6.3,3.1,12.1,7.8,16.7c0.2,0.2,0.3,0.3,0.5,0.5
		c0.1,0.1,0.2,0.2,0.3,0.3c3.9,3.9,8.8,6.4,13.9,7.4l0,0c8.6,1.8,18-0.7,24.7-7.3c0.3-0.3,0.6-0.7,0.9-1c0.1-0.1,0.1-0.2,0.2-0.2
		C76.1,50.7,77.6,32.7,69.3,19L69.3,19z"/>
	<path fill="#08623C" d="M36.6,10.2C43.8,12,50,16.7,53.9,23.5c3.4,5.8,4.4,11.9,2.9,17.5c-1.3,4.8-4.5,9.4-8.6,12.1
		c-2.1,1.4-4,2.3-5.7,2.9c3.6-0.1,8.4-0.9,13.2-4.1c5.2-3.5,8.9-8.7,10.6-15.1c0.1-0.2,0.1-0.4,0.2-0.6c0-0.1,0.1-0.3,0.1-0.4
		c1.4-5.4,1.2-10.8-0.5-15.7l0,0c-2.8-8.4-9.6-15.2-18.7-17.7c-0.4-0.1-0.9-0.2-1.3-0.3c-0.1,0-0.2,0-0.3-0.1
		c-2.5-0.5-5-0.8-7.4-0.8h-0.1c-13.4,0-25.9,7.3-32.4,19.1c2-2.1,4.3-3.9,6.8-5.5C20.3,9.8,28.8,8.3,36.6,10.2L36.6,10.2z"/>
	<path fill="#08623C" d="M32,22.6c-2,1.3-2.3,4.3-1.1,7.3c0.1,0.2,0.2,0.4,0.3,0.6l0,0c0.1,0.2,0.2,0.4,0.3,0.6v0.1
		c0.1,0.2,0.2,0.4,0.3,0.5c0,0,0,0.1,0.1,0.1c0.1,0.2,0.2,0.4,0.4,0.6c0.1,0.2,0.3,0.4,0.5,0.6c1.4,1.8,3.2,3,4.9,3.5V22.9
		C35.5,21.8,33.5,21.6,32,22.6L32,22.6z"/>
	<path fill="#08623C" d="M43.2,33c0.2-0.2,0.3-0.4,0.5-0.6c0.1-0.2,0.2-0.3,0.3-0.5c0,0,0-0.1,0.1-0.1c0.1-0.1,0.2-0.3,0.3-0.4l0,0
		c0.1-0.2,0.2-0.3,0.3-0.5l0,0c0.1-0.2,0.2-0.3,0.2-0.5c1.4-3.2,1.1-6.4-0.9-7.7c-1.5-1-3.6-0.8-5.5,0.3v13.6
		C40,36,41.8,34.8,43.2,33L43.2,33z"/>
	<path fill="#A0C96D" d="M36.6,37.7c-1.3-1.2-3.2-2.1-5.4-2.4c-0.3,0-0.5-0.1-0.8-0.1c-0.2,0-0.4,0-0.7,0h-0.1c-0.2,0-0.4,0-0.6,0
		h-0.1c-0.2,0-0.4,0-0.6,0l0,0c-0.2,0-0.5,0.1-0.7,0.1c-3.3,0.5-5.7,2.3-5.9,4.7c-0.2,1.8,1,3.4,3,4.6L36.6,37.7z"/>
	<path fill="#A0C96D" d="M35.5,46.1c0.1-0.1,0.2-0.3,0.3-0.5c0,0,0-0.1,0.1-0.1c0.1-0.2,0.2-0.3,0.3-0.5c0.1-0.2,0.2-0.5,0.3-0.7
		c0.9-2.1,1.1-4.2,0.7-5.9l-12,6.9c0,2.2,0.8,4.1,2.5,4.9c2.2,1,5.2-0.3,7.3-3.1c0.1-0.1,0.2-0.3,0.3-0.5l0,0
		C35.3,46.4,35.4,46.3,35.5,46.1L35.5,46.1L35.5,46.1z"/>
	<path fill="#E4AF6B" d="M39.2,37.7c1.3-1.2,3.2-2.1,5.4-2.4c0.3,0,0.5-0.1,0.8-0.1c0.2,0,0.4,0,0.7,0h0.1c0.2,0,0.4,0,0.6,0h0.1
		c0.2,0,0.4,0,0.6,0l0,0c0.2,0,0.5,0.1,0.7,0.1c3.3,0.5,5.7,2.3,5.9,4.7c0.2,1.8-1,3.4-3,4.6L39.2,37.7z"/>
	<path fill="#E4AF6B" d="M40.4,46.1c-0.1-0.1-0.2-0.3-0.3-0.5c0,0,0-0.1-0.1-0.1c-0.1-0.2-0.2-0.3-0.3-0.5s-0.2-0.5-0.3-0.7
		c-0.9-2.1-1.1-4.2-0.7-5.9l12,6.9c0,2.2-0.8,4.1-2.5,4.9c-2.2,1-5.2-0.3-7.3-3.1c-0.1-0.1-0.2-0.3-0.3-0.5l0,0
		C40.6,46.4,40.5,46.3,40.4,46.1L40.4,46.1L40.4,46.1z"/>
</g>
</svg>
