<svg xmlns="http://www.w3.org/2000/svg" viewBox="0 0 439.4 76.5"><path fill="#08623C" d="M415.2 31.6h11.7c1 0 1.7.2 2.2.6.6.5.9 1.4.9 2.5 0 1.2-.3 2-.9 2.5-.5.4-1.2.6-2.2.6h-11.7v-6.2zm-8.1 19.5h8.1v-6.4h11.7c4.3 0 7.2-.5 8.6-1.6 1.7-1.3 2.5-4.1 2.5-8.3 0-4.3-.9-7.1-2.6-8.4-1.4-1.1-4.2-1.6-8.5-1.6h-19.8v26.3zm-25.5-19.5v19.6h8.1V31.6h11.6v-6.8H370v6.8h11.6zm-51.2 19.5h8.1V40.8H356v10.3h8.1V24.8H356V34h-17.5v-9.2h-8.1v26.3zm-6.7 0v-6.4h-20.2v-3.6h19.3v-6.3h-19.3v-3.7h20.2v-6.4h-28.3v26.4h28.3zm-60.9-26.4h-8.1v26.4h25.5c.6 0 1.1.1 1.3.4.3.3.4.7.4 1.3v2.6h8.1v-11h-2.6V24.7h-8.1v19.5h-16.6V24.7h.1zm-39.9 7.4c.8-.5 3.5-.8 8.2-.8 4.6 0 7.3.3 8.1.8.8.6 1.2 2.5 1.2 5.9s-.4 5.3-1.2 5.9c-.8.6-3.5.8-8.2.8-4.6 0-7.3-.3-8.1-.8s-1.2-2.5-1.2-5.9.4-5.4 1.2-5.9zm23.2-5.7c-1.7-1.4-6.7-2-15.1-2s-13.4.7-15.1 2.1c-1.5 1.3-2.3 5.1-2.3 11.5 0 4.7.2 7.7.7 9.2.6 1.9 2.2 3.1 4.6 3.7 1.9.4 5.9.7 12.1.7 8.4 0 13.4-.7 15.1-2 1.5-1.2 2.3-5.1 2.3-11.5 0-6.5-.8-10.4-2.3-11.7zm-70.8 24.7h8.1V40.8h4.2l10.3 10.3h11.7l-14.8-13.8L208 24.8h-11.2l-9.2 9.2h-4.2v-9.2h-8.1v26.3zm-40.9 0h8.1V40.8H160v10.3h8.1V24.8H160V34h-17.5v-9.2h-8.1v26.3zm-31.4-19c.8-.5 3.5-.8 8.2-.8 4.6 0 7.3.3 8.1.8.8.6 1.2 2.5 1.2 5.9s-.4 5.3-1.2 5.9c-.8.6-3.5.8-8.2.8-4.6 0-7.3-.3-8.1-.8-.8-.5-1.2-2.5-1.2-5.9s.4-5.4 1.2-5.9zm23.2-5.7c-1.7-1.4-6.7-2-15.1-2s-13.4.7-15.1 2.1c-1.5 1.3-2.3 5.1-2.3 11.5 0 4.7.2 7.7.7 9.2.6 1.9 2.2 3.1 4.6 3.7 1.9.4 5.9.7 12.1.7 8.4 0 13.4-.7 15.1-2 1.6-1.2 2.3-5.1 2.3-11.5 0-6.5-.8-10.4-2.3-11.7z"/><path fill="#A0C96D" d="M14.5 53.1c-2.1-7.1-1.1-14.8 2.8-21.7 3.3-5.9 8.1-9.8 13.7-11.3 4.8-1.3 10.4-.8 14.8 1.3 2.2 1.1 4 2.3 5.4 3.5-1.9-3.1-5-6.8-10.2-9.4-5.6-2.8-12-3.4-18.4-1.6-.2.1-.4.1-.6.2-.1 0-.3.1-.4.1-5.4 1.4-10 4.4-13.4 8.3-5.8 6.6-8.4 15.9-6 25 .1.4.2.9.4 1.3 0 .1.1.2.1.3 5 15.6 19.8 25.8 35.9 25.5-2.8-.7-5.5-1.8-8.1-3.2-8.1-4-13.7-10.6-16-18.3z"/><path fill="#E4AF6B" d="M69.3 19c.8 2.8 1.2 5.6 1.3 8.6.3 9-2.6 17.2-8.1 23C57.3 56 50.2 59 42.3 59c-6.7 0-12.5-2.1-16.6-6.2-3.5-3.5-5.9-8.6-6.2-13.5-.2-2.5 0-4.6.4-6.4-1.7 3.2-3.4 7.8-3 13.5.4 6.3 3.1 12.1 7.8 16.7l.5.5.3.3c3.9 3.9 8.8 6.4 13.9 7.4 8.6 1.8 18-.7 24.7-7.3.3-.3.6-.7.9-1 .1-.1.1-.2.2-.2C76.1 50.7 77.6 32.7 69.3 19z"/><path fill="#08623C" d="M36.6 10.2C43.8 12 50 16.7 53.9 23.5c3.4 5.8 4.4 11.9 2.9 17.5-1.3 4.8-4.5 9.4-8.6 12.1-2.1 1.4-4 2.3-5.7 2.9 3.6-.1 8.4-.9 13.2-4.1 5.2-3.5 8.9-8.7 10.6-15.1.1-.2.1-.4.2-.6 0-.1.1-.3.1-.4 1.4-5.4 1.2-10.8-.5-15.7-2.8-8.4-9.6-15.2-18.7-17.7-.4-.1-.9-.2-1.3-.3-.1 0-.2 0-.3-.1-2.5-.5-5-.8-7.4-.8h-.1c-13.4 0-25.9 7.3-32.4 19.1 2-2.1 4.3-3.9 6.8-5.5 7.6-5 16.1-6.5 23.9-4.6z"/><path fill="#08623C" d="M32 22.6c-2 1.3-2.3 4.3-1.1 7.3l.3.6.3.6v.1c.1.2.2.4.3.5 0 0 0 .1.1.1.1.2.2.4.4.6.1.2.3.4.5.6 1.4 1.8 3.2 3 4.9 3.5V22.9c-2.2-1.1-4.2-1.3-5.7-.3zM43.2 33c.2-.2.3-.4.5-.6.1-.2.2-.3.3-.5 0 0 0-.1.1-.1.1-.1.2-.3.3-.4.1-.2.2-.3.3-.5.1-.2.2-.3.2-.5 1.4-3.2 1.1-6.4-.9-7.7-1.5-1-3.6-.8-5.5.3v13.6c1.5-.6 3.3-1.8 4.7-3.6z"/><path fill="#A0C96D" d="M36.6 37.7c-1.3-1.2-3.2-2.1-5.4-2.4-.3 0-.5-.1-.8-.1h-2.1c-.2 0-.5.1-.7.1-3.3.5-5.7 2.3-5.9 4.7-.2 1.8 1 3.4 3 4.6l11.9-6.9zM35.5 46.1c.1-.1.2-.3.3-.5 0 0 0-.1.1-.1.1-.2.2-.3.3-.5.1-.2.2-.5.3-.7.9-2.1 1.1-4.2.7-5.9l-12 6.9c0 2.2.8 4.1 2.5 4.9 2.2 1 5.2-.3 7.3-3.1.1-.1.2-.3.3-.5 0-.2.1-.3.2-.5z"/><path fill="#E4AF6B" d="M39.2 37.7c1.3-1.2 3.2-2.1 5.4-2.4.3 0 .5-.1.8-.1h2.1c.2 0 .5.1.7.1 3.3.5 5.7 2.3 5.9 4.7.2 1.8-1 3.4-3 4.6l-11.9-6.9zM40.4 46.1c-.1-.1-.2-.3-.3-.5 0 0 0-.1-.1-.1-.1-.2-.2-.3-.3-.5s-.2-.5-.3-.7c-.9-2.1-1.1-4.2-.7-5.9l12 6.9c0 2.2-.8 4.1-2.5 4.9-2.2 1-5.2-.3-7.3-3.1-.1-.1-.2-.3-.3-.5 0-.2-.1-.3-.2-.5z"/></svg>