<svg xmlns="http://www.w3.org/2000/svg" viewBox="0 0 103.2 50"><defs><style>.cls-1{fill:#8c9094}.cls-2{fill:#0055a5}</style></defs><title>Asset 17</title><g id="Layer_2" data-name="Layer 2"><g id="index_768px" data-name="index@768px"><g id="partners"><g id="logos"><path class="cls-1" d="M101.71 0h-48.5v50h50V0zm-1.51 47h-44V3h44zM42 14.28a1.16 1.16 0 0 0-1-.47h-.69v1.85h2.15a3.39 3.39 0 0 0-.46-1.38zM13.53 28.82c-.42 0-.74.34-1 1a8.62 8.62 0 0 0-.36 2.73 9 9 0 0 0 .36 2.75c.23.7.54 1 1 1h.13v-.55a9.35 9.35 0 0 0 .34-2.78 9 9 0 0 0-.3-2.69c.66-1.12.3-1.46-.17-1.46zM16.79 13.57c-.47 0-.82.33-1.07 1a7.79 7.79 0 0 0-.39 2.71 8.17 8.17 0 0 0 .4 2.72v.49h.17c.48 0 .83-.32 1.08-1a8.08 8.08 0 0 0 .39-2.75 8.17 8.17 0 0 0-.34-2.67c.66-.16.29-.5-.24-.5z"/><path class="cls-1" d="M0 0v50h50V0zm4.59 12.07h6.25v10.5H8.92v-8.76H6.53v8.76H4.59zM8.8 34.36a1.62 1.62 0 0 1-1.4.9 1.69 1.69 0 0 1-1.1-.47v3H4.58V27.4H7.69l.07.06h.09l.07.06.07.06.07.06.07.07.07.06.07.07.06.07.07.07.06.07.06.07.07.09.06.09.06.07v.09l.06.09.06.11a5.63 5.63 0 0 1 .49 2.39 5.66 5.66 0 0 1-.52 3.31zm7 2.09A2.55 2.55 0 0 1 13.53 38a2.37 2.37 0 0 1-2.19-1.51 9.09 9.09 0 0 1-.73-4 8.58 8.58 0 0 1 .77-3.9 2.4 2.4 0 0 1 2.15-1.51H14.81l.07.06.06.06.07.06.06.06.07.06.06.06.07.07.06.07.06.07.06.07.07.07v.07l.07.07v.09l.06.09.06.09a8.29 8.29 0 0 1 .78 3.89 8.6 8.6 0 0 1-.67 4.37zm-1.49-15.18a8.31 8.31 0 0 1-.82-4 7.8 7.8 0 0 1 .86-3.92 2.71 2.71 0 0 1 2.43-1.53H18.12l.07.06h.07l.09.06.07.06.07.06.07.06.07.07.06.06.07.07.07.07.06.07.07.07.06.09.07.07.06.09.06.09.06.09a7.69 7.69 0 0 1 .9 3.92 7.83 7.83 0 0 1-.88 3.94 2.85 2.85 0 0 1-2.58 1.59 2.68 2.68 0 0 1-2.4-1.14zm8.83 16.88h-.08a4.84 4.84 0 0 1-3.82-1.58 5.71 5.71 0 0 1-1.32-3.91 5.86 5.86 0 0 1 1.22-3.93A4.81 4.81 0 0 1 23 27.14h.09V29H23a3 3 0 0 0-2.47 1 4 4 0 0 0-.79 2.62V34.08l.06.16.06.16.07.15.07.15.08.14.08.14.1.13.05.07v.06a3.06 3.06 0 0 0 2.5 1.08h.08zm-.79-23.08v-3h1.93v2.8a.71.71 0 0 0 .22.56 1.37 1.37 0 0 0 1 .29h1.05v-3.65h1.94v10.5h-1.97V17.5H25.1a2.9 2.9 0 0 1-1.94-.69 2.22 2.22 0 0 1-.81-1.74zm7.26 23.08h-.08a4.86 4.86 0 0 1-3.82-1.58 5.75 5.75 0 0 1-1.32-3.91 5.9 5.9 0 0 1 1.22-3.93 4.82 4.82 0 0 1 3.9-1.58h.08V29h-.09a3.05 3.05 0 0 0-2.5 1 4 4 0 0 0-.79 2.62V34.08l.05.16.07.16.07.15.07.15.07.14.09.14.09.13.1.13a3.05 3.05 0 0 0 2.49 1.08h.08zm1.14-26.08h5.17v1.74h-1.63v8.76h-1.93v-8.76h-1.61zm4.89 25.76s-.23-6.51-.25-6.89l-2.45 2.6v4.29h-1.68V27.39H33V31v-.05l.05-.05.05-.06.06-.06.06-.07.07-.07.13-.14.14-.15L34 30l.16-.17.16-.17.17-.17.17-.18.35-.37.17-.19.17-.18.17-.17.16-.17.16-.16.15-.16.14-.15.13-.14.07-.07.06-.06.05-.06.05-.05.05-.05v-.05l.13-.14.41 10.95zm2.8-25.76h2.86a3.12 3.12 0 0 1 2 .56l.07.06v.06h.06l.06.06.06.06.06.07v.07l.06.06V14.73l.9 7.68h-1.4l-.56-5.14H40.2c0 .23-.19 5.14-.19 5.14h-1.92zm5.26 25.77s-.23-6.51-.25-6.89L41 33.55v4.29h-1.68V27.39H41v3.68l3.86-4 .14-.14.41 10.95z"/><path class="cls-1" d="M6.37 28.87H6.2V32a2.42 2.42 0 0 0 .22 1.14c.14.27.31.41.52.41s.41-.15.56-.45a2.87 2.87 0 0 0 .22-1.29 5.26 5.26 0 0 0-.36-2.24 1.12 1.12 0 0 0-.99-.7z"/><path id="path52" class="cls-1" d="M68.36 16.16l.07.16.08.15.08.16.1.16.05.07.06.08.05.08.06.08.07.08.07.08.07.08.07.08.08.09.08.08.08.09.09.09.1.09.1.09.1.09.11.1.11.09.12.1.12.1.13.1.14.1.13.1.15.1.15.1a1.21 1.21 0 0 1 .47 1.52c-.31.75-.9 1.79-.55 2.2a2.73 2.73 0 0 0 2.61.22 3.48 3.48 0 0 0 .59 1.05s-.18.35-.76.17a1.39 1.39 0 0 1-.08 1.1 1.45 1.45 0 0 1-1-.75 1.54 1.54 0 0 1-.81.66s-.45-.2-.33-1.1a1.7 1.7 0 0 1-1.34.93 1.4 1.4 0 0 1 .22-1.72 1.77 1.77 0 0 1-1.54.25s-.16-.51.74-1.21a1.71 1.71 0 0 1-1.4-.9 1.64 1.64 0 0 1 1.48-.41A1.69 1.69 0 0 1 68 19.56a1.73 1.73 0 0 1 1.82.27 2.62 2.62 0 0 0-.66-.75 3.2 3.2 0 0 1-.8-2.92z"/><path id="path54" class="cls-1" d="M72.44 27.93v-.08c.18 1.42.24 2.38 1 3.3a2.71 2.71 0 0 0 .16-2.11 1.55 1.55 0 0 1-.41-.19 3 3 0 0 1 .07 1.22s-.62-.71-.82-2.14z"/><path id="path56" class="cls-1" d="M71.11 27.78H71c-.07.82-.28 3 .45 3.67 0 0 .49-.37.67-3.53a3.43 3.43 0 0 1-.38.47 3.52 3.52 0 0 1-.24 1.71s-.61-.8-.39-2.32z"/><path id="path58" class="cls-1" d="M69.38 29.44l.05-.07.05-.08.05-.09.05-.1v-.91l.06-.25v-1.35l.25-.19.1-.09v.25a9 9 0 0 1-.6 3.35 3 3 0 0 1-1.14 1c-.69-1.24.14-2.9.84-4.06l.27-.11a6.21 6.21 0 0 0 .02 2.7z"/><path id="path60" class="cls-1" d="M67.66 25.63v.26a15.45 15.45 0 0 0-1.88 2.31 3.1 3.1 0 0 1-2.23 1.25 4.42 4.42 0 0 1 1.2-2.45 14.89 14.89 0 0 1 2.35-2 1.27 1.27 0 0 0 .7.1h.07a1 1 0 0 0-.18.35A6.33 6.33 0 0 0 65 27.7a7.4 7.4 0 0 0 2.66-2.07z"/><path id="path62" class="cls-1" d="M66.57 24.43l.06-.11.06-.09c-.57.22-2.57 1-3.22 1.31a4.43 4.43 0 0 0-2.09 2.65 3.72 3.72 0 0 0 2.47-.81c1.11-.92 2.41-2.21 3-2.62a.72.72 0 0 1-.13-.14 11.34 11.34 0 0 1-3.11 1.91 3.76 3.76 0 0 1 1-1.07 10.06 10.06 0 0 1 1.96-1.03z"/><path id="path64" class="cls-1" d="M65.43 23.51c-.66.14-2.32.34-3.06.56a4.64 4.64 0 0 0-2.86 2.28s1.17.36 3.36-.67a20.32 20.32 0 0 1 3.3-1.36 1.52 1.52 0 0 1-.7-.21 8.77 8.77 0 0 1-3.21.88 7.43 7.43 0 0 1 1.17-.66 15.2 15.2 0 0 1 2-.82z"/><path id="path66" class="cls-1" d="M65.48 22.42H66.05a1.87 1.87 0 0 0-.43.39 21.91 21.91 0 0 1-4.27.62 9 9 0 0 1-3.33-.24 9.72 9.72 0 0 1 2.78-1.09c.82-.16 3-.13 3.9-.27a2.76 2.76 0 0 0 .32.22 11.4 11.4 0 0 0-3.36.58 10 10 0 0 0 3.82-.21z"/><path id="path68" class="cls-1" d="M65.32 21.17h.4a19.49 19.49 0 0 0-4.88-1 12.18 12.18 0 0 0-3.5.15 10.27 10.27 0 0 0 3.26 1.45 16.74 16.74 0 0 0 4.17.14 2.38 2.38 0 0 1 .27-.33 16.87 16.87 0 0 1-3.93-.54 9.54 9.54 0 0 1 4.21.13z"/><path id="path70" class="cls-1" d="M65.32 19.88v.26H65.67c-1.55-.67-4.6-1.06-6.22-1.75-2.21-.91-2.62-2.06-2.62-2.06a13.83 13.83 0 0 1 4.65.78c1.4.43 3.53 1.22 4.27 1.55a1.53 1.53 0 0 0-.84.26 24.87 24.87 0 0 0-2.47-.84 8.92 8.92 0 0 0-1.76-.29 7.68 7.68 0 0 0 1.73.78 16.09 16.09 0 0 0 2.91 1.31z"/><path id="path72" class="cls-1" d="M65.2 18.19h.19a11 11 0 0 1-6-3.41 4.48 4.48 0 0 1-.39-2.37 10.23 10.23 0 0 1 3 2.13c.46.45 1.83 1.79 2.78 2.53l.29.85c-.81-.65-1.77-1.37-2.38-1.83A7.36 7.36 0 0 0 60.82 15 8.44 8.44 0 0 0 62 16.24a12.23 12.23 0 0 0 1.68 1.14c.4.25.63.39 1.52.81z"/><path id="path74" class="cls-1" d="M72.09 25h.19a5.07 5.07 0 0 1 .72.93c.14.4.29.94.37 1.25a5.54 5.54 0 0 0 .43 1.19 1.23 1.23 0 0 1-1-.44 2.78 2.78 0 0 1-.65-1.53 5.88 5.88 0 0 1-.06-1.4z"/><path id="path76" class="cls-1" d="M71.14 25.11h.39l.2-.08a2.17 2.17 0 0 1 .15.56 3 3 0 0 1 0 1 2.25 2.25 0 0 1-.52.85 2.82 2.82 0 0 1-.5-.78 2 2 0 0 1 0-1.24 2 2 0 0 1 .28-.31z"/><path id="path78" class="cls-1" d="M69.81 25.15H70.56a1 1 0 0 1 .07.59 1.49 1.49 0 0 1-.52.78 2 2 0 0 1-1.53.52s.05-.79 1.23-1.89z"/><path id="path80" class="cls-1" d="M69.36 24.41v.52h.07a1.78 1.78 0 0 1-1.69.88.84.84 0 0 1 .41-1.05 3.38 3.38 0 0 1 1.21-.35z"/><path id="path82" class="cls-1" d="M69.45 23.67H68.25v-.12c-.53.44-1.17.52-1.39.91a.93.93 0 0 0 1 .4 2.31 2.31 0 0 0 1.52-.86 1.21 1.21 0 0 1 .07-.33z"/><path id="path84" class="cls-1" d="M68.25 23.06v-.46a3.46 3.46 0 0 0-1.41 0 1.76 1.76 0 0 0-1.63 1.24 1.39 1.39 0 0 0 1.17.2 2.36 2.36 0 0 0 1.87-.98z"/><path id="path86" class="cls-1" d="M68 22l-.05-.12a2.33 2.33 0 0 0-1.7-.13 1.52 1.52 0 0 0-.86.67 2.53 2.53 0 0 0 1.35.55A3 3 0 0 0 68 22z"/><path id="path88" class="cls-1" d="M68.14 20.85h.32a2 2 0 0 1-.61-1 2.74 2.74 0 0 1-1.13 0 1.42 1.42 0 0 0-1.2.16 1.36 1.36 0 0 0 1.06 1 2.32 2.32 0 0 0 1.56-.16z"/><path id="path90" class="cls-1" d="M67.8 19.46l.12-.08a1.37 1.37 0 0 1 .58-.16 14.2 14.2 0 0 0-1.5-1.11 7.25 7.25 0 0 0-1.93-.78 5.5 5.5 0 0 0 .93 1.6 1.81 1.81 0 0 0 1.8.53z"/><path id="path92" class="cls-1" d="M68.74 18.93V17.8a13.48 13.48 0 0 0-.49-1.58 2.86 2.86 0 0 0-1.66-1.37 3.15 3.15 0 0 0 .24 2 5.58 5.58 0 0 0 1.91 2.08z"/><path id="path94" class="cls-1" d="M74.3 24.14h.2a1.51 1.51 0 0 1-.07 1.34 18.32 18.32 0 0 0-.87 1.91s-.21 0-.44-1.19a2.28 2.28 0 0 0-.56-1.24 1.37 1.37 0 0 0 .43.14h.15l.07-.15a1.57 1.57 0 0 0 .17-.73 1.64 1.64 0 0 0 0-.2.75.75 0 0 0 .63-.26z"/><path id="path96" class="cls-1" d="M65.79 15.29V15.91l-2-2.51a5.26 5.26 0 0 0-1.29-1.2 6 6 0 0 0 1.5 2.35 16.3 16.3 0 0 0 1.79 1.58l.06.21a2.65 2.65 0 0 0 .23.6 5.11 5.11 0 0 0 .6.79c-.19-.1-.41-.2-.63-.29l-.21-.09A11.76 11.76 0 0 1 61.57 13a5.72 5.72 0 0 1-.24-3.84A18 18 0 0 1 63.84 12a25.52 25.52 0 0 1 1.94 3.27z"/><path id="path98" class="cls-1" d="M91.09 21.17h-.4a19.63 19.63 0 0 1 4.89-1 12.14 12.14 0 0 1 3.49.15 10.38 10.38 0 0 1-3.26 1.45 16.79 16.79 0 0 1-4.18.14 1.84 1.84 0 0 0-.26-.33 16.93 16.93 0 0 0 3.93-.54 9.57 9.57 0 0 0-4.21.13z"/><path id="path100" class="cls-1" d="M91.1 19.88v.22h-.3c1.55-.67 4.59-1.06 6.23-1.75 2.2-.91 2.61-2.06 2.61-2.06a13.87 13.87 0 0 0-4.65.78c-1.4.43-3.52 1.22-4.27 1.55a1.54 1.54 0 0 1 .84.26 25.47 25.47 0 0 1 2.47-.84 9 9 0 0 1 1.76-.29 7.51 7.51 0 0 1-1.73.78 16.5 16.5 0 0 1-2.96 1.35z"/><path id="path102" class="cls-1" d="M91.22 18.19h-.32a11 11 0 0 0 6-3.41 4.45 4.45 0 0 0 .6-2.85 10.36 10.36 0 0 0-3 2.13c-.45.45-1.82 1.79-2.77 2.53l-.29.85c.81-.65 1.77-1.37 2.37-1.83A7.28 7.28 0 0 1 95.6 15a9 9 0 0 1-1.14 1.23 12.26 12.26 0 0 1-1.69 1.14c-.44.26-.67.4-1.55.82z"/><path id="path104" class="cls-1" d="M90.63 15.29v.63c.59-.75 1.3-1.67 2-2.51a5.53 5.53 0 0 1 1.29-1.2 5.93 5.93 0 0 1-1.49 2.34 16.3 16.3 0 0 1-1.79 1.58l-.06.21a3.11 3.11 0 0 1-.24.6 5 5 0 0 1-.59.79c.19-.1.4-.2.63-.29l.2-.09A11.76 11.76 0 0 0 94.84 13a5.59 5.59 0 0 0 .24-3.84A17.92 17.92 0 0 0 92.57 12a25.66 25.66 0 0 0-1.94 3.27z"/><path id="path106" class="cls-1" d="M68.1 26.19l-.07.07-.07.07-.08.08-.08.09-.09.09-.09.1-.09.1-.09.1-.1.11-.1.11-.09.12-.1.12-.09.13-.1.13-.09.13-.09.13-.08.13-.08.14-.08.14-.07.15-.07.15-.06.16-.06.15-.06.16v1.31A4 4 0 0 0 68 28.89a12 12 0 0 1 1.22-2 1.68 1.68 0 0 1-.48 0h-.13A6.49 6.49 0 0 1 66.83 29s-.16-.9 1.77-2.7a1.83 1.83 0 0 1 .12-.25 1.55 1.55 0 0 1-.61.09"/><path id="path108" class="cls-1" d="M88.06 16.16l-.07.16-.08.15-.08.16-.1.16-.05.07-.05.08-.06.08-.06.08-.06.08-.07.08-.07.08-.07.08-.07.09-.08.08-.09.11-.09.09-.1.09-.1.09-.1.09-.11.1-.11.09-.12.1-.12.1-.13.1-.13.1-.14.1-.15.1-.15.1a1.2 1.2 0 0 0-.45 1.52c.31.75.9 1.79.55 2.2a2.74 2.74 0 0 1-2.62.22 3.55 3.55 0 0 1-.58 1.05s.18.35.76.17a1.39 1.39 0 0 0 .08 1.1 1.42 1.42 0 0 0 1-.75 1.54 1.54 0 0 0 .81.66s.46-.23.35-1.13a1.7 1.7 0 0 0 1.35.93 1.4 1.4 0 0 0-.18-1.73 1.76 1.76 0 0 0 1.54.25s.16-.51-.74-1.21a1.71 1.71 0 0 0 1.4-.9 1.66 1.66 0 0 0-1.49-.41 1.69 1.69 0 0 0 1.2-1.38 1.72 1.72 0 0 0-1.82.27 2.62 2.62 0 0 1 .67-.75 3.25 3.25 0 0 0 .78-2.9z"/><path id="path110" class="cls-1" d="M84 27.93v-.11c-.17 1.42-.23 2.38-1 3.3a2.75 2.75 0 0 1-.16-2.11 1.36 1.36 0 0 0 .41-.19 3.13 3.13 0 0 0-.07 1.22s.59-.68.82-2.11z"/><path id="path112" class="cls-1" d="M85.3 27.78h.1c.07.82.28 3-.44 3.67 0 0-.5-.37-.67-3.53a4.17 4.17 0 0 0 .37.47 3.52 3.52 0 0 0 .24 1.71s.63-.8.4-2.32z"/><path id="path114" class="cls-1" d="M87 29.44v-.07l-.05-.08-.05-.09v-.1l-.05-.1v-.81l-.05-.25v-1.35a2 2 0 0 1-.25-.19.6.6 0 0 1-.1-.09 1.37 1.37 0 0 1 0 .25 9.1 9.1 0 0 0 .61 3.35 3 3 0 0 0 1.14 1c.69-1.24-.14-2.9-.85-4.06l-.26-.11a6.45 6.45 0 0 1-.09 2.7z"/><path id="path116" class="cls-1" d="M88.76 25.63v.21a15.45 15.45 0 0 1 1.88 2.31 3.09 3.09 0 0 0 2.16 1.45 4.43 4.43 0 0 0-1.14-2.6 15.18 15.18 0 0 0-2.35-2 1.27 1.27 0 0 1-.7.1h-.07a1 1 0 0 1 .18.35 6.38 6.38 0 0 1 2.64 2.3 7.39 7.39 0 0 1-2.6-2.12z"/><path id="path118" class="cls-1" d="M89.85 24.43l-.06-.11-.06-.09c.56.22 2.56 1 3.21 1.31A4.41 4.41 0 0 1 95 28.19a3.7 3.7 0 0 1-2.47-.81c-1.11-.92-2.41-2.21-3-2.62a.59.59 0 0 0 .13-.14 11.34 11.34 0 0 0 3.11 1.91 3.71 3.71 0 0 0-1-1.07 9.83 9.83 0 0 0-1.92-1.03z"/><path id="path120" class="cls-1" d="M91 23.51c.66.14 2.32.34 3.06.56a4.66 4.66 0 0 1 2.86 2.28s-1.17.36-3.36-.67a20.1 20.1 0 0 0-3.29-1.36 1.52 1.52 0 0 0 .69-.21 8.77 8.77 0 0 0 3.21.88 7.32 7.32 0 0 0-1.18-.66 14.55 14.55 0 0 0-1.99-.82z"/><path id="path122" class="cls-1" d="M90.94 22.42h-.59a1.9 1.9 0 0 1 .43.39 21.71 21.71 0 0 0 4.26.62 9 9 0 0 0 3.33-.24 9.73 9.73 0 0 0-2.78-1.09c-.81-.16-3-.13-3.9-.27a1.87 1.87 0 0 1-.31.22 11.36 11.36 0 0 1 3.35.58 10 10 0 0 1-3.79-.21z"/><path id="path124" class="cls-1" d="M84.32 25h-.16a4.76 4.76 0 0 0-.68 1.09c-.13.4-.29.94-.36 1.25a6.44 6.44 0 0 1-.43 1.19 1.21 1.21 0 0 0 1-.44 2.67 2.67 0 0 0 .65-1.53 5.47 5.47 0 0 0-.02-1.56z"/><path id="path126" class="cls-1" d="M85.27 25.11H84.84l-.2-.08a2.14 2.14 0 0 0-.14.56 2.77 2.77 0 0 0 0 1 2.26 2.26 0 0 0 .52.85 2.66 2.66 0 0 0 .5-.78 2 2 0 0 0 0-1.24 1.68 1.68 0 0 0-.25-.31z"/><path id="path128" class="cls-1" d="M86.61 25.15h-.53L86 25H85.85a.94.94 0 0 0-.07.59 1.45 1.45 0 0 0 .52.78 2 2 0 0 0 1.52.52s-.03-.64-1.21-1.74z"/><path id="path130" class="cls-1" d="M87.06 24.41v.52h-.26a1.77 1.77 0 0 0 1.69.88.84.84 0 0 0-.42-1.05 3.36 3.36 0 0 0-1.01-.35z"/><path id="path132" class="cls-1" d="M87 23.67h1.12v-.12c.53.44 1.17.52 1.39.91a.93.93 0 0 1-1 .4A2.31 2.31 0 0 1 87 24a2.18 2.18 0 0 0 0-.33z"/><path id="path134" class="cls-1" d="M88.17 23.06v-.46a3.45 3.45 0 0 1 1.41 0 1.76 1.76 0 0 1 1.63 1.24 1.4 1.4 0 0 1-1.17.2 2.34 2.34 0 0 1-1.87-.98z"/><path id="path136" class="cls-1" d="M88.44 22l.05-.12a2.33 2.33 0 0 1 1.7-.13 1.51 1.51 0 0 1 .86.67 2.52 2.52 0 0 1-1.34.55 3.05 3.05 0 0 1-1.27-.97z"/><path id="path138" class="cls-1" d="M88.28 20.85h-.33a1.91 1.91 0 0 0 .61-1 2.77 2.77 0 0 0 1.14 0 1.42 1.42 0 0 1 1.2.16 1.37 1.37 0 0 1-1.07 1 2.3 2.3 0 0 1-1.55-.16z"/><path id="path140" class="cls-1" d="M88.61 19.46l-.12-.08a1.36 1.36 0 0 0-.58-.16 14.09 14.09 0 0 1 1.51-1.11 7.46 7.46 0 0 1 1.93-.78 5.32 5.32 0 0 1-.94 1.61 1.8 1.8 0 0 1-1.8.52z"/><path id="path142" class="cls-1" d="M87.67 18.93V17.8a11.11 11.11 0 0 1 .49-1.58 2.86 2.86 0 0 1 1.66-1.37 3.15 3.15 0 0 1-.24 2 5.65 5.65 0 0 1-1.91 2.08z"/><path id="path144" class="cls-1" d="M82.11 24.14H81.7a1.54 1.54 0 0 0 .07 1.34 18.66 18.66 0 0 1 .87 1.91s.21 0 .44-1.19a2.34 2.34 0 0 1 .56-1.24 1.51 1.51 0 0 1-.43.14h-.15l-.06.21a1.5 1.5 0 0 1-.18-.73 1.66 1.66 0 0 1 0-.2.74.74 0 0 1-.63-.26z"/><path id="path146" class="cls-1" d="M88.32 26.19l.07.07.07.07.08.08.08.09.09.09.08.1.1.1.09.1.1.11.09.11.1.12.1.12.09.13.09.13.1.13.08.13.09.14.08.14.08.14.07.15.07.15.07.16.06.15.05.16.05.16v1.15a4 4 0 0 1-2.05-1.52 12.1 12.1 0 0 0-1.22-2 1.69 1.69 0 0 0 .48 0h.13A6.47 6.47 0 0 0 89.58 29s.17-.9-1.76-2.7a1.35 1.35 0 0 0-.13-.25 1.59 1.59 0 0 0 .61.09"/><path id="path148" class="cls-1" d="M77.07 11.75h1.13c.63 0 1.14.11 1.14.25s-.51.24-1.14.24-1.13-.36-1.13-.49z"/><path id="path150" class="cls-1" d="M73.21 13.06h.74c.4 0 .73.06.73.13s-.34.13-.73.13-.74-.19-.74-.26z"/><path id="path152" class="cls-1" d="M78.43 12.28h-.23a.23.23 0 0 1-.22-.23.23.23 0 0 1 .22-.22.22.22 0 0 1 .23.45z"/><path id="path154" class="cls-1" d="M77 11.51V9.72c0-.13.16-.23.31-.28a.43.43 0 0 1 .39 0 5.81 5.81 0 0 1 .44 1.88 1.74 1.74 0 0 0-1.14.19z"/><path id="path156" class="cls-1" d="M77.68 11.32H78a14.47 14.47 0 0 0-.33-1.61c-.1-.32-.22-.55-.43-.61a6.59 6.59 0 0 1 .25.9c.06.44.12.89.19 1.32z"/><path id="path158" class="cls-1" d="M76.48 12.93h.26a1 1 0 0 0-.26 0z"/><path id="path160" class="cls-1" d="M77.11 12.9h-1.22a1.78 1.78 0 0 1 .61-.7 2 2 0 0 1 1.19-.3 1.57 1.57 0 0 1-.58 1z"/><path id="path164" class="cls-1" d="M77 13.2a10.86 10.86 0 0 1-2.5.26H73.3c.08 1.58 1.16 1.68 1.16 1.68a2.33 2.33 0 0 1 0-.34 3.44 3.44 0 0 0 1 .54 1.15 1.15 0 0 0-.07-.36 1 1 0 0 0 .47.17 1.76 1.76 0 0 0-.17-.49.69.69 0 0 0 .45.28 1.18 1.18 0 0 0 0-.45 1.39 1.39 0 0 0 .9.6.86.86 0 0 0 .88-.22 1.77 1.77 0 0 1-1.14-.52.83.83 0 0 0 .43-.34.7.7 0 0 0-.37-.17.8.8 0 0 0 .16-.64zm-2.05.6v.06s-.93 0-1 .47a.7.7 0 0 1-.26-.49 7.8 7.8 0 0 0 1.23-.04z"/><path id="path166" class="cls-1" d="M72.87 13.34V14.15a1.85 1.85 0 0 1-.53-.59c.13-.16.1-.34.53-.22z"/><path id="path170" class="cls-1" d="M71.62 13.65a.62.62 0 0 0-.47.26.89.89 0 0 0 .32 1.2 1.24 1.24 0 0 1 1.51 0 2.34 2.34 0 0 1 .62-.21c-.25-.11-.78-.27-.93-.75a1.5 1.5 0 0 0-1.05-.5zm.39.63a.2.2 0 0 1 .19.19.19.19 0 0 1 0-.37z"/><path id="path172" class="cls-1" d="M73.69 15h.05v.05a1.46 1.46 0 0 0-1.4 1s-.38-.6-.1-1a1.32 1.32 0 0 1 1.45-.05z"/><path id="path174" class="cls-1" d="M74.92 15.22h.48v-.31l.36.07a6.08 6.08 0 0 0 .64 1.11.83.83 0 0 1-.14.45 3.62 3.62 0 0 0-.57-.85 4.25 4.25 0 0 0-.77-.47z"/><path id="path176" class="cls-1" d="M74 15.05H74.83a1.09 1.09 0 0 1 .55 1 2.27 2.27 0 0 0-.59-.57 3.34 3.34 0 0 1-.79-.43z"/><path id="path178" class="cls-1" d="M74 11.42h.31a3.6 3.6 0 0 1-.34.76 3.54 3.54 0 0 1-.34-.76c0-.17.2-.22.31-.22H74z"/><path id="path180" class="cls-1" d="M73.74 12.76v-.98a.67.67 0 0 0-.46-.13.19.19 0 0 0-.17.25 8.91 8.91 0 0 0 .57.92z"/><path id="path182" class="cls-1" d="M74.15 12.76V11.78a.66.66 0 0 1 .46-.13.2.2 0 0 1 .17.25 8.81 8.81 0 0 1-.57.92z"/><path id="polygon184" class="cls-1" d="M74.45 10.59h-.36v-.4h-.29v.4h-.36v.25h.36v.46h.29v-.46h.36v-.25z"/><path id="path186" class="cls-1" d="M70.09 13.15V13a1.89 1.89 0 0 0 0-.5c-.26.1-.44.16-.79.74.02-.08.59-.43.79-.09z"/><path id="path188" class="cls-1" d="M70.58 14.07V13.2a1.79 1.79 0 0 0-.12-1.29 1.85 1.85 0 0 1-.23-1 3.23 3.23 0 0 0-.53.23 2.05 2.05 0 0 0 .31 1 1.54 1.54 0 0 1 .07.83 1.65 1.65 0 0 0 .5 1.1z"/><path id="path190" class="cls-1" d="M70.62 11a2.61 2.61 0 0 1 1-.61.63.63 0 0 1 .55.13.6.6 0 0 0-.4.18 2.64 2.64 0 0 1-.77.3.71.71 0 0 1-.38 0z"/><path id="path192" class="cls-1" d="M72.19 10.37a2.62 2.62 0 0 1-.34.84 1.23 1.23 0 0 0-.26.7.7.7 0 0 0 .23.42s-.65-.16-.72-.55a1.14 1.14 0 0 1 .18-.81c.1-.19.4-.62.47-.8a.66.66 0 0 0 .44.2z"/><path id="path194" class="cls-1" d="M76 14.88V16.12a2.19 2.19 0 0 1 .3 1A1.89 1.89 0 0 0 77 16a1.79 1.79 0 0 0-1-1.12z"/><path id="path196" class="cls-1" d="M76.71 15h.66a1.67 1.67 0 0 1 .62 1 1.44 1.44 0 0 1-.67-.3 2.59 2.59 0 0 1-.61-.7z"/><path id="path198" class="cls-1" d="M74.41 15.84H74a2.09 2.09 0 0 1 .57.26 1.15 1.15 0 0 1 .37.69 4.76 4.76 0 0 0 .44 1.21 2.66 2.66 0 0 1 .21-1.12 1.85 1.85 0 0 1-.44-.39 2.37 2.37 0 0 0-.74-.65z"/><path id="path200" class="cls-1" d="M76.38 16.88V18.04c-.13.47-.43.67-.63 1.07a6 6 0 0 1-.12-1.27 1.17 1.17 0 0 1 .75-.96z"/><path id="path202" class="cls-1" d="M77.24 16.89v.73a.84.84 0 0 1-.15.75 6.14 6.14 0 0 0-.64.84 2.12 2.12 0 0 1-.31-.55 2.59 2.59 0 0 1 .08-.83c.59.3.78-.32 1.02-.94z"/><path id="path204" class="cls-1" d="M77.46 19.64h-.06l-.06.07-.05.07v.07a.9.9 0 0 0 0 .76 2.88 2.88 0 0 0 .85.78 2 2 0 0 1-.31-1c0-.29.25-.55.29-.72a1.35 1.35 0 0 0-.66-.03z"/><path id="path206" class="cls-1" d="M76.45 19.29h.07v.37a1.89 1.89 0 0 1-.16.84 10.73 10.73 0 0 1-.41 1.5 4.59 4.59 0 0 1-.38-.66 6 6 0 0 0 .54-.89 5.69 5.69 0 0 0 .34-1.16z"/><path id="path208" class="cls-1" d="M76.28 19.08V20.57l-.05.09v.09l-.06.1-.05.09-.06.08-.06.09-.07.09c-.49.61-.88.83-1.14.83a1.08 1.08 0 0 1-.93-.71 1.2 1.2 0 0 1 .16-1.17s.24.73.74.76.78-.59 1.52-1.83z"/><path id="path210" class="cls-1" d="M75.69 18.57v.87a1.24 1.24 0 0 1-.49.73.72.72 0 0 1-1-.36 1.6 1.6 0 0 0 1.49-1.24z"/><path id="path212" class="cls-1" d="M77.4 23.51v.07l.05.07.05.07.06.07.05.07.05.07v.24a3.83 3.83 0 0 1-.43 1.48 2.17 2.17 0 0 1-.71-1 1.92 1.92 0 0 1 .88-1.14z"/><path id="path214" class="cls-1" d="M76.72 24V23.39a1.33 1.33 0 0 0-.72-1.57 3.33 3.33 0 0 0 0 .86c-.13.54.45.87.72 1.32z"/><path id="path216" class="cls-1" d="M75.39 21.58h-.17a3 3 0 0 0 0 .72 5.62 5.62 0 0 0 .45 1.2 3.15 3.15 0 0 0 .52-1c.05-.36 0-.65.06-.82-.47.61-.72.19-.86-.1z"/><path id="path218" class="cls-1" d="M74.16 23.67v-1.1a1.22 1.22 0 0 0 1 .07 3.76 3.76 0 0 1 0 .93.9.9 0 0 1-1 .1z"/><path id="path220" class="cls-1" d="M74.27 23.82H74.48s.35.64.41.83a.5.5 0 0 1-.37-.1 2.43 2.43 0 0 1-.25-.73z"/><path id="path222" class="cls-1" d="M75.9 23.44v.06l-.06.08-.06.09h-.06a2.52 2.52 0 0 0 .25.69 2.94 2.94 0 0 0 .66.84s.34-.61.45-.87a1.1 1.1 0 0 0 .05-.73c-.65.56-1.05.17-1.23-.16z"/><path id="path224" class="cls-1" d="M76.74 25.49v.23L77 26V26.47a1.18 1.18 0 0 1-.06.64c-.07.17-.3.52-.45.78a2.9 2.9 0 0 1-.63-.83 1.24 1.24 0 0 1 .07-.87c.42-.19.69-.46.81-.7z"/><path id="path226" class="cls-1" d="M75.28 25.42V26.24a1.09 1.09 0 0 1 0 .84c-.13.31-.28.49-.34.67a4.5 4.5 0 0 1-.49-.76 1.56 1.56 0 0 1 0-.83c.55-.22.73-.53.83-.74z"/><path id="path228" class="cls-1" d="M77.34 27.48h-.09v.05L77 28V28.82c0 .58.4.95.46 1.31a4.43 4.43 0 0 0 .52-.71 1.65 1.65 0 0 0 .24-1 1.42 1.42 0 0 0-.88-.94z"/><path id="path230" class="cls-1" d="M76 27.39v.99a5.12 5.12 0 0 1-.57 1 5.92 5.92 0 0 1-.34-.85c.3-.17.35-.6.91-1.14z"/><path id="path232" class="cls-1" d="M83.2 13.06h-.73c-.4 0-.73.06-.73.13s.33.13.73.13.73-.19.73-.26z"/><path id="path234" class="cls-1" d="M78.21 10.81V9.47a.43.43 0 0 0-.87 0c0 .31.38 1 .43 1.34z"/><path id="path236" class="cls-1" d="M79.42 11.51V9.72c0-.13-.16-.23-.31-.28a.45.45 0 0 0-.4 0 6.2 6.2 0 0 0-.45 1.88 1.65 1.65 0 0 1 1.16.19z"/><path id="path238" class="cls-1" d="M78.74 11.32h-.29a12.87 12.87 0 0 1 .32-1.61c.1-.32.22-.55.43-.61a7.26 7.26 0 0 0-.2.9 7 7 0 0 0-.26 1.32z"/><path id="path240" class="cls-1" d="M79.09 12.39h.26a1 1 0 0 0-.26 0z"/><path id="path242" class="cls-1" d="M78.74 12.18h.93a1.74 1.74 0 0 1 .61.7 2.36 2.36 0 0 1-1.23-.28 1.53 1.53 0 0 1-.31-.42z"/><path id="path246" class="cls-1" d="M79.44 13.2a.75.75 0 0 0 .41.43.64.64 0 0 0-.36.17.81.81 0 0 0 .41.34 1.75 1.75 0 0 1-1.14.52.87.87 0 0 0 .88.22 1.39 1.39 0 0 0 .9-.6 1.37 1.37 0 0 0 0 .45.72.72 0 0 0 .47-.28 1.57 1.57 0 0 0-.19.49 1 1 0 0 0 .47-.17 1.15 1.15 0 0 0-.07.36 3.55 3.55 0 0 0 1-.54v.31s1.08-.1 1.16-1.68a4.12 4.12 0 0 1-1.44.22 10.57 10.57 0 0 1-2.5-.24zm2 .6a8 8 0 0 0 1.25 0c0-.46-1-.47-1-.47v.47z"/><path id="path248" class="cls-1" d="M83.55 13.34V14.2a1.85 1.85 0 0 0 .53-.59c-.08-.21-.08-.39-.53-.27z"/><path id="path252" class="cls-1" d="M84.45 13.65c-.16.48-.69.64-1 .75a2 2 0 0 0-.54.45 2.76 2.76 0 0 1 .64.21 1.24 1.24 0 0 1 1.51 0 .89.89 0 0 0 .32-1.2h-.41zm-.06.63h.06v.07a.2.2 0 0 1-.19.19.18.18 0 0 1-.17-.19.18.18 0 0 1 .3-.07z"/><path id="path254" class="cls-1" d="M82.72 15h-.05v.05a1.46 1.46 0 0 1 1.4 1s.38-.6.1-1a1.32 1.32 0 0 0-1.45-.05z"/><path id="path256" class="cls-1" d="M81.5 15.22H81a2.36 2.36 0 0 1 0-.31l-.37.07a5.89 5.89 0 0 1-.63 1.27.83.83 0 0 0 .14.45 3.37 3.37 0 0 1 .57-.85 4.22 4.22 0 0 1 .79-.63z"/><path id="path258" class="cls-1" d="M82.45 15.05H81.59a1.11 1.11 0 0 0-.56 1 2.36 2.36 0 0 1 .6-.57 3.33 3.33 0 0 0 .82-.43z"/><path id="path260" class="cls-1" d="M82.44 11.42h-.31a3.6 3.6 0 0 0 .34.76 3.54 3.54 0 0 0 .34-.76c0-.17-.2-.22-.31-.22h-.05z"/><path id="path262" class="cls-1" d="M82.67 12.76V11.78a.65.65 0 0 1 .46-.13.2.2 0 0 1 .17.25 8.81 8.81 0 0 1-.57.92z"/><path id="path264" class="cls-1" d="M82.26 12.76v-.97a.64.64 0 0 0-.46-.13.19.19 0 0 0-.16.25 6.78 6.78 0 0 0 .57.92z"/><path id="polygon266" class="cls-1" d="M81.97 10.59h.35v-.4h.3v.4h.36v.25h-.36v.46h-.3v-.46h-.35v-.25z"/><path id="polygon268" class="cls-1" d="M77.64 8.23h.37v-.39h.29v.39h.36v.26h-.36v.46h-.29v-.46h-.37v-.26z"/><path id="path270" class="cls-1" d="M86.33 13.15V13a1.66 1.66 0 0 1 0-.5c.26.1.44.16.79.74-.03-.08-.6-.43-.79-.09z"/><path id="path272" class="cls-1" d="M85.83 14.07V13.21a1.83 1.83 0 0 1 .11-1.29 1.73 1.73 0 0 0 .23-1 3 3 0 0 1 .53.23 2.13 2.13 0 0 1-.31 1 1.41 1.41 0 0 0-.07.83 1.66 1.66 0 0 1-.49 1.09z"/><path id="path274" class="cls-1" d="M85.8 11a2.66 2.66 0 0 0-1-.61.58.58 0 0 0-.53.13.61.61 0 0 1 .39.18 2.71 2.71 0 0 0 .75.49.74.74 0 0 0 .39-.19z"/><path id="path276" class="cls-1" d="M84.22 10.37a2.6 2.6 0 0 0 .34.84 1.18 1.18 0 0 1 .27.7.74.74 0 0 1-.23.42s.65-.16.72-.55a1.13 1.13 0 0 0-.19-.81c-.1-.19-.4-.62-.47-.8a.74.74 0 0 1-.44.2z"/><path id="path278" class="cls-1" d="M80.43 14.88V16.08a1.93 1.93 0 0 0-.3 1 1.86 1.86 0 0 1-.71-1.08 1.8 1.8 0 0 1 1.01-1.12z"/><path id="path280" class="cls-1" d="M79.7 15H79a1.66 1.66 0 0 0-.61 1 1.47 1.47 0 0 0 .67-.3 2.59 2.59 0 0 0 .64-.7z"/><path id="path282" class="cls-1" d="M82 15.84h.43a2.21 2.21 0 0 0-.58.26 1.11 1.11 0 0 0-.36.69A4.4 4.4 0 0 1 81 18a2.92 2.92 0 0 0-.21-1.12 2 2 0 0 0 .44-.39 2.27 2.27 0 0 1 .77-.65z"/><path id="path284" class="cls-1" d="M80 16.88v1.18c.14.47.45.67.64 1.07a5.67 5.67 0 0 0 .11-1.27 1.15 1.15 0 0 0-.75-.98z"/><path id="path286" class="cls-1" d="M78.21 18.19v-.1l.06-.09.06-.09v-.32c0-.36-.51-.61-.63-.67-.12.05-.6.31-.63.67s.61 1 .62 1.29z"/><path id="path288" class="cls-1" d="M79.18 16.89v.7a.84.84 0 0 0 .14.75 5.17 5.17 0 0 1 .64.84 1.92 1.92 0 0 0 .31-.55 2.4 2.4 0 0 0-.08-.83c-.58.33-.81-.29-1.01-.91z"/><path id="path290" class="cls-1" d="M78.21 20.22a.6.6 0 0 0-.07-.55 1.55 1.55 0 0 1-.37-.62 1.38 1.38 0 0 1-.37.62.57.57 0 0 0-.06.55 1.87 1.87 0 0 0 .44.59z"/><path id="path292" class="cls-1" d="M79 19.64l.06.07.05.07v.07a.87.87 0 0 1 0 .76 2.71 2.71 0 0 1-.85.78 2 2 0 0 0 .31-1 3.07 3.07 0 0 0-.28-.72 1.22 1.22 0 0 1 .71-.03z"/><path id="path294" class="cls-1" d="M80 19.29h-.07v.37a1.92 1.92 0 0 0 .17.84 9.56 9.56 0 0 0 .37 1.5 4.92 4.92 0 0 0 .37-.66 6.46 6.46 0 0 1-.55-.89 6.13 6.13 0 0 1-.29-1.16z"/><path id="path296" class="cls-1" d="M80.14 19.08V20.65l.05.09.05.1.06.09.06.08.06.09.07.09c.49.61.88.83 1.14.83a1.08 1.08 0 0 0 .93-.71 1.22 1.22 0 0 0-.16-1.17s-.24.73-.75.76-.78-.58-1.51-1.82z"/><path id="path298" class="cls-1" d="M80.73 18.57v.88a1.21 1.21 0 0 0 .49.73.71.71 0 0 0 1-.36 1.59 1.59 0 0 1-1.49-1.25z"/><path id="path300" class="cls-1" d="M78.2 22.21h.34a1.26 1.26 0 0 0 .19-.84 2.76 2.76 0 0 0-.38-.67 1.14 1.14 0 0 1-.25.21 1.68 1.68 0 0 1-.1-.61 2.54 2.54 0 0 0-.37.67 1.22 1.22 0 0 0 .19.84.84.84 0 0 0 .38.4z"/><path id="path302" class="cls-1" d="M78.2 24.26v-.14l.06-.09.07-.09.06-.09V23c-.1-.52-.43-.41-.68-.62-.25.21-.59.1-.68.62.43.31 1.1.94 1.17 1.26z"/><path id="path304" class="cls-1" d="M79 23.51l-.05.07-.06.07-.05.07-.06.07-.05.07v.21a3.85 3.85 0 0 0 .42 1.48 2.16 2.16 0 0 0 .72-1 1.94 1.94 0 0 0-.87-1.04z"/><path id="path306" class="cls-1" d="M79.7 24V23.39a1.34 1.34 0 0 1 .73-1.57 3.45 3.45 0 0 1 .56 1.13c-.44.27-.99.6-1.29 1.05z"/><path id="path308" class="cls-1" d="M81 21.58h.16a3.23 3.23 0 0 1 0 .72 6 6 0 0 1-.45 1.2 3 3 0 0 1-.52-1 7.45 7.45 0 0 1-.07-.82s.77.19.88-.1z"/><path id="path310" class="cls-1" d="M82.25 23.67v-1.08a1.19 1.19 0 0 1-1 .07 3.67 3.67 0 0 0 0 .93 1 1 0 0 0 1 .08z"/><path id="path312" class="cls-1" d="M82.14 23.82h-.25s-.34.64-.4.83a.48.48 0 0 0 .36-.1 2.23 2.23 0 0 0 .29-.73z"/><path id="path314" class="cls-1" d="M80.52 23.44l.06.08.06.09h.06a2.63 2.63 0 0 1-.25.69 3.1 3.1 0 0 1-.66.84s-.34-.61-.45-.87a1.05 1.05 0 0 1-.05-.73c.64.62 1.04.23 1.23-.1z"/><path id="path316" class="cls-1" d="M78.21 28.08v-.62a.9.9 0 0 0 0-.66c-.1-.2-.46-.71-.51-.85 0 .14-.4.65-.51.85a.87.87 0 0 0 0 .66c.13.37.46.63.51.84z"/><path id="path318" class="cls-1" d="M79.67 25.49v.79a1.26 1.26 0 0 0 .06.64c.07.17.3.52.45.78a2.9 2.9 0 0 0 .63-.83 1.24 1.24 0 0 0-.07-.87c-.68 0-.95-.27-1.07-.51z"/><path id="path320" class="cls-1" d="M81.13 25.42V26.24a1.09 1.09 0 0 0 0 .84c.13.31.28.49.34.67a4.12 4.12 0 0 0 .49-.76 1.42 1.42 0 0 0 0-.83 7.88 7.88 0 0 0-.83-.74z"/><path id="path322" class="cls-1" d="M78.2 32.22V30.37a2.62 2.62 0 0 0-.59-1.37 2.74 2.74 0 0 0-.59 1.37 8.07 8.07 0 0 0 1.18 1.85z"/><path id="path324" class="cls-1" d="M79.08 27.48h.08V28.4c0 .58-.4.95-.46 1.31a4.57 4.57 0 0 1-.52-.71 1.54 1.54 0 0 1-.24-1 1.36 1.36 0 0 1 1.14-.52z"/><path id="path326" class="cls-1" d="M80.4 27.39v.99a4.75 4.75 0 0 0 .56 1 6.64 6.64 0 0 0 .35-.85c-.31-.17-.31-.6-.91-1.14z"/><path id="path328" class="cls-1" d="M78.7 33.61v-1.33a1.46 1.46 0 0 0-.25-1.2 11.42 11.42 0 0 1-.71 1.85 10.72 10.72 0 0 1-.27-1.93 1.48 1.48 0 0 0-.25 1.2 5.79 5.79 0 0 1 .49 1.43c0 .68-.72.93-.72.93.26.09.55.13 1-.31a.92.92 0 0 0 .21-.25 1.33 1.33 0 0 0 .19.26c.47.44.76.4 1 .31.03-.02-.73-.28-.69-.96z"/><path id="path330" class="cls-1" d="M76.3 29.12v.78c.06.27 0 .6-.51.94a1.49 1.49 0 0 1-.44-.52.52.52 0 0 1 .07-.6 5.37 5.37 0 0 0 .88-.6z"/><path id="path332" class="cls-1" d="M77.33 30.13v1.06c-.31.53-.75.93-1.15.93s-.43-.22-.62-.31a.79.79 0 0 1 .5-.58 3.34 3.34 0 0 0 1.27-1.1z"/><path id="path334" class="cls-1" d="M76 31.1h-.2a4 4 0 0 0-.71.36 4.89 4.89 0 0 0-.79.77A1.46 1.46 0 0 0 75 32a1.18 1.18 0 0 1 .45-.66c.12-.06.35-.13.55-.24z"/><path id="path336" class="cls-1" d="M75.62 30.71h-.08v-.41s-.67.43-.87.58a5.92 5.92 0 0 0-.72.74s.51-.11.9-.24a4.32 4.32 0 0 0 .77-.67z"/><path id="path338" class="cls-1" d="M74.48 31.43H73a1.87 1.87 0 0 0-.91.63s.49.13.76.22a4.69 4.69 0 0 1 .89-.46c.26.25.42-.07.74-.39z"/><path id="path340" class="cls-1" d="M73.73 33.83h.07c-.05-.14-.35-.31-.53-.39s-1.1-.36-1.36-.44a1.38 1.38 0 0 0-.2.32c0 .07 0 .13.12.14s.77-.06.9 0 .09.22.09.34a.72.72 0 0 1 .4-.11c.26-.31.39-.21.51.14z"/><path id="path342" class="cls-1" d="M73 32.71H73.65a.43.43 0 0 0 .2-.18c.07-.12.34-.53.6-.58a1.67 1.67 0 0 1-.34-.06 3.94 3.94 0 0 0-.45.15 3.3 3.3 0 0 0-.66.67z"/><path id="path344" class="cls-1" d="M75.1 32.19h-.32s-.71.49-.79 1a.6.6 0 0 0 .25.68c.11.06.61.25.93-.4 0 0-.55.18-.7-.08a.71.71 0 0 1 .25-.76 1.14 1.14 0 0 1 .77-.21 2 2 0 0 0-.39-.23z"/><path id="path346" class="cls-1" d="M70.44 37.84V36.74c.32-.68 1.11-2.5 2.76-2.81.15 0-.18-.42-.33-.4a2 2 0 0 0-.57.29v-.46c0-.07-.06-.1-.13-.1s-.46 0-.58.15a11.45 11.45 0 0 0-1.37 2.47c-.36.87-.61 1.14-1 1s-.6-.57-1.26-.43a1.34 1.34 0 0 0-.68.43.41.41 0 0 0 .43.24 2.59 2.59 0 0 1 1.23.35 2.24 2.24 0 0 0 1.5.37z"/><path id="path348" class="cls-1" d="M77 32.22V32.93s-.49 2.31-2.31 2.48a1.22 1.22 0 0 1 .57-.84c.54-.37 1.34-.93 1.29-1.79 0 0-.15 0-.4.35s-.82 1.26-1.69 1.26a1.34 1.34 0 0 1 .52-.69 3.51 3.51 0 0 0 1.1-1 1.53 1.53 0 0 1 .92-.48z"/><path id="path350" class="cls-1" d="M76.14 40.63l1.11 1.55.84-1.49-.3-.54-.58 1.05c-.1-.15-.37-.54-.74-1.05z"/><path id="polygon352" class="cls-1" d="M75.87 39.32l-.2-.28-.22-.29-.2-.29-.21-.3-.21-.29-.2-.28-.1-.14-.1-.13-.1-.13-.08-.13-.09-.13-.09-.12-.08-.12-.08-.11-.08-.1-.07-.1-.07-.1-.06-.08-.06-.08-.05-.08-.05-.06-.03-.06-.04-.05-.03-.04-.02-.03-.02-.03.42-.29-1.31-.51.02 1.43.45-.32 2.64 3.72.32-.48z"/><path id="path354" class="cls-1" d="M66.81 30.89H67.85c.55.51.9 1 .58 1.39s-.88 0-1.43-.46-.51-.58-.19-.93z"/><path id="path356" class="cls-1" d="M67.71 37.16h-.05a1.46 1.46 0 0 1-.47-1.16 1.51 1.51 0 1 1 3 0v.29l.37-.81a1.93 1.93 0 0 0-3.56-.3 3.35 3.35 0 0 1 .77-1.7 2 2 0 0 1 .87-.4 1.87 1.87 0 0 1-1.37-.65 2 2 0 0 1-.78-1.2 2.57 2.57 0 0 1-.11 1.14 4.94 4.94 0 0 0-.53 2.63 4.46 4.46 0 0 0 1.27 2.23 1.13 1.13 0 0 1 .23.54h1.34s.25 0 .24-.19-.14-.19-.26-.19a1.83 1.83 0 0 1-.96-.23z"/><path id="path358" class="cls-1" d="M73.67 37.53H71.61a6.38 6.38 0 0 1-1.24.07.37.37 0 0 1 0 .22.35.35 0 0 1 .07.2 6.62 6.62 0 0 0 1.26-.08 11.09 11.09 0 0 0 2.23-.54z"/><path id="path360" class="cls-1" d="M74.81 37.48l.17-.1.17-.1.17-.11.17-.12.16-.13.17-.13.16-.14.17-.15.16-.16.16-.17.16-.17.16-.19.16-.2.16-.2.15-.22.08-.11.07-.12.14-.24a.91.91 0 0 1-.5 0l-.07.1a6.83 6.83 0 0 1-2.44 2.29z"/><path id="path362" class="cls-1" d="M68.74 37.87H68c-.27 0-.57.1-.61.24s.07.29.2.5.28.06.39 0a4.76 4.76 0 0 0 .84-.49c.07-.06.11-.22-.08-.25z"/><path id="path364" class="cls-1" d="M69.37 38.28H69c-.17.07-.78.43-.83.6a.23.23 0 0 0 .14.3 1.19 1.19 0 0 0 .3.08A.5.5 0 0 0 69 39c.07-.1.36-.44.4-.52s.04-.16-.03-.2z"/><path id="path366" class="cls-1" d="M69.45 38.66H69.21a.08.08 0 0 0 .09.11 1.89 1.89 0 0 0 .75-.22c.24-.16.4-.48.24-.6s-.56.4-.84.71z"/><path id="path368" class="cls-1" d="M69.58 37.74h-.46c-.09.13 0 .27.22.39s.71.22.8.09-.03-.34-.56-.48z"/><path id="path370" class="cls-1" d="M80.11 29.12v.78c-.05.27 0 .6.51.94a1.4 1.4 0 0 0 .44-.52.53.53 0 0 0-.07-.6 5.44 5.44 0 0 1-.88-.6z"/><path id="path372" class="cls-1" d="M79.08 30.13v1.07c.31.53.75.93 1.15.93s.44-.22.61-.31a.79.79 0 0 0-.5-.58 3.34 3.34 0 0 1-1.26-1.11z"/><path id="path374" class="cls-1" d="M80.39 31.1h.19a3.77 3.77 0 0 1 .71.36 5.29 5.29 0 0 1 .8.77 1.48 1.48 0 0 1-.78 0 1.18 1.18 0 0 0-.45-.66c-.01-.29-.25-.36-.47-.47z"/><path id="path376" class="cls-1" d="M80.79 30.71h.08v-.41s.67.43.87.58a5.82 5.82 0 0 1 .71.74s-.51-.11-.9-.24a4.42 4.42 0 0 1-.76-.67z"/><path id="path378" class="cls-1" d="M81.93 31.43h1.49a1.94 1.94 0 0 1 .91.63s-.5.13-.76.22a4.61 4.61 0 0 0-.9-.46c-.28.25-.42-.07-.74-.39z"/><path id="path380" class="cls-1" d="M82.68 33.83h-.07a1.23 1.23 0 0 1 .53-.39c.3-.14 1.11-.36 1.37-.44a1.76 1.76 0 0 1 .2.32c0 .07 0 .13-.13.14s-.77-.06-.9 0-.1.22-.1.34a.72.72 0 0 0-.4-.11c-.25-.31-.37-.21-.5.14z"/><path id="path382" class="cls-1" d="M83.41 32.71H82.75a.43.43 0 0 1-.2-.18c-.07-.12-.34-.53-.59-.58a1.63 1.63 0 0 0 .34-.06 3.46 3.46 0 0 1 .45.15 3.53 3.53 0 0 1 .66.67z"/><path id="path384" class="cls-1" d="M81.32 32.19h.31s.72.49.8 1a.6.6 0 0 1-.26.68c-.1.06-.6.25-.93-.4 0 0 .55.18.7-.08a.69.69 0 0 0-.25-.76 1.12 1.12 0 0 0-.76-.21 1.8 1.8 0 0 1 .39-.23z"/><path id="path386" class="cls-1" d="M86 37.84V36.74c-.31-.68-1.11-2.5-2.75-2.81-.16 0 .17-.42.32-.4a2.09 2.09 0 0 1 .58.29v-.46a.12.12 0 0 1 .13-.1c.07 0 .46 0 .59.15a11.46 11.46 0 0 1 1.36 2.47c.37.87.61 1.14 1 1s.6-.57 1.26-.43a1.28 1.28 0 0 1 .68.43c-.05.1-.12.24-.43.24a2.61 2.61 0 0 0-1.23.35 2.24 2.24 0 0 1-1.51.37z"/><path id="path388" class="cls-1" d="M79.42 32.22V32.83l-.06.1s.5 2.31 2.32 2.48a1.21 1.21 0 0 0-.58-.84c-.54-.37-1.34-.93-1.28-1.79 0 0 .13 0 .4.35s.82 1.26 1.7 1.26a1.34 1.34 0 0 0-.52-.69 3.43 3.43 0 0 1-1.1-1 1.58 1.58 0 0 0-.88-.48z"/><path id="path390" class="cls-1" d="M78.21 34.46v.53l.08.11.08.12.08.11v.26c.29.28 1 1 1.42 1.37a4.79 4.79 0 0 1-.87-.42 2 2 0 0 1-.76.25 2 2 0 0 1-.77-.25 4.73 4.73 0 0 1-1.73.84c.39-.37 1.12-1.1 1.42-1.37a6.66 6.66 0 0 0 1.09-1.55z"/><path id="path392" class="cls-1" d="M78.21 37h.61a2.86 2.86 0 0 1-.61.88 2.76 2.76 0 0 1-.62-.88 1.55 1.55 0 0 0 .61.16z"/><path id="path394" class="cls-1" d="M79.16 42.18l4.35-6.1.44.32L84 35l-1.32.5.41.3c-.21.31-3.46 4.86-3.87 5.43l-2-3.57L77 38l-1.75 2.65-.44-.29v1.4l1.33-.52-.45-.31c.25-.36 1.19-1.79 1.51-2.27z"/><path id="path396" class="cls-1" d="M80 39.78l-.11-.16-.06-.08-.05-.08-.05-.07-.05-.08-.05-.07v-.07l-.05-.07V38.98c-.1.2-.33.6-.58 1l-.31-.55.85-1.52.24.37.87 1.32z"/><path id="path398" class="cls-1" d="M80.86 40.17l.31.48.44-.29v1.4l-1.33-.52.44-.31-.2-.31z"/><path id="path400" class="cls-1" d="M89.61 30.89H88.4c-.56.51-.9 1-.58 1.39s.87 0 1.43-.46.68-.58.36-.93z"/><path id="path402" class="cls-1" d="M88.7 37.16h.06a1.45 1.45 0 0 0 .46-1.16 1.51 1.51 0 1 0-3 0v.29s-.31-.7-.37-.81a1.93 1.93 0 0 1 3.59-.33 3.35 3.35 0 0 0-.77-1.7 2 2 0 0 0-.87-.4 1.86 1.86 0 0 0 1.36-.65 2 2 0 0 0 .78-1.2 2.55 2.55 0 0 0 .12 1.14 5 5 0 0 1 .51 2.66 4.52 4.52 0 0 1-1.27 2.23 1 1 0 0 0-.23.54h-1.33s-.26 0-.25-.19.15-.19.27-.19a1.81 1.81 0 0 0 .94-.23z"/><path id="path404" class="cls-1" d="M81.6 37.48l-.17-.1-.17-.1-.17-.11-.16-.17-.17-.13-.17-.13-.16-.14-.16-.15-.16-.16-.16-.17-.19-.12-.16-.19-.16-.2-.16-.2-.16-.22-.07-.11L79 35l-.14-.24a.91.91 0 0 0 .5 0 .75.75 0 0 1 .07.1 6.93 6.93 0 0 0 2.45 2.28z"/><path id="path406" class="cls-1" d="M82.74 37.53H84.8a6.45 6.45 0 0 0 1.24.07.54.54 0 0 0 0 .22.38.38 0 0 0-.07.2 6.74 6.74 0 0 1-1.27-.08 11.27 11.27 0 0 1-2.23-.54z"/><path id="path408" class="cls-1" d="M87.67 37.87h.78c.26 0 .56.1.6.24s-.07.29-.2.5-.28.06-.39 0a5.08 5.08 0 0 1-.84-.49c-.1-.06-.14-.22.05-.25z"/><path id="path410" class="cls-1" d="M87 38.28h.39c.17.07.78.43.83.6a.24.24 0 0 1-.13.3 1.34 1.34 0 0 1-.31.08.47.47 0 0 1-.37-.18 5.53 5.53 0 0 1-.4-.52c-.01-.12-.01-.24-.01-.28z"/><path id="path412" class="cls-1" d="M87 38.66h.23a.09.09 0 0 1-.1.11 1.83 1.83 0 0 1-.63.23c-.25-.16-.4-.48-.24-.6s.42-.05.74.26z"/><path id="path414" class="cls-1" d="M86.83 37.74h.47c.08.13 0 .27-.22.39s-.72.22-.81.09.03-.34.56-.48z"/><path class="cls-2" d="M101.71 0h-48.5v50h50V0zm-1.51 47h-44V3h44zM42 14.28a1.16 1.16 0 0 0-1-.47h-.69v1.85h2.15a3.39 3.39 0 0 0-.46-1.38zM13.53 28.82c-.42 0-.74.34-1 1a8.62 8.62 0 0 0-.36 2.73 9 9 0 0 0 .36 2.75c.23.7.54 1 1 1h.13v-.55a9.35 9.35 0 0 0 .34-2.78 9 9 0 0 0-.3-2.69c.66-1.12.3-1.46-.17-1.46zM16.79 13.57c-.47 0-.82.33-1.07 1a7.79 7.79 0 0 0-.39 2.71 8.17 8.17 0 0 0 .4 2.72v.49h.17c.48 0 .83-.32 1.08-1a8.08 8.08 0 0 0 .39-2.75 8.17 8.17 0 0 0-.34-2.67c.66-.16.29-.5-.24-.5z"/><path class="cls-2" d="M0 0v50h50V0zm4.59 12.07h6.25v10.5H8.92v-8.76H6.53v8.76H4.59zM8.8 34.36a1.62 1.62 0 0 1-1.4.9 1.69 1.69 0 0 1-1.1-.47v3H4.58V27.4H7.69l.07.06h.09l.07.06.07.06.07.06.07.07.07.06.07.07.06.07.07.07.06.07.06.07.07.09.06.09.06.07v.09l.06.09.06.11a5.63 5.63 0 0 1 .49 2.39 5.66 5.66 0 0 1-.52 3.31zm7 2.09A2.55 2.55 0 0 1 13.53 38a2.37 2.37 0 0 1-2.19-1.51 9.09 9.09 0 0 1-.73-4 8.58 8.58 0 0 1 .77-3.9 2.4 2.4 0 0 1 2.15-1.51H14.81l.07.06.06.06.07.06.06.06.07.06.06.06.07.07.06.07.06.07.06.07.07.07v.07l.07.07v.09l.06.09.06.09a8.29 8.29 0 0 1 .78 3.89 8.6 8.6 0 0 1-.67 4.37zm-1.49-15.18a8.31 8.31 0 0 1-.82-4 7.8 7.8 0 0 1 .86-3.92 2.71 2.71 0 0 1 2.43-1.53H18.12l.07.06h.07l.09.06.07.06.07.06.07.06.07.07.06.06.07.07.07.07.06.07.07.07.06.09.07.07.06.09.06.09.06.09a7.69 7.69 0 0 1 .9 3.92 7.83 7.83 0 0 1-.88 3.94 2.85 2.85 0 0 1-2.58 1.59 2.68 2.68 0 0 1-2.4-1.14zm8.83 16.88h-.08a4.84 4.84 0 0 1-3.82-1.58 5.71 5.71 0 0 1-1.32-3.91 5.86 5.86 0 0 1 1.22-3.93A4.81 4.81 0 0 1 23 27.14h.09V29H23a3 3 0 0 0-2.47 1 4 4 0 0 0-.79 2.62V34.08l.06.16.06.16.07.15.07.15.08.14.08.14.1.13.05.07v.06a3.06 3.06 0 0 0 2.5 1.08h.08zm-.79-23.08v-3h1.93v2.8a.71.71 0 0 0 .22.56 1.37 1.37 0 0 0 1 .29h1.05v-3.65h1.94v10.5h-1.97V17.5H25.1a2.9 2.9 0 0 1-1.94-.69 2.22 2.22 0 0 1-.81-1.74zm7.26 23.08h-.08a4.86 4.86 0 0 1-3.82-1.58 5.75 5.75 0 0 1-1.32-3.91 5.9 5.9 0 0 1 1.22-3.93 4.82 4.82 0 0 1 3.9-1.58h.08V29h-.09a3.05 3.05 0 0 0-2.5 1 4 4 0 0 0-.79 2.62V34.08l.05.16.07.16.07.15.07.15.07.14.09.14.09.13.1.13a3.05 3.05 0 0 0 2.49 1.08h.08zm1.14-26.08h5.17v1.74h-1.63v8.76h-1.93v-8.76h-1.61zm4.89 25.76s-.23-6.51-.25-6.89l-2.45 2.6v4.29h-1.68V27.39H33V31v-.05l.05-.05.05-.06.06-.06.06-.07.07-.07.13-.14.14-.15L34 30l.16-.17.16-.17.17-.17.17-.18.35-.37.17-.19.17-.18.17-.17.16-.17.16-.16.15-.16.14-.15.13-.14.07-.07.06-.06.05-.06.05-.05.05-.05v-.05l.13-.14.41 10.95zm2.8-25.76h2.86a3.12 3.12 0 0 1 2 .56l.07.06v.06h.06l.06.06.06.06.06.07v.07l.06.06V14.73l.9 7.68h-1.4l-.56-5.14H40.2c0 .23-.19 5.14-.19 5.14h-1.92zm5.26 25.77s-.23-6.51-.25-6.89L41 33.55v4.29h-1.68V27.39H41v3.68l3.86-4 .14-.14.41 10.95z"/><path class="cls-2" d="M6.37 28.87H6.2V32a2.42 2.42 0 0 0 .22 1.14c.14.27.31.41.52.41s.41-.15.56-.45a2.87 2.87 0 0 0 .22-1.29 5.26 5.26 0 0 0-.36-2.24 1.12 1.12 0 0 0-.99-.7z"/><path id="path52-2" data-name="path52" class="cls-2" d="M68.36 16.16l.07.16.08.15.08.16.1.16.05.07.06.08.05.08.06.08.07.08.07.08.07.08.07.08.08.09.08.08.08.09.09.09.1.09.1.09.1.09.11.1.11.09.12.1.12.1.13.1.14.1.13.1.15.1.15.1a1.21 1.21 0 0 1 .47 1.52c-.31.75-.9 1.79-.55 2.2a2.73 2.73 0 0 0 2.61.22 3.48 3.48 0 0 0 .59 1.05s-.18.35-.76.17a1.39 1.39 0 0 1-.08 1.1 1.45 1.45 0 0 1-1-.75 1.54 1.54 0 0 1-.81.66s-.45-.2-.33-1.1a1.7 1.7 0 0 1-1.34.93 1.4 1.4 0 0 1 .22-1.72 1.77 1.77 0 0 1-1.54.25s-.16-.51.74-1.21a1.71 1.71 0 0 1-1.4-.9 1.64 1.64 0 0 1 1.48-.41A1.69 1.69 0 0 1 68 19.56a1.73 1.73 0 0 1 1.82.27 2.62 2.62 0 0 0-.66-.75 3.2 3.2 0 0 1-.8-2.92z"/><path id="path54-2" data-name="path54" class="cls-2" d="M72.44 27.93v-.08c.18 1.42.24 2.38 1 3.3a2.71 2.71 0 0 0 .16-2.11 1.55 1.55 0 0 1-.41-.19 3 3 0 0 1 .07 1.22s-.62-.71-.82-2.14z"/><path id="path56-2" data-name="path56" class="cls-2" d="M71.11 27.78H71c-.07.82-.28 3 .45 3.67 0 0 .49-.37.67-3.53a3.43 3.43 0 0 1-.38.47 3.52 3.52 0 0 1-.24 1.71s-.61-.8-.39-2.32z"/><path id="path58-2" data-name="path58" class="cls-2" d="M69.38 29.44l.05-.07.05-.08.05-.09.05-.1v-.91l.06-.25v-1.35l.25-.19.1-.09v.25a9 9 0 0 1-.6 3.35 3 3 0 0 1-1.14 1c-.69-1.24.14-2.9.84-4.06l.27-.11a6.21 6.21 0 0 0 .02 2.7z"/><path id="path60-2" data-name="path60" class="cls-2" d="M67.66 25.63v.26a15.45 15.45 0 0 0-1.88 2.31 3.1 3.1 0 0 1-2.23 1.25 4.42 4.42 0 0 1 1.2-2.45 14.89 14.89 0 0 1 2.35-2 1.27 1.27 0 0 0 .7.1h.07a1 1 0 0 0-.18.35A6.33 6.33 0 0 0 65 27.7a7.4 7.4 0 0 0 2.66-2.07z"/><path id="path62-2" data-name="path62" class="cls-2" d="M66.57 24.43l.06-.11.06-.09c-.57.22-2.57 1-3.22 1.31a4.43 4.43 0 0 0-2.09 2.65 3.72 3.72 0 0 0 2.47-.81c1.11-.92 2.41-2.21 3-2.62a.72.72 0 0 1-.13-.14 11.34 11.34 0 0 1-3.11 1.91 3.76 3.76 0 0 1 1-1.07 10.06 10.06 0 0 1 1.96-1.03z"/><path id="path64-2" data-name="path64" class="cls-2" d="M65.43 23.51c-.66.14-2.32.34-3.06.56a4.64 4.64 0 0 0-2.86 2.28s1.17.36 3.36-.67a20.32 20.32 0 0 1 3.3-1.36 1.52 1.52 0 0 1-.7-.21 8.77 8.77 0 0 1-3.21.88 7.43 7.43 0 0 1 1.17-.66 15.2 15.2 0 0 1 2-.82z"/><path id="path66-2" data-name="path66" class="cls-2" d="M65.48 22.42H66.05a1.87 1.87 0 0 0-.43.39 21.91 21.91 0 0 1-4.27.62 9 9 0 0 1-3.33-.24 9.72 9.72 0 0 1 2.78-1.09c.82-.16 3-.13 3.9-.27a2.76 2.76 0 0 0 .32.22 11.4 11.4 0 0 0-3.36.58 10 10 0 0 0 3.82-.21z"/><path id="path68-2" data-name="path68" class="cls-2" d="M65.32 21.17h.4a19.49 19.49 0 0 0-4.88-1 12.18 12.18 0 0 0-3.5.15 10.27 10.27 0 0 0 3.26 1.45 16.74 16.74 0 0 0 4.17.14 2.38 2.38 0 0 1 .27-.33 16.87 16.87 0 0 1-3.93-.54 9.54 9.54 0 0 1 4.21.13z"/><path id="path70-2" data-name="path70" class="cls-2" d="M65.32 19.88v.26H65.67c-1.55-.67-4.6-1.06-6.22-1.75-2.21-.91-2.62-2.06-2.62-2.06a13.83 13.83 0 0 1 4.65.78c1.4.43 3.53 1.22 4.27 1.55a1.53 1.53 0 0 0-.84.26 24.87 24.87 0 0 0-2.47-.84 8.92 8.92 0 0 0-1.76-.29 7.68 7.68 0 0 0 1.73.78 16.09 16.09 0 0 0 2.91 1.31z"/><path id="path72-2" data-name="path72" class="cls-2" d="M65.2 18.19h.19a11 11 0 0 1-6-3.41 4.48 4.48 0 0 1-.39-2.37 10.23 10.23 0 0 1 3 2.13c.46.45 1.83 1.79 2.78 2.53l.29.85c-.81-.65-1.77-1.37-2.38-1.83A7.36 7.36 0 0 0 60.82 15 8.44 8.44 0 0 0 62 16.24a12.23 12.23 0 0 0 1.68 1.14c.4.25.63.39 1.52.81z"/><path id="path74-2" data-name="path74" class="cls-2" d="M72.09 25h.19a5.07 5.07 0 0 1 .72.93c.14.4.29.94.37 1.25a5.54 5.54 0 0 0 .43 1.19 1.23 1.23 0 0 1-1-.44 2.78 2.78 0 0 1-.65-1.53 5.88 5.88 0 0 1-.06-1.4z"/><path id="path76-2" data-name="path76" class="cls-2" d="M71.14 25.11h.39l.2-.08a2.17 2.17 0 0 1 .15.56 3 3 0 0 1 0 1 2.25 2.25 0 0 1-.52.85 2.82 2.82 0 0 1-.5-.78 2 2 0 0 1 0-1.24 2 2 0 0 1 .28-.31z"/><path id="path78-2" data-name="path78" class="cls-2" d="M69.81 25.15H70.56a1 1 0 0 1 .07.59 1.49 1.49 0 0 1-.52.78 2 2 0 0 1-1.53.52s.05-.79 1.23-1.89z"/><path id="path80-2" data-name="path80" class="cls-2" d="M69.36 24.41v.52h.07a1.78 1.78 0 0 1-1.69.88.84.84 0 0 1 .41-1.05 3.38 3.38 0 0 1 1.21-.35z"/><path id="path82-2" data-name="path82" class="cls-2" d="M69.45 23.67H68.25v-.12c-.53.44-1.17.52-1.39.91a.93.93 0 0 0 1 .4 2.31 2.31 0 0 0 1.52-.86 1.21 1.21 0 0 1 .07-.33z"/><path id="path84-2" data-name="path84" class="cls-2" d="M68.25 23.06v-.46a3.46 3.46 0 0 0-1.41 0 1.76 1.76 0 0 0-1.63 1.24 1.39 1.39 0 0 0 1.17.2 2.36 2.36 0 0 0 1.87-.98z"/><path id="path86-2" data-name="path86" class="cls-2" d="M68 22l-.05-.12a2.33 2.33 0 0 0-1.7-.13 1.52 1.52 0 0 0-.86.67 2.53 2.53 0 0 0 1.35.55A3 3 0 0 0 68 22z"/><path id="path88-2" data-name="path88" class="cls-2" d="M68.14 20.85h.32a2 2 0 0 1-.61-1 2.74 2.74 0 0 1-1.13 0 1.42 1.42 0 0 0-1.2.16 1.36 1.36 0 0 0 1.06 1 2.32 2.32 0 0 0 1.56-.16z"/><path id="path90-2" data-name="path90" class="cls-2" d="M67.8 19.46l.12-.08a1.37 1.37 0 0 1 .58-.16 14.2 14.2 0 0 0-1.5-1.11 7.25 7.25 0 0 0-1.93-.78 5.5 5.5 0 0 0 .93 1.6 1.81 1.81 0 0 0 1.8.53z"/><path id="path92-2" data-name="path92" class="cls-2" d="M68.74 18.93V17.8a13.48 13.48 0 0 0-.49-1.58 2.86 2.86 0 0 0-1.66-1.37 3.15 3.15 0 0 0 .24 2 5.58 5.58 0 0 0 1.91 2.08z"/><path id="path94-2" data-name="path94" class="cls-2" d="M74.3 24.14h.2a1.51 1.51 0 0 1-.07 1.34 18.32 18.32 0 0 0-.87 1.91s-.21 0-.44-1.19a2.28 2.28 0 0 0-.56-1.24 1.37 1.37 0 0 0 .43.14h.15l.07-.15a1.57 1.57 0 0 0 .17-.73 1.64 1.64 0 0 0 0-.2.75.75 0 0 0 .63-.26z"/><path id="path96-2" data-name="path96" class="cls-2" d="M65.79 15.29V15.91l-2-2.51a5.26 5.26 0 0 0-1.29-1.2 6 6 0 0 0 1.5 2.35 16.3 16.3 0 0 0 1.79 1.58l.06.21a2.65 2.65 0 0 0 .23.6 5.11 5.11 0 0 0 .6.79c-.19-.1-.41-.2-.63-.29l-.21-.09A11.76 11.76 0 0 1 61.57 13a5.72 5.72 0 0 1-.24-3.84A18 18 0 0 1 63.84 12a25.52 25.52 0 0 1 1.94 3.27z"/><path id="path98-2" data-name="path98" class="cls-2" d="M91.09 21.17h-.4a19.63 19.63 0 0 1 4.89-1 12.14 12.14 0 0 1 3.49.15 10.38 10.38 0 0 1-3.26 1.45 16.79 16.79 0 0 1-4.18.14 1.84 1.84 0 0 0-.26-.33 16.93 16.93 0 0 0 3.93-.54 9.57 9.57 0 0 0-4.21.13z"/><path id="path100-2" data-name="path100" class="cls-2" d="M91.1 19.88v.22h-.3c1.55-.67 4.59-1.06 6.23-1.75 2.2-.91 2.61-2.06 2.61-2.06a13.87 13.87 0 0 0-4.65.78c-1.4.43-3.52 1.22-4.27 1.55a1.54 1.54 0 0 1 .84.26 25.47 25.47 0 0 1 2.47-.84 9 9 0 0 1 1.76-.29 7.51 7.51 0 0 1-1.73.78 16.5 16.5 0 0 1-2.96 1.35z"/><path id="path102-2" data-name="path102" class="cls-2" d="M91.22 18.19h-.32a11 11 0 0 0 6-3.41 4.45 4.45 0 0 0 .6-2.85 10.36 10.36 0 0 0-3 2.13c-.45.45-1.82 1.79-2.77 2.53l-.29.85c.81-.65 1.77-1.37 2.37-1.83A7.28 7.28 0 0 1 95.6 15a9 9 0 0 1-1.14 1.23 12.26 12.26 0 0 1-1.69 1.14c-.44.26-.67.4-1.55.82z"/><path id="path104-2" data-name="path104" class="cls-2" d="M90.63 15.29v.63c.59-.75 1.3-1.67 2-2.51a5.53 5.53 0 0 1 1.29-1.2 5.93 5.93 0 0 1-1.49 2.34 16.3 16.3 0 0 1-1.79 1.58l-.06.21a3.11 3.11 0 0 1-.24.6 5 5 0 0 1-.59.79c.19-.1.4-.2.63-.29l.2-.09A11.76 11.76 0 0 0 94.84 13a5.59 5.59 0 0 0 .24-3.84A17.92 17.92 0 0 0 92.57 12a25.66 25.66 0 0 0-1.94 3.27z"/><path id="path106-2" data-name="path106" class="cls-2" d="M68.1 26.19l-.07.07-.07.07-.08.08-.08.09-.09.09-.09.1-.09.1-.09.1-.1.11-.1.11-.09.12-.1.12-.09.13-.1.13-.09.13-.09.13-.08.13-.08.14-.08.14-.07.15-.07.15-.06.16-.06.15-.06.16v1.31A4 4 0 0 0 68 28.89a12 12 0 0 1 1.22-2 1.68 1.68 0 0 1-.48 0h-.13A6.49 6.49 0 0 1 66.83 29s-.16-.9 1.77-2.7a1.83 1.83 0 0 1 .12-.25 1.55 1.55 0 0 1-.61.09"/><path id="path108-2" data-name="path108" class="cls-2" d="M88.06 16.16l-.07.16-.08.15-.08.16-.1.16-.05.07-.05.08-.06.08-.06.08-.06.08-.07.08-.07.08-.07.08-.07.09-.08.08-.09.11-.09.09-.1.09-.1.09-.1.09-.11.1-.11.09-.12.1-.12.1-.13.1-.13.1-.14.1-.15.1-.15.1a1.2 1.2 0 0 0-.45 1.52c.31.75.9 1.79.55 2.2a2.74 2.74 0 0 1-2.62.22 3.55 3.55 0 0 1-.58 1.05s.18.35.76.17a1.39 1.39 0 0 0 .08 1.1 1.42 1.42 0 0 0 1-.75 1.54 1.54 0 0 0 .81.66s.46-.23.35-1.13a1.7 1.7 0 0 0 1.35.93 1.4 1.4 0 0 0-.18-1.73 1.76 1.76 0 0 0 1.54.25s.16-.51-.74-1.21a1.71 1.71 0 0 0 1.4-.9 1.66 1.66 0 0 0-1.49-.41 1.69 1.69 0 0 0 1.2-1.38 1.72 1.72 0 0 0-1.82.27 2.62 2.62 0 0 1 .67-.75 3.25 3.25 0 0 0 .78-2.9z"/><path id="path110-2" data-name="path110" class="cls-2" d="M84 27.93v-.11c-.17 1.42-.23 2.38-1 3.3a2.75 2.75 0 0 1-.16-2.11 1.36 1.36 0 0 0 .41-.19 3.13 3.13 0 0 0-.07 1.22s.59-.68.82-2.11z"/><path id="path112-2" data-name="path112" class="cls-2" d="M85.3 27.78h.1c.07.82.28 3-.44 3.67 0 0-.5-.37-.67-3.53a4.17 4.17 0 0 0 .37.47 3.52 3.52 0 0 0 .24 1.71s.63-.8.4-2.32z"/><path id="path114-2" data-name="path114" class="cls-2" d="M87 29.44v-.07l-.05-.08-.05-.09v-.1l-.05-.1v-.81l-.05-.25v-1.35a2 2 0 0 1-.25-.19.6.6 0 0 1-.1-.09 1.37 1.37 0 0 1 0 .25 9.1 9.1 0 0 0 .61 3.35 3 3 0 0 0 1.14 1c.69-1.24-.14-2.9-.85-4.06l-.26-.11a6.45 6.45 0 0 1-.09 2.7z"/><path id="path116-2" data-name="path116" class="cls-2" d="M88.76 25.63v.21a15.45 15.45 0 0 1 1.88 2.31 3.09 3.09 0 0 0 2.16 1.45 4.43 4.43 0 0 0-1.14-2.6 15.18 15.18 0 0 0-2.35-2 1.27 1.27 0 0 1-.7.1h-.07a1 1 0 0 1 .18.35 6.38 6.38 0 0 1 2.64 2.3 7.39 7.39 0 0 1-2.6-2.12z"/><path id="path118-2" data-name="path118" class="cls-2" d="M89.85 24.43l-.06-.11-.06-.09c.56.22 2.56 1 3.21 1.31A4.41 4.41 0 0 1 95 28.19a3.7 3.7 0 0 1-2.47-.81c-1.11-.92-2.41-2.21-3-2.62a.59.59 0 0 0 .13-.14 11.34 11.34 0 0 0 3.11 1.91 3.71 3.71 0 0 0-1-1.07 9.83 9.83 0 0 0-1.92-1.03z"/><path id="path120-2" data-name="path120" class="cls-2" d="M91 23.51c.66.14 2.32.34 3.06.56a4.66 4.66 0 0 1 2.86 2.28s-1.17.36-3.36-.67a20.1 20.1 0 0 0-3.29-1.36 1.52 1.52 0 0 0 .69-.21 8.77 8.77 0 0 0 3.21.88 7.32 7.32 0 0 0-1.18-.66 14.55 14.55 0 0 0-1.99-.82z"/><path id="path122-2" data-name="path122" class="cls-2" d="M90.94 22.42h-.59a1.9 1.9 0 0 1 .43.39 21.71 21.71 0 0 0 4.26.62 9 9 0 0 0 3.33-.24 9.73 9.73 0 0 0-2.78-1.09c-.81-.16-3-.13-3.9-.27a1.87 1.87 0 0 1-.31.22 11.36 11.36 0 0 1 3.35.58 10 10 0 0 1-3.79-.21z"/><path id="path124-2" data-name="path124" class="cls-2" d="M84.32 25h-.16a4.76 4.76 0 0 0-.68 1.09c-.13.4-.29.94-.36 1.25a6.44 6.44 0 0 1-.43 1.19 1.21 1.21 0 0 0 1-.44 2.67 2.67 0 0 0 .65-1.53 5.47 5.47 0 0 0-.02-1.56z"/><path id="path126-2" data-name="path126" class="cls-2" d="M85.27 25.11H84.84l-.2-.08a2.14 2.14 0 0 0-.14.56 2.77 2.77 0 0 0 0 1 2.26 2.26 0 0 0 .52.85 2.66 2.66 0 0 0 .5-.78 2 2 0 0 0 0-1.24 1.68 1.68 0 0 0-.25-.31z"/><path id="path128-2" data-name="path128" class="cls-2" d="M86.61 25.15h-.53L86 25H85.85a.94.94 0 0 0-.07.59 1.45 1.45 0 0 0 .52.78 2 2 0 0 0 1.52.52s-.03-.64-1.21-1.74z"/><path id="path130-2" data-name="path130" class="cls-2" d="M87.06 24.41v.52h-.26a1.77 1.77 0 0 0 1.69.88.84.84 0 0 0-.42-1.05 3.36 3.36 0 0 0-1.01-.35z"/><path id="path132-2" data-name="path132" class="cls-2" d="M87 23.67h1.12v-.12c.53.44 1.17.52 1.39.91a.93.93 0 0 1-1 .4A2.31 2.31 0 0 1 87 24a2.18 2.18 0 0 0 0-.33z"/><path id="path134-2" data-name="path134" class="cls-2" d="M88.17 23.06v-.46a3.45 3.45 0 0 1 1.41 0 1.76 1.76 0 0 1 1.63 1.24 1.4 1.4 0 0 1-1.17.2 2.34 2.34 0 0 1-1.87-.98z"/><path id="path136-2" data-name="path136" class="cls-2" d="M88.44 22l.05-.12a2.33 2.33 0 0 1 1.7-.13 1.51 1.51 0 0 1 .86.67 2.52 2.52 0 0 1-1.34.55 3.05 3.05 0 0 1-1.27-.97z"/><path id="path138-2" data-name="path138" class="cls-2" d="M88.28 20.85h-.33a1.91 1.91 0 0 0 .61-1 2.77 2.77 0 0 0 1.14 0 1.42 1.42 0 0 1 1.2.16 1.37 1.37 0 0 1-1.07 1 2.3 2.3 0 0 1-1.55-.16z"/><path id="path140-2" data-name="path140" class="cls-2" d="M88.61 19.46l-.12-.08a1.36 1.36 0 0 0-.58-.16 14.09 14.09 0 0 1 1.51-1.11 7.46 7.46 0 0 1 1.93-.78 5.32 5.32 0 0 1-.94 1.61 1.8 1.8 0 0 1-1.8.52z"/><path id="path142-2" data-name="path142" class="cls-2" d="M87.67 18.93V17.8a11.11 11.11 0 0 1 .49-1.58 2.86 2.86 0 0 1 1.66-1.37 3.15 3.15 0 0 1-.24 2 5.65 5.65 0 0 1-1.91 2.08z"/><path id="path144-2" data-name="path144" class="cls-2" d="M82.11 24.14H81.7a1.54 1.54 0 0 0 .07 1.34 18.66 18.66 0 0 1 .87 1.91s.21 0 .44-1.19a2.34 2.34 0 0 1 .56-1.24 1.51 1.51 0 0 1-.43.14h-.15l-.06.21a1.5 1.5 0 0 1-.18-.73 1.66 1.66 0 0 1 0-.2.74.74 0 0 1-.63-.26z"/><path id="path146-2" data-name="path146" class="cls-2" d="M88.32 26.19l.07.07.07.07.08.08.08.09.09.09.08.1.1.1.09.1.1.11.09.11.1.12.1.12.09.13.09.13.1.13.08.13.09.14.08.14.08.14.07.15.07.15.07.16.06.15.05.16.05.16v1.15a4 4 0 0 1-2.05-1.52 12.1 12.1 0 0 0-1.22-2 1.69 1.69 0 0 0 .48 0h.13A6.47 6.47 0 0 0 89.58 29s.17-.9-1.76-2.7a1.35 1.35 0 0 0-.13-.25 1.59 1.59 0 0 0 .61.09"/><path id="path148-2" data-name="path148" class="cls-2" d="M77.07 11.75h1.13c.63 0 1.14.11 1.14.25s-.51.24-1.14.24-1.13-.36-1.13-.49z"/><path id="path150-2" data-name="path150" class="cls-2" d="M73.21 13.06h.74c.4 0 .73.06.73.13s-.34.13-.73.13-.74-.19-.74-.26z"/><path id="path152-2" data-name="path152" class="cls-2" d="M78.43 12.28h-.23a.23.23 0 0 1-.22-.23.23.23 0 0 1 .22-.22.22.22 0 0 1 .23.45z"/><path id="path154-2" data-name="path154" class="cls-2" d="M77 11.51V9.72c0-.13.16-.23.31-.28a.43.43 0 0 1 .39 0 5.81 5.81 0 0 1 .44 1.88 1.74 1.74 0 0 0-1.14.19z"/><path id="path156-2" data-name="path156" class="cls-2" d="M77.68 11.32H78a14.47 14.47 0 0 0-.33-1.61c-.1-.32-.22-.55-.43-.61a6.59 6.59 0 0 1 .25.9c.06.44.12.89.19 1.32z"/><path id="path158-2" data-name="path158" class="cls-2" d="M76.48 12.93h.26a1 1 0 0 0-.26 0z"/><path id="path160-2" data-name="path160" class="cls-2" d="M77.11 12.9h-1.22a1.78 1.78 0 0 1 .61-.7 2 2 0 0 1 1.19-.3 1.57 1.57 0 0 1-.58 1z"/><path id="path164-2" data-name="path164" class="cls-2" d="M77 13.2a10.86 10.86 0 0 1-2.5.26H73.3c.08 1.58 1.16 1.68 1.16 1.68a2.33 2.33 0 0 1 0-.34 3.44 3.44 0 0 0 1 .54 1.15 1.15 0 0 0-.07-.36 1 1 0 0 0 .47.17 1.76 1.76 0 0 0-.17-.49.69.69 0 0 0 .45.28 1.18 1.18 0 0 0 0-.45 1.39 1.39 0 0 0 .9.6.86.86 0 0 0 .88-.22 1.77 1.77 0 0 1-1.14-.52.83.83 0 0 0 .43-.34.7.7 0 0 0-.37-.17.8.8 0 0 0 .16-.64zm-2.05.6v.06s-.93 0-1 .47a.7.7 0 0 1-.26-.49 7.8 7.8 0 0 0 1.23-.04z"/><path id="path166-2" data-name="path166" class="cls-2" d="M72.87 13.34V14.15a1.85 1.85 0 0 1-.53-.59c.13-.16.1-.34.53-.22z"/><path id="path170-2" data-name="path170" class="cls-2" d="M71.62 13.65a.62.62 0 0 0-.47.26.89.89 0 0 0 .32 1.2 1.24 1.24 0 0 1 1.51 0 2.34 2.34 0 0 1 .62-.21c-.25-.11-.78-.27-.93-.75a1.5 1.5 0 0 0-1.05-.5zm.39.63a.2.2 0 0 1 .19.19.19.19 0 0 1 0-.37z"/><path id="path172-2" data-name="path172" class="cls-2" d="M73.69 15h.05v.05a1.46 1.46 0 0 0-1.4 1s-.38-.6-.1-1a1.32 1.32 0 0 1 1.45-.05z"/><path id="path174-2" data-name="path174" class="cls-2" d="M74.92 15.22h.48v-.31l.36.07a6.08 6.08 0 0 0 .64 1.11.83.83 0 0 1-.14.45 3.62 3.62 0 0 0-.57-.85 4.25 4.25 0 0 0-.77-.47z"/><path id="path176-2" data-name="path176" class="cls-2" d="M74 15.05H74.83a1.09 1.09 0 0 1 .55 1 2.27 2.27 0 0 0-.59-.57 3.34 3.34 0 0 1-.79-.43z"/><path id="path178-2" data-name="path178" class="cls-2" d="M74 11.42h.31a3.6 3.6 0 0 1-.34.76 3.54 3.54 0 0 1-.34-.76c0-.17.2-.22.31-.22H74z"/><path id="path180-2" data-name="path180" class="cls-2" d="M73.74 12.76v-.98a.67.67 0 0 0-.46-.13.19.19 0 0 0-.17.25 8.91 8.91 0 0 0 .57.92z"/><path id="path182-2" data-name="path182" class="cls-2" d="M74.15 12.76V11.78a.66.66 0 0 1 .46-.13.2.2 0 0 1 .17.25 8.81 8.81 0 0 1-.57.92z"/><path id="polygon184-2" data-name="polygon184" class="cls-2" d="M74.45 10.59h-.36v-.4h-.29v.4h-.36v.25h.36v.46h.29v-.46h.36v-.25z"/><path id="path186-2" data-name="path186" class="cls-2" d="M70.09 13.15V13a1.89 1.89 0 0 0 0-.5c-.26.1-.44.16-.79.74.02-.08.59-.43.79-.09z"/><path id="path188-2" data-name="path188" class="cls-2" d="M70.58 14.07V13.2a1.79 1.79 0 0 0-.12-1.29 1.85 1.85 0 0 1-.23-1 3.23 3.23 0 0 0-.53.23 2.05 2.05 0 0 0 .31 1 1.54 1.54 0 0 1 .07.83 1.65 1.65 0 0 0 .5 1.1z"/><path id="path190-2" data-name="path190" class="cls-2" d="M70.62 11a2.61 2.61 0 0 1 1-.61.63.63 0 0 1 .55.13.6.6 0 0 0-.4.18 2.64 2.64 0 0 1-.77.3.71.71 0 0 1-.38 0z"/><path id="path192-2" data-name="path192" class="cls-2" d="M72.19 10.37a2.62 2.62 0 0 1-.34.84 1.23 1.23 0 0 0-.26.7.7.7 0 0 0 .23.42s-.65-.16-.72-.55a1.14 1.14 0 0 1 .18-.81c.1-.19.4-.62.47-.8a.66.66 0 0 0 .44.2z"/><path id="path194-2" data-name="path194" class="cls-2" d="M76 14.88V16.12a2.19 2.19 0 0 1 .3 1A1.89 1.89 0 0 0 77 16a1.79 1.79 0 0 0-1-1.12z"/><path id="path196-2" data-name="path196" class="cls-2" d="M76.71 15h.66a1.67 1.67 0 0 1 .62 1 1.44 1.44 0 0 1-.67-.3 2.59 2.59 0 0 1-.61-.7z"/><path id="path198-2" data-name="path198" class="cls-2" d="M74.41 15.84H74a2.09 2.09 0 0 1 .57.26 1.15 1.15 0 0 1 .37.69 4.76 4.76 0 0 0 .44 1.21 2.66 2.66 0 0 1 .21-1.12 1.85 1.85 0 0 1-.44-.39 2.37 2.37 0 0 0-.74-.65z"/><path id="path200-2" data-name="path200" class="cls-2" d="M76.38 16.88V18.04c-.13.47-.43.67-.63 1.07a6 6 0 0 1-.12-1.27 1.17 1.17 0 0 1 .75-.96z"/><path id="path202-2" data-name="path202" class="cls-2" d="M77.24 16.89v.73a.84.84 0 0 1-.15.75 6.14 6.14 0 0 0-.64.84 2.12 2.12 0 0 1-.31-.55 2.59 2.59 0 0 1 .08-.83c.59.3.78-.32 1.02-.94z"/><path id="path204-2" data-name="path204" class="cls-2" d="M77.46 19.64h-.06l-.06.07-.05.07v.07a.9.9 0 0 0 0 .76 2.88 2.88 0 0 0 .85.78 2 2 0 0 1-.31-1c0-.29.25-.55.29-.72a1.35 1.35 0 0 0-.66-.03z"/><path id="path206-2" data-name="path206" class="cls-2" d="M76.45 19.29h.07v.37a1.89 1.89 0 0 1-.16.84 10.73 10.73 0 0 1-.41 1.5 4.59 4.59 0 0 1-.38-.66 6 6 0 0 0 .54-.89 5.69 5.69 0 0 0 .34-1.16z"/><path id="path208-2" data-name="path208" class="cls-2" d="M76.28 19.08V20.57l-.05.09v.09l-.06.1-.05.09-.06.08-.06.09-.07.09c-.49.61-.88.83-1.14.83a1.08 1.08 0 0 1-.93-.71 1.2 1.2 0 0 1 .16-1.17s.24.73.74.76.78-.59 1.52-1.83z"/><path id="path210-2" data-name="path210" class="cls-2" d="M75.69 18.57v.87a1.24 1.24 0 0 1-.49.73.72.72 0 0 1-1-.36 1.6 1.6 0 0 0 1.49-1.24z"/><path id="path212-2" data-name="path212" class="cls-2" d="M77.4 23.51v.07l.05.07.05.07.06.07.05.07.05.07v.24a3.83 3.83 0 0 1-.43 1.48 2.17 2.17 0 0 1-.71-1 1.92 1.92 0 0 1 .88-1.14z"/><path id="path214-2" data-name="path214" class="cls-2" d="M76.72 24V23.39a1.33 1.33 0 0 0-.72-1.57 3.33 3.33 0 0 0 0 .86c-.13.54.45.87.72 1.32z"/><path id="path216-2" data-name="path216" class="cls-2" d="M75.39 21.58h-.17a3 3 0 0 0 0 .72 5.62 5.62 0 0 0 .45 1.2 3.15 3.15 0 0 0 .52-1c.05-.36 0-.65.06-.82-.47.61-.72.19-.86-.1z"/><path id="path218-2" data-name="path218" class="cls-2" d="M74.16 23.67v-1.1a1.22 1.22 0 0 0 1 .07 3.76 3.76 0 0 1 0 .93.9.9 0 0 1-1 .1z"/><path id="path220-2" data-name="path220" class="cls-2" d="M74.27 23.82H74.48s.35.64.41.83a.5.5 0 0 1-.37-.1 2.43 2.43 0 0 1-.25-.73z"/><path id="path222-2" data-name="path222" class="cls-2" d="M75.9 23.44v.06l-.06.08-.06.09h-.06a2.52 2.52 0 0 0 .25.69 2.94 2.94 0 0 0 .66.84s.34-.61.45-.87a1.1 1.1 0 0 0 .05-.73c-.65.56-1.05.17-1.23-.16z"/><path id="path224-2" data-name="path224" class="cls-2" d="M76.74 25.49v.23L77 26V26.47a1.18 1.18 0 0 1-.06.64c-.07.17-.3.52-.45.78a2.9 2.9 0 0 1-.63-.83 1.24 1.24 0 0 1 .07-.87c.42-.19.69-.46.81-.7z"/><path id="path226-2" data-name="path226" class="cls-2" d="M75.28 25.42V26.24a1.09 1.09 0 0 1 0 .84c-.13.31-.28.49-.34.67a4.5 4.5 0 0 1-.49-.76 1.56 1.56 0 0 1 0-.83c.55-.22.73-.53.83-.74z"/><path id="path228-2" data-name="path228" class="cls-2" d="M77.34 27.48h-.09v.05L77 28V28.82c0 .58.4.95.46 1.31a4.43 4.43 0 0 0 .52-.71 1.65 1.65 0 0 0 .24-1 1.42 1.42 0 0 0-.88-.94z"/><path id="path230-2" data-name="path230" class="cls-2" d="M76 27.39v.99a5.12 5.12 0 0 1-.57 1 5.92 5.92 0 0 1-.34-.85c.3-.17.35-.6.91-1.14z"/><path id="path232-2" data-name="path232" class="cls-2" d="M83.2 13.06h-.73c-.4 0-.73.06-.73.13s.33.13.73.13.73-.19.73-.26z"/><path id="path234-2" data-name="path234" class="cls-2" d="M78.21 10.81V9.47a.43.43 0 0 0-.87 0c0 .31.38 1 .43 1.34z"/><path id="path236-2" data-name="path236" class="cls-2" d="M79.42 11.51V9.72c0-.13-.16-.23-.31-.28a.45.45 0 0 0-.4 0 6.2 6.2 0 0 0-.45 1.88 1.65 1.65 0 0 1 1.16.19z"/><path id="path238-2" data-name="path238" class="cls-2" d="M78.74 11.32h-.29a12.87 12.87 0 0 1 .32-1.61c.1-.32.22-.55.43-.61a7.26 7.26 0 0 0-.2.9 7 7 0 0 0-.26 1.32z"/><path id="path240-2" data-name="path240" class="cls-2" d="M79.09 12.39h.26a1 1 0 0 0-.26 0z"/><path id="path242-2" data-name="path242" class="cls-2" d="M78.74 12.18h.93a1.74 1.74 0 0 1 .61.7 2.36 2.36 0 0 1-1.23-.28 1.53 1.53 0 0 1-.31-.42z"/><path id="path246-2" data-name="path246" class="cls-2" d="M79.44 13.2a.75.75 0 0 0 .41.43.64.64 0 0 0-.36.17.81.81 0 0 0 .41.34 1.75 1.75 0 0 1-1.14.52.87.87 0 0 0 .88.22 1.39 1.39 0 0 0 .9-.6 1.37 1.37 0 0 0 0 .45.72.72 0 0 0 .47-.28 1.57 1.57 0 0 0-.19.49 1 1 0 0 0 .47-.17 1.15 1.15 0 0 0-.07.36 3.55 3.55 0 0 0 1-.54v.31s1.08-.1 1.16-1.68a4.12 4.12 0 0 1-1.44.22 10.57 10.57 0 0 1-2.5-.24zm2 .6a8 8 0 0 0 1.25 0c0-.46-1-.47-1-.47v.47z"/><path id="path248-2" data-name="path248" class="cls-2" d="M83.55 13.34V14.2a1.85 1.85 0 0 0 .53-.59c-.08-.21-.08-.39-.53-.27z"/><path id="path252-2" data-name="path252" class="cls-2" d="M84.45 13.65c-.16.48-.69.64-1 .75a2 2 0 0 0-.54.45 2.76 2.76 0 0 1 .64.21 1.24 1.24 0 0 1 1.51 0 .89.89 0 0 0 .32-1.2h-.41zm-.06.63h.06v.07a.2.2 0 0 1-.19.19.18.18 0 0 1-.17-.19.18.18 0 0 1 .3-.07z"/><path id="path254-2" data-name="path254" class="cls-2" d="M82.72 15h-.05v.05a1.46 1.46 0 0 1 1.4 1s.38-.6.1-1a1.32 1.32 0 0 0-1.45-.05z"/><path id="path256-2" data-name="path256" class="cls-2" d="M81.5 15.22H81a2.36 2.36 0 0 1 0-.31l-.37.07a5.89 5.89 0 0 1-.63 1.27.83.83 0 0 0 .14.45 3.37 3.37 0 0 1 .57-.85 4.22 4.22 0 0 1 .79-.63z"/><path id="path258-2" data-name="path258" class="cls-2" d="M82.45 15.05H81.59a1.11 1.11 0 0 0-.56 1 2.36 2.36 0 0 1 .6-.57 3.33 3.33 0 0 0 .82-.43z"/><path id="path260-2" data-name="path260" class="cls-2" d="M82.44 11.42h-.31a3.6 3.6 0 0 0 .34.76 3.54 3.54 0 0 0 .34-.76c0-.17-.2-.22-.31-.22h-.05z"/><path id="path262-2" data-name="path262" class="cls-2" d="M82.67 12.76V11.78a.65.65 0 0 1 .46-.13.2.2 0 0 1 .17.25 8.81 8.81 0 0 1-.57.92z"/><path id="path264-2" data-name="path264" class="cls-2" d="M82.26 12.76v-.97a.64.64 0 0 0-.46-.13.19.19 0 0 0-.16.25 6.78 6.78 0 0 0 .57.92z"/><path id="polygon266-2" data-name="polygon266" class="cls-2" d="M81.97 10.59h.35v-.4h.3v.4h.36v.25h-.36v.46h-.3v-.46h-.35v-.25z"/><path id="polygon268-2" data-name="polygon268" class="cls-2" d="M77.64 8.23h.37v-.39h.29v.39h.36v.26h-.36v.46h-.29v-.46h-.37v-.26z"/><path id="path270-2" data-name="path270" class="cls-2" d="M86.33 13.15V13a1.66 1.66 0 0 1 0-.5c.26.1.44.16.79.74-.03-.08-.6-.43-.79-.09z"/><path id="path272-2" data-name="path272" class="cls-2" d="M85.83 14.07V13.21a1.83 1.83 0 0 1 .11-1.29 1.73 1.73 0 0 0 .23-1 3 3 0 0 1 .53.23 2.13 2.13 0 0 1-.31 1 1.41 1.41 0 0 0-.07.83 1.66 1.66 0 0 1-.49 1.09z"/><path id="path274-2" data-name="path274" class="cls-2" d="M85.8 11a2.66 2.66 0 0 0-1-.61.58.58 0 0 0-.53.13.61.61 0 0 1 .39.18 2.71 2.71 0 0 0 .75.49.74.74 0 0 0 .39-.19z"/><path id="path276-2" data-name="path276" class="cls-2" d="M84.22 10.37a2.6 2.6 0 0 0 .34.84 1.18 1.18 0 0 1 .27.7.74.74 0 0 1-.23.42s.65-.16.72-.55a1.13 1.13 0 0 0-.19-.81c-.1-.19-.4-.62-.47-.8a.74.74 0 0 1-.44.2z"/><path id="path278-2" data-name="path278" class="cls-2" d="M80.43 14.88V16.08a1.93 1.93 0 0 0-.3 1 1.86 1.86 0 0 1-.71-1.08 1.8 1.8 0 0 1 1.01-1.12z"/><path id="path280-2" data-name="path280" class="cls-2" d="M79.7 15H79a1.66 1.66 0 0 0-.61 1 1.47 1.47 0 0 0 .67-.3 2.59 2.59 0 0 0 .64-.7z"/><path id="path282-2" data-name="path282" class="cls-2" d="M82 15.84h.43a2.21 2.21 0 0 0-.58.26 1.11 1.11 0 0 0-.36.69A4.4 4.4 0 0 1 81 18a2.92 2.92 0 0 0-.21-1.12 2 2 0 0 0 .44-.39 2.27 2.27 0 0 1 .77-.65z"/><path id="path284-2" data-name="path284" class="cls-2" d="M80 16.88v1.18c.14.47.45.67.64 1.07a5.67 5.67 0 0 0 .11-1.27 1.15 1.15 0 0 0-.75-.98z"/><path id="path286-2" data-name="path286" class="cls-2" d="M78.21 18.19v-.1l.06-.09.06-.09v-.32c0-.36-.51-.61-.63-.67-.12.05-.6.31-.63.67s.61 1 .62 1.29z"/><path id="path288-2" data-name="path288" class="cls-2" d="M79.18 16.89v.7a.84.84 0 0 0 .14.75 5.17 5.17 0 0 1 .64.84 1.92 1.92 0 0 0 .31-.55 2.4 2.4 0 0 0-.08-.83c-.58.33-.81-.29-1.01-.91z"/><path id="path290-2" data-name="path290" class="cls-2" d="M78.21 20.22a.6.6 0 0 0-.07-.55 1.55 1.55 0 0 1-.37-.62 1.38 1.38 0 0 1-.37.62.57.57 0 0 0-.06.55 1.87 1.87 0 0 0 .44.59z"/><path id="path292-2" data-name="path292" class="cls-2" d="M79 19.64l.06.07.05.07v.07a.87.87 0 0 1 0 .76 2.71 2.71 0 0 1-.85.78 2 2 0 0 0 .31-1 3.07 3.07 0 0 0-.28-.72 1.22 1.22 0 0 1 .71-.03z"/><path id="path294-2" data-name="path294" class="cls-2" d="M80 19.29h-.07v.37a1.92 1.92 0 0 0 .17.84 9.56 9.56 0 0 0 .37 1.5 4.92 4.92 0 0 0 .37-.66 6.46 6.46 0 0 1-.55-.89 6.13 6.13 0 0 1-.29-1.16z"/><path id="path296-2" data-name="path296" class="cls-2" d="M80.14 19.08V20.65l.05.09.05.1.06.09.06.08.06.09.07.09c.49.61.88.83 1.14.83a1.08 1.08 0 0 0 .93-.71 1.22 1.22 0 0 0-.16-1.17s-.24.73-.75.76-.78-.58-1.51-1.82z"/><path id="path298-2" data-name="path298" class="cls-2" d="M80.73 18.57v.88a1.21 1.21 0 0 0 .49.73.71.71 0 0 0 1-.36 1.59 1.59 0 0 1-1.49-1.25z"/><path id="path300-2" data-name="path300" class="cls-2" d="M78.2 22.21h.34a1.26 1.26 0 0 0 .19-.84 2.76 2.76 0 0 0-.38-.67 1.14 1.14 0 0 1-.25.21 1.68 1.68 0 0 1-.1-.61 2.54 2.54 0 0 0-.37.67 1.22 1.22 0 0 0 .19.84.84.84 0 0 0 .38.4z"/><path id="path302-2" data-name="path302" class="cls-2" d="M78.2 24.26v-.14l.06-.09.07-.09.06-.09V23c-.1-.52-.43-.41-.68-.62-.25.21-.59.1-.68.62.43.31 1.1.94 1.17 1.26z"/><path id="path304-2" data-name="path304" class="cls-2" d="M79 23.51l-.05.07-.06.07-.05.07-.06.07-.05.07v.21a3.85 3.85 0 0 0 .42 1.48 2.16 2.16 0 0 0 .72-1 1.94 1.94 0 0 0-.87-1.04z"/><path id="path306-2" data-name="path306" class="cls-2" d="M79.7 24V23.39a1.34 1.34 0 0 1 .73-1.57 3.45 3.45 0 0 1 .56 1.13c-.44.27-.99.6-1.29 1.05z"/><path id="path308-2" data-name="path308" class="cls-2" d="M81 21.58h.16a3.23 3.23 0 0 1 0 .72 6 6 0 0 1-.45 1.2 3 3 0 0 1-.52-1 7.45 7.45 0 0 1-.07-.82s.77.19.88-.1z"/><path id="path310-2" data-name="path310" class="cls-2" d="M82.25 23.67v-1.08a1.19 1.19 0 0 1-1 .07 3.67 3.67 0 0 0 0 .93 1 1 0 0 0 1 .08z"/><path id="path312-2" data-name="path312" class="cls-2" d="M82.14 23.82h-.25s-.34.64-.4.83a.48.48 0 0 0 .36-.1 2.23 2.23 0 0 0 .29-.73z"/><path id="path314-2" data-name="path314" class="cls-2" d="M80.52 23.44l.06.08.06.09h.06a2.63 2.63 0 0 1-.25.69 3.1 3.1 0 0 1-.66.84s-.34-.61-.45-.87a1.05 1.05 0 0 1-.05-.73c.64.62 1.04.23 1.23-.1z"/><path id="path316-2" data-name="path316" class="cls-2" d="M78.21 28.08v-.62a.9.9 0 0 0 0-.66c-.1-.2-.46-.71-.51-.85 0 .14-.4.65-.51.85a.87.87 0 0 0 0 .66c.13.37.46.63.51.84z"/><path id="path318-2" data-name="path318" class="cls-2" d="M79.67 25.49v.79a1.26 1.26 0 0 0 .06.64c.07.17.3.52.45.78a2.9 2.9 0 0 0 .63-.83 1.24 1.24 0 0 0-.07-.87c-.68 0-.95-.27-1.07-.51z"/><path id="path320-2" data-name="path320" class="cls-2" d="M81.13 25.42V26.24a1.09 1.09 0 0 0 0 .84c.13.31.28.49.34.67a4.12 4.12 0 0 0 .49-.76 1.42 1.42 0 0 0 0-.83 7.88 7.88 0 0 0-.83-.74z"/><path id="path322-2" data-name="path322" class="cls-2" d="M78.2 32.22V30.37a2.62 2.62 0 0 0-.59-1.37 2.74 2.74 0 0 0-.59 1.37 8.07 8.07 0 0 0 1.18 1.85z"/><path id="path324-2" data-name="path324" class="cls-2" d="M79.08 27.48h.08V28.4c0 .58-.4.95-.46 1.31a4.57 4.57 0 0 1-.52-.71 1.54 1.54 0 0 1-.24-1 1.36 1.36 0 0 1 1.14-.52z"/><path id="path326-2" data-name="path326" class="cls-2" d="M80.4 27.39v.99a4.75 4.75 0 0 0 .56 1 6.64 6.64 0 0 0 .35-.85c-.31-.17-.31-.6-.91-1.14z"/><path id="path328-2" data-name="path328" class="cls-2" d="M78.7 33.61v-1.33a1.46 1.46 0 0 0-.25-1.2 11.42 11.42 0 0 1-.71 1.85 10.72 10.72 0 0 1-.27-1.93 1.48 1.48 0 0 0-.25 1.2 5.79 5.79 0 0 1 .49 1.43c0 .68-.72.93-.72.93.26.09.55.13 1-.31a.92.92 0 0 0 .21-.25 1.33 1.33 0 0 0 .19.26c.47.44.76.4 1 .31.03-.02-.73-.28-.69-.96z"/><path id="path330-2" data-name="path330" class="cls-2" d="M76.3 29.12v.78c.06.27 0 .6-.51.94a1.49 1.49 0 0 1-.44-.52.52.52 0 0 1 .07-.6 5.37 5.37 0 0 0 .88-.6z"/><path id="path332-2" data-name="path332" class="cls-2" d="M77.33 30.13v1.06c-.31.53-.75.93-1.15.93s-.43-.22-.62-.31a.79.79 0 0 1 .5-.58 3.34 3.34 0 0 0 1.27-1.1z"/><path id="path334-2" data-name="path334" class="cls-2" d="M76 31.1h-.2a4 4 0 0 0-.71.36 4.89 4.89 0 0 0-.79.77A1.46 1.46 0 0 0 75 32a1.18 1.18 0 0 1 .45-.66c.12-.06.35-.13.55-.24z"/><path id="path336-2" data-name="path336" class="cls-2" d="M75.62 30.71h-.08v-.41s-.67.43-.87.58a5.92 5.92 0 0 0-.72.74s.51-.11.9-.24a4.32 4.32 0 0 0 .77-.67z"/><path id="path338-2" data-name="path338" class="cls-2" d="M74.48 31.43H73a1.87 1.87 0 0 0-.91.63s.49.13.76.22a4.69 4.69 0 0 1 .89-.46c.26.25.42-.07.74-.39z"/><path id="path340-2" data-name="path340" class="cls-2" d="M73.73 33.83h.07c-.05-.14-.35-.31-.53-.39s-1.1-.36-1.36-.44a1.38 1.38 0 0 0-.2.32c0 .07 0 .13.12.14s.77-.06.9 0 .09.22.09.34a.72.72 0 0 1 .4-.11c.26-.31.39-.21.51.14z"/><path id="path342-2" data-name="path342" class="cls-2" d="M73 32.71H73.65a.43.43 0 0 0 .2-.18c.07-.12.34-.53.6-.58a1.67 1.67 0 0 1-.34-.06 3.94 3.94 0 0 0-.45.15 3.3 3.3 0 0 0-.66.67z"/><path id="path344-2" data-name="path344" class="cls-2" d="M75.1 32.19h-.32s-.71.49-.79 1a.6.6 0 0 0 .25.68c.11.06.61.25.93-.4 0 0-.55.18-.7-.08a.71.71 0 0 1 .25-.76 1.14 1.14 0 0 1 .77-.21 2 2 0 0 0-.39-.23z"/><path id="path346-2" data-name="path346" class="cls-2" d="M70.44 37.84V36.74c.32-.68 1.11-2.5 2.76-2.81.15 0-.18-.42-.33-.4a2 2 0 0 0-.57.29v-.46c0-.07-.06-.1-.13-.1s-.46 0-.58.15a11.45 11.45 0 0 0-1.37 2.47c-.36.87-.61 1.14-1 1s-.6-.57-1.26-.43a1.34 1.34 0 0 0-.68.43.41.41 0 0 0 .43.24 2.59 2.59 0 0 1 1.23.35 2.24 2.24 0 0 0 1.5.37z"/><path id="path348-2" data-name="path348" class="cls-2" d="M77 32.22V32.93s-.49 2.31-2.31 2.48a1.22 1.22 0 0 1 .57-.84c.54-.37 1.34-.93 1.29-1.79 0 0-.15 0-.4.35s-.82 1.26-1.69 1.26a1.34 1.34 0 0 1 .52-.69 3.51 3.51 0 0 0 1.1-1 1.53 1.53 0 0 1 .92-.48z"/><path id="path350-2" data-name="path350" class="cls-2" d="M76.14 40.63l1.11 1.55.84-1.49-.3-.54-.58 1.05c-.1-.15-.37-.54-.74-1.05z"/><path id="polygon352-2" data-name="polygon352" class="cls-2" d="M75.87 39.32l-.2-.28-.22-.29-.2-.29-.21-.3-.21-.29-.2-.28-.1-.14-.1-.13-.1-.13-.08-.13-.09-.13-.09-.12-.08-.12-.08-.11-.08-.1-.07-.1-.07-.1-.06-.08-.06-.08-.05-.08-.05-.06-.03-.06-.04-.05-.03-.04-.02-.03-.02-.03.42-.29-1.31-.51.02 1.43.45-.32 2.64 3.72.32-.48z"/><path id="path354-2" data-name="path354" class="cls-2" d="M66.81 30.89H67.85c.55.51.9 1 .58 1.39s-.88 0-1.43-.46-.51-.58-.19-.93z"/><path id="path356-2" data-name="path356" class="cls-2" d="M67.71 37.16h-.05a1.46 1.46 0 0 1-.47-1.16 1.51 1.51 0 1 1 3 0v.29l.37-.81a1.93 1.93 0 0 0-3.56-.3 3.35 3.35 0 0 1 .77-1.7 2 2 0 0 1 .87-.4 1.87 1.87 0 0 1-1.37-.65 2 2 0 0 1-.78-1.2 2.57 2.57 0 0 1-.11 1.14 4.94 4.94 0 0 0-.53 2.63 4.46 4.46 0 0 0 1.27 2.23 1.13 1.13 0 0 1 .23.54h1.34s.25 0 .24-.19-.14-.19-.26-.19a1.83 1.83 0 0 1-.96-.23z"/><path id="path358-2" data-name="path358" class="cls-2" d="M73.67 37.53H71.61a6.38 6.38 0 0 1-1.24.07.37.37 0 0 1 0 .22.35.35 0 0 1 .07.2 6.62 6.62 0 0 0 1.26-.08 11.09 11.09 0 0 0 2.23-.54z"/><path id="path360-2" data-name="path360" class="cls-2" d="M74.81 37.48l.17-.1.17-.1.17-.11.17-.12.16-.13.17-.13.16-.14.17-.15.16-.16.16-.17.16-.17.16-.19.16-.2.16-.2.15-.22.08-.11.07-.12.14-.24a.91.91 0 0 1-.5 0l-.07.1a6.83 6.83 0 0 1-2.44 2.29z"/><path id="path362-2" data-name="path362" class="cls-2" d="M68.74 37.87H68c-.27 0-.57.1-.61.24s.07.29.2.5.28.06.39 0a4.76 4.76 0 0 0 .84-.49c.07-.06.11-.22-.08-.25z"/><path id="path364-2" data-name="path364" class="cls-2" d="M69.37 38.28H69c-.17.07-.78.43-.83.6a.23.23 0 0 0 .14.3 1.19 1.19 0 0 0 .3.08A.5.5 0 0 0 69 39c.07-.1.36-.44.4-.52s.04-.16-.03-.2z"/><path id="path366-2" data-name="path366" class="cls-2" d="M69.45 38.66H69.21a.08.08 0 0 0 .09.11 1.89 1.89 0 0 0 .75-.22c.24-.16.4-.48.24-.6s-.56.4-.84.71z"/><path id="path368-2" data-name="path368" class="cls-2" d="M69.58 37.74h-.46c-.09.13 0 .27.22.39s.71.22.8.09-.03-.34-.56-.48z"/><path id="path370-2" data-name="path370" class="cls-2" d="M80.11 29.12v.78c-.05.27 0 .6.51.94a1.4 1.4 0 0 0 .44-.52.53.53 0 0 0-.07-.6 5.44 5.44 0 0 1-.88-.6z"/><path id="path372-2" data-name="path372" class="cls-2" d="M79.08 30.13v1.07c.31.53.75.93 1.15.93s.44-.22.61-.31a.79.79 0 0 0-.5-.58 3.34 3.34 0 0 1-1.26-1.11z"/><path id="path374-2" data-name="path374" class="cls-2" d="M80.39 31.1h.19a3.77 3.77 0 0 1 .71.36 5.29 5.29 0 0 1 .8.77 1.48 1.48 0 0 1-.78 0 1.18 1.18 0 0 0-.45-.66c-.01-.29-.25-.36-.47-.47z"/><path id="path376-2" data-name="path376" class="cls-2" d="M80.79 30.71h.08v-.41s.67.43.87.58a5.82 5.82 0 0 1 .71.74s-.51-.11-.9-.24a4.42 4.42 0 0 1-.76-.67z"/><path id="path378-2" data-name="path378" class="cls-2" d="M81.93 31.43h1.49a1.94 1.94 0 0 1 .91.63s-.5.13-.76.22a4.61 4.61 0 0 0-.9-.46c-.28.25-.42-.07-.74-.39z"/><path id="path380-2" data-name="path380" class="cls-2" d="M82.68 33.83h-.07a1.23 1.23 0 0 1 .53-.39c.3-.14 1.11-.36 1.37-.44a1.76 1.76 0 0 1 .2.32c0 .07 0 .13-.13.14s-.77-.06-.9 0-.1.22-.1.34a.72.72 0 0 0-.4-.11c-.25-.31-.37-.21-.5.14z"/><path id="path382-2" data-name="path382" class="cls-2" d="M83.41 32.71H82.75a.43.43 0 0 1-.2-.18c-.07-.12-.34-.53-.59-.58a1.63 1.63 0 0 0 .34-.06 3.46 3.46 0 0 1 .45.15 3.53 3.53 0 0 1 .66.67z"/><path id="path384-2" data-name="path384" class="cls-2" d="M81.32 32.19h.31s.72.49.8 1a.6.6 0 0 1-.26.68c-.1.06-.6.25-.93-.4 0 0 .55.18.7-.08a.69.69 0 0 0-.25-.76 1.12 1.12 0 0 0-.76-.21 1.8 1.8 0 0 1 .39-.23z"/><path id="path386-2" data-name="path386" class="cls-2" d="M86 37.84V36.74c-.31-.68-1.11-2.5-2.75-2.81-.16 0 .17-.42.32-.4a2.09 2.09 0 0 1 .58.29v-.46a.12.12 0 0 1 .13-.1c.07 0 .46 0 .59.15a11.46 11.46 0 0 1 1.36 2.47c.37.87.61 1.14 1 1s.6-.57 1.26-.43a1.28 1.28 0 0 1 .68.43c-.05.1-.12.24-.43.24a2.61 2.61 0 0 0-1.23.35 2.24 2.24 0 0 1-1.51.37z"/><path id="path388-2" data-name="path388" class="cls-2" d="M79.42 32.22V32.83l-.06.1s.5 2.31 2.32 2.48a1.21 1.21 0 0 0-.58-.84c-.54-.37-1.34-.93-1.28-1.79 0 0 .13 0 .4.35s.82 1.26 1.7 1.26a1.34 1.34 0 0 0-.52-.69 3.43 3.43 0 0 1-1.1-1 1.58 1.58 0 0 0-.88-.48z"/><path id="path390-2" data-name="path390" class="cls-2" d="M78.21 34.46v.53l.08.11.08.12.08.11v.26c.29.28 1 1 1.42 1.37a4.79 4.79 0 0 1-.87-.42 2 2 0 0 1-.76.25 2 2 0 0 1-.77-.25 4.73 4.73 0 0 1-1.73.84c.39-.37 1.12-1.1 1.42-1.37a6.66 6.66 0 0 0 1.09-1.55z"/><path id="path392-2" data-name="path392" class="cls-2" d="M78.21 37h.61a2.86 2.86 0 0 1-.61.88 2.76 2.76 0 0 1-.62-.88 1.55 1.55 0 0 0 .61.16z"/><path id="path394-2" data-name="path394" class="cls-2" d="M79.16 42.18l4.35-6.1.44.32L84 35l-1.32.5.41.3c-.21.31-3.46 4.86-3.87 5.43l-2-3.57L77 38l-1.75 2.65-.44-.29v1.4l1.33-.52-.45-.31c.25-.36 1.19-1.79 1.51-2.27z"/><path id="path396-2" data-name="path396" class="cls-2" d="M80 39.78l-.11-.16-.06-.08-.05-.08-.05-.07-.05-.08-.05-.07v-.07l-.05-.07V38.98c-.1.2-.33.6-.58 1l-.31-.55.85-1.52.24.37.87 1.32z"/><path id="path398-2" data-name="path398" class="cls-2" d="M80.86 40.17l.31.48.44-.29v1.4l-1.33-.52.44-.31-.2-.31z"/><path id="path400-2" data-name="path400" class="cls-2" d="M89.61 30.89H88.4c-.56.51-.9 1-.58 1.39s.87 0 1.43-.46.68-.58.36-.93z"/><path id="path402-2" data-name="path402" class="cls-2" d="M88.7 37.16h.06a1.45 1.45 0 0 0 .46-1.16 1.51 1.51 0 1 0-3 0v.29s-.31-.7-.37-.81a1.93 1.93 0 0 1 3.59-.33 3.35 3.35 0 0 0-.77-1.7 2 2 0 0 0-.87-.4 1.86 1.86 0 0 0 1.36-.65 2 2 0 0 0 .78-1.2 2.55 2.55 0 0 0 .12 1.14 5 5 0 0 1 .51 2.66 4.52 4.52 0 0 1-1.27 2.23 1 1 0 0 0-.23.54h-1.33s-.26 0-.25-.19.15-.19.27-.19a1.81 1.81 0 0 0 .94-.23z"/><path id="path404-2" data-name="path404" class="cls-2" d="M81.6 37.48l-.17-.1-.17-.1-.17-.11-.16-.17-.17-.13-.17-.13-.16-.14-.16-.15-.16-.16-.16-.17-.19-.12-.16-.19-.16-.2-.16-.2-.16-.22-.07-.11L79 35l-.14-.24a.91.91 0 0 0 .5 0 .75.75 0 0 1 .07.1 6.93 6.93 0 0 0 2.45 2.28z"/><path id="path406-2" data-name="path406" class="cls-2" d="M82.74 37.53H84.8a6.45 6.45 0 0 0 1.24.07.54.54 0 0 0 0 .22.38.38 0 0 0-.07.2 6.74 6.74 0 0 1-1.27-.08 11.27 11.27 0 0 1-2.23-.54z"/><path id="path408-2" data-name="path408" class="cls-2" d="M87.67 37.87h.78c.26 0 .56.1.6.24s-.07.29-.2.5-.28.06-.39 0a5.08 5.08 0 0 1-.84-.49c-.1-.06-.14-.22.05-.25z"/><path id="path410-2" data-name="path410" class="cls-2" d="M87 38.28h.39c.17.07.78.43.83.6a.24.24 0 0 1-.13.3 1.34 1.34 0 0 1-.31.08.47.47 0 0 1-.37-.18 5.53 5.53 0 0 1-.4-.52c-.01-.12-.01-.24-.01-.28z"/><path id="path412-2" data-name="path412" class="cls-2" d="M87 38.66h.23a.09.09 0 0 1-.1.11 1.83 1.83 0 0 1-.63.23c-.25-.16-.4-.48-.24-.6s.42-.05.74.26z"/><path id="path414-2" data-name="path414" class="cls-2" d="M86.83 37.74h.47c.08.13 0 .27-.22.39s-.72.22-.81.09.03-.34.56-.48z"/></g></g></g></g></svg>