<svg xmlns="http://www.w3.org/2000/svg" viewBox="0 0 38 47"><title>ps</title><path d="M38,13.8291V44a3.0033,3.0033,0,0,1-3,3H3a3.0033,3.0033,0,0,1-3-3V3A3.0033,3.0033,0,0,1,3,0H24.17A2.9815,2.9815,0,0,1,26.291.8789l10.83,10.8291A2.9815,2.9815,0,0,1,38,13.8291ZM25.999,11.001a1.0007,1.0007,0,0,0,1,1h7.5868L25.999,3.415ZM36,44V14.001H26.999a3.0033,3.0033,0,0,1-3-3V2H3A1.0007,1.0007,0,0,0,2,3V44a1.0007,1.0007,0,0,0,1,1H35A1.0007,1.0007,0,0,0,36,44Z" style="fill:#fa325a"/><path d="M19.9078,26.2275a5.5,5.5,0,0,1-.3652,2.0732,3.9863,3.9863,0,0,1-1.0635,1.52,4.6919,4.6919,0,0,1-1.7129.94,7.9338,7.9338,0,0,1-2.3906.3223h-1.16V35.52a.2987.2987,0,0,1-.07.1934.4849.4849,0,0,1-.23.14,2.2338,2.2338,0,0,1-.43.0859,5.9676,5.9676,0,0,1-.6875.0322,5.9746,5.9746,0,0,1-.6816-.0322,2.2286,2.2286,0,0,1-.4355-.0859.4528.4528,0,0,1-.2256-.14A.3156.3156,0,0,1,10.39,35.52V23.0156a1.0071,1.0071,0,0,1,.2627-.7578.9624.9624,0,0,1,.6934-.252h3.2764q.4937,0,.94.0371a9.8518,9.8518,0,0,1,1.0684.1621,4.7181,4.7181,0,0,1,1.2617.4561,3.7454,3.7454,0,0,1,1.0908.8428,3.5182,3.5182,0,0,1,.6875,1.1934A4.6607,4.6607,0,0,1,19.9078,26.2275Zm-2.9541.2041a2.4957,2.4957,0,0,0-.2578-1.2031,1.7755,1.7755,0,0,0-.6338-.6982,2.0939,2.0939,0,0,0-.79-.2842,5.9244,5.9244,0,0,0-.8535-.06H13.2155v4.7158H14.483a3.0547,3.0547,0,0,0,1.1328-.1826,1.9388,1.9388,0,0,0,.7471-.5107,2.21,2.21,0,0,0,.44-.7832A3.1527,3.1527,0,0,0,16.9537,26.4316Z" style="fill:#fa325a"/><path d="M28.4479,32.834a3.2117,3.2117,0,0,1-.3066,1.4395,2.86,2.86,0,0,1-.8643,1.042,3.8725,3.8725,0,0,1-1.3213.6279,6.5854,6.5854,0,0,1-2.68.1289,6.1213,6.1213,0,0,1-.876-.2031,4.6556,4.6556,0,0,1-.6445-.2529,1.6279,1.6279,0,0,1-.376-.2412.75.75,0,0,1-.1826-.3555,2.9534,2.9534,0,0,1-.0645-.7139,4.5018,4.5018,0,0,1,.0215-.499,1.29,1.29,0,0,1,.0645-.3008.2742.2742,0,0,1,.1074-.15.3124.3124,0,0,1,.1611-.0381.8089.8089,0,0,1,.35.1338q.23.1348.5742.2959a6.0621,6.0621,0,0,0,.8008.3008,3.547,3.547,0,0,0,1.0361.14,2.5628,2.5628,0,0,0,.6494-.0752,1.62,1.62,0,0,0,.4941-.2148.8982.8982,0,0,0,.3174-.3545,1.0949,1.0949,0,0,0,.1074-.4941.82.82,0,0,0-.1982-.5527,1.76,1.76,0,0,0-.5273-.4033,6.1091,6.1091,0,0,0-.74-.3223c-.2764-.1006-.5586-.2109-.85-.333a7.9382,7.9382,0,0,1-.8477-.4189,3.2177,3.2177,0,0,1-.7422-.58,2.6388,2.6388,0,0,1-.5254-.8271,3.04,3.04,0,0,1-.1992-1.16,2.9469,2.9469,0,0,1,.2686-1.2617,2.7371,2.7371,0,0,1,.7734-.9834,3.668,3.668,0,0,1,1.2295-.6338,5.4756,5.4756,0,0,1,1.6279-.2256,5.8331,5.8331,0,0,1,.876.0645,6.4287,6.4287,0,0,1,.7676.1611,3.7455,3.7455,0,0,1,.58.209,2.0234,2.0234,0,0,1,.3379.1934.532.532,0,0,1,.1455.1621.68.68,0,0,1,.0645.1934c.0146.0742.0264.168.0381.2793.01.11.0156.248.0156.4131,0,.1934-.0059.3506-.0156.4727a1.2571,1.2571,0,0,1-.0547.29.2516.2516,0,0,1-.1016.1445.2893.2893,0,0,1-.15.0381.7435.7435,0,0,1-.3008-.1123,5.2478,5.2478,0,0,0-.51-.2422,6.34,6.34,0,0,0-.709-.2422,3.4617,3.4617,0,0,0-.9189-.1123,2.38,2.38,0,0,0-.6338.0752,1.2053,1.2053,0,0,0-.44.2148.9043.9043,0,0,0-.2578.3281.9481.9481,0,0,0-.0859.4023.8038.8038,0,0,0,.2041.5586,1.8663,1.8663,0,0,0,.5371.3975,6.16,6.16,0,0,0,.7578.3223q.4233.1509.8594.3271a8.2366,8.2366,0,0,1,.8594.4141,3.2356,3.2356,0,0,1,.7568.58,2.677,2.677,0,0,1,.5371.8223A2.8766,2.8766,0,0,1,28.4479,32.834Z" style="fill:#fa325a"/></svg>
