<!-- Generator: Adobe Illustrator 20.1.0, SVG Export Plug-In  -->
<svg version="1.1"
	 xmlns="http://www.w3.org/2000/svg" xmlns:xlink="http://www.w3.org/1999/xlink" xmlns:a="http://ns.adobe.com/AdobeSVGViewerExtensions/3.0/"
	 x="0px" y="0px" width="48px" height="36px" viewBox="0 0 48 36" style="enable-background:new 0 0 48 36;" xml:space="preserve">
<style type="text/css">
	.st0{fill:#FA325A;}
</style>
<defs>
</defs>
<g id="quote-mark_1_">
	<path class="st0" d="M0,8.8C0,6.1,0.9,4,2.7,2.4C4.5,0.8,6.8,0,9.7,0c3.5,0,6.3,1.1,8.5,3.2c2.1,2.1,3.2,5.2,3.2,9.3
		c0,3.9-0.6,7.2-1.8,10c-1.2,2.8-2.7,5.1-4.4,7c-1.7,1.9-3.5,3.3-5.3,4.4C8,34.8,6.4,35.6,5.1,36l-4.6-6.8C3.1,28,5.3,26.4,7,24.5
		c1.7-1.9,2.5-4.3,2.4-7.2c-2.9,0.6-5.1,0-6.8-1.7C0.8,13.9,0,11.7,0,8.8z M26.6,8.8c0-2.7,0.9-4.8,2.7-6.4c1.8-1.6,4.1-2.4,7-2.4
		c3.5,0,6.3,1.1,8.5,3.2c2.1,2.1,3.2,5.2,3.2,9.3c0,3.9-0.6,7.2-1.8,10c-1.2,2.8-2.7,5.1-4.4,7c-1.7,1.9-3.5,3.3-5.3,4.4
		c-1.9,1.1-3.5,1.8-4.8,2.2l-4.6-6.8c2.6-1.2,4.8-2.8,6.5-4.7c1.7-1.9,2.5-4.3,2.4-7.2c-2.9,0.6-5.1,0-6.8-1.7
		C27.5,13.9,26.6,11.7,26.6,8.8z"/>
</g>
</svg>