<svg xmlns="http://www.w3.org/2000/svg" viewBox="0 0 38 47"><title>rtf</title><path d="M38,13.8291V44a3.0033,3.0033,0,0,1-3,3H3a3.0033,3.0033,0,0,1-3-3V3A3.0033,3.0033,0,0,1,3,0H24.17A2.9815,2.9815,0,0,1,26.291.8789l10.83,10.8291A2.9815,2.9815,0,0,1,38,13.8291ZM25.999,11.001a1.0007,1.0007,0,0,0,1,1h7.5868L25.999,3.415ZM36,44V14.001H26.999a3.0033,3.0033,0,0,1-3-3V2H3A1.0007,1.0007,0,0,0,2,3V44a1.0007,1.0007,0,0,0,1,1H35A1.0007,1.0007,0,0,0,36,44Z" style="fill:#fa325a"/><path d="M15.9742,33.6738a.2679.2679,0,0,1-.0273.127.2221.2221,0,0,1-.13.085,1.2924,1.2924,0,0,1-.3008.0479c-.1318.0088-.3125.0137-.54.0137-.1914,0-.3437-.0049-.458-.0137a1.017,1.017,0,0,1-.27-.0508.3.3,0,0,1-.1406-.0957.5545.5545,0,0,1-.0684-.1406l-.793-1.9756q-.1436-.3354-.28-.5947a1.8785,1.8785,0,0,0-.3037-.4336,1.1136,1.1136,0,0,0-.3867-.2637A1.3291,1.3291,0,0,0,11.77,30.29H11.21v3.37a.1859.1859,0,0,1-.0449.123.3083.3083,0,0,1-.1465.0889,1.4545,1.4545,0,0,1-.2734.0547,4.6353,4.6353,0,0,1-.8711,0,1.4555,1.4555,0,0,1-.2773-.0547.2882.2882,0,0,1-.1436-.0889.1986.1986,0,0,1-.041-.123V25.6279a.5528.5528,0,0,1,.1533-.4346.5665.5665,0,0,1,.38-.1328h2.29q.3486,0,.5742.0137c.15.0088.2871.0205.41.0342a3.7207,3.7207,0,0,1,.9609.26,2.3369,2.3369,0,0,1,.7246.4814,2.0235,2.0235,0,0,1,.4541.7051,2.5785,2.5785,0,0,1,.1572.9326,2.7036,2.7036,0,0,1-.1133.81,2.0612,2.0612,0,0,1-.3311.6533,2.187,2.187,0,0,1-.54.499,2.9179,2.9179,0,0,1-.7314.3418,2.0116,2.0116,0,0,1,.3721.2324,1.8562,1.8562,0,0,1,.3281.332,3.0289,3.0289,0,0,1,.291.4434,5.9281,5.9281,0,0,1,.2666.5645l.7451,1.7432c.0684.1729.1143.3.1367.38A.7376.7376,0,0,1,15.9742,33.6738Zm-2.3174-6.002a1.3137,1.3137,0,0,0-.1982-.7383,1.0784,1.0784,0,0,0-.6494-.4238,2.5663,2.5663,0,0,0-.3105-.0547,4.39,4.39,0,0,0-.4824-.0205H11.21v2.5088h.916a2.2263,2.2263,0,0,0,.67-.0918,1.3611,1.3611,0,0,0,.4785-.26,1.06,1.06,0,0,0,.2871-.4A1.36,1.36,0,0,0,13.6569,27.6719Z" style="fill:#fa325a"/><path d="M23.0426,25.7988a2.7613,2.7613,0,0,1-.0176.3379.9226.9226,0,0,1-.0508.2266.29.29,0,0,1-.0859.126.1733.1733,0,0,1-.1123.041H20.5612v7.13a.19.19,0,0,1-.0439.123.3171.3171,0,0,1-.1475.0889,1.4756,1.4756,0,0,1-.2764.0547,4.6146,4.6146,0,0,1-.8691,0,1.4756,1.4756,0,0,1-.2764-.0547.3171.3171,0,0,1-.1475-.0889.19.19,0,0,1-.0439-.123V26.53H16.5416a.1725.1725,0,0,1-.1162-.041.3134.3134,0,0,1-.082-.126.9226.9226,0,0,1-.0508-.2266,2.7613,2.7613,0,0,1-.0176-.3379,2.93,2.93,0,0,1,.0176-.3486.9285.9285,0,0,1,.0508-.2295.2881.2881,0,0,1,.082-.123.1859.1859,0,0,1,.1162-.0371H22.776a.1867.1867,0,0,1,.1123.0371.2685.2685,0,0,1,.0859.123.9285.9285,0,0,1,.0508.2295A2.93,2.93,0,0,1,23.0426,25.7988Z" style="fill:#fa325a"/><path d="M29.0514,25.7988a3.0977,3.0977,0,0,1-.0166.3457.8043.8043,0,0,1-.0547.2217.3542.3542,0,0,1-.0859.123.1639.1639,0,0,1-.1094.041H25.8932v2.3789h2.7139a.1864.1864,0,0,1,.1094.0342.2835.2835,0,0,1,.0859.1162.7989.7989,0,0,1,.0547.2188,3.5268,3.5268,0,0,1,0,.6836.9083.9083,0,0,1-.0547.2256.3159.3159,0,0,1-.0859.127.1763.1763,0,0,1-.1094.0371H25.8932v3.2949a.21.21,0,0,1-.041.13.312.312,0,0,1-.1475.0928,1.3511,1.3511,0,0,1-.2764.0576,3.804,3.804,0,0,1-.4375.0205,3.8435,3.8435,0,0,1-.4346-.0205,1.3089,1.3089,0,0,1-.2764-.0576.3456.3456,0,0,1-.1475-.0928.201.201,0,0,1-.0439-.13V25.6279a.5528.5528,0,0,1,.1533-.4346.5665.5665,0,0,1,.38-.1328h4.1631a.1763.1763,0,0,1,.1094.0371.32.32,0,0,1,.0859.123.87.87,0,0,1,.0547.2295A3.18,3.18,0,0,1,29.0514,25.7988Z" style="fill:#fa325a"/></svg>
