<svg id="svg2" xmlns="http://www.w3.org/2000/svg" viewBox="0 0 360 120"><style>.st0{fill:#ffcb08}</style><path id="path3042" class="st0" d="M87.7 5.5C57.7 5.5 33 30.2 33 60.3S57.7 115 87.7 115c16.6 0 31.6-7.5 41.6-19.2 4.4-4.9 4.1-12.4-.7-16.8-4.9-4.4-12.4-4.1-16.8.7-.2.2-.4.4-.5.6-5.7 6.7-14 10.8-23.5 10.8-17.2 0-30.9-13.7-30.9-30.9s13.7-30.9 30.9-30.9c9.1 0 17.1 3.9 22.8 10.1 4.4 4.9 11.9 5.4 16.8 1s5.4-11.9 1-16.8c-.1-.1-.1-.2-.2-.2-10.1-11-24.5-17.9-40.5-17.9zm60.5-.2c-6.1-.1-11.2 4.8-11.3 11-.1 6.1 4.8 11.2 11 11.3H169v74.3c-.1 6.8 5.3 12.4 12.1 12.5 6.8.1 12.4-5.3 12.5-12.1V27.6h20.8c6.1.1 11.2-4.8 11.3-11s-4.8-11.2-11-11.3h-66.5zm130.1-.1c-30.1 0-54.7 24.6-54.7 54.7s24.6 54.7 54.7 54.7c16.6 0 31.6-7.5 41.6-19.2 4.4-4.9 4-12.4-.8-16.8s-12.4-4-16.8.8c-.2.2-.3.3-.4.5-5.7 6.7-14 10.8-23.5 10.8-17.2 0-30.9-13.7-30.9-30.9S261.1 29 278.3 29c9.1 0 17.1 3.9 22.8 10.1 4.4 4.9 12 5.2 16.9.8s5.2-12 .8-16.9c-10.1-10.9-24.6-17.8-40.5-17.8z"/></svg>