<?xml version="1.0" encoding="utf-8"?>
<!-- Generator: Adobe Illustrator 20.0.0, SVG Export Plug-In . SVG Version: 6.00 Build 0)  -->
<svg version="1.1"
	 id="svg2" xmlns:cc="http://creativecommons.org/ns#" xmlns:dc="http://purl.org/dc/elements/1.1/" xmlns:rdf="http://www.w3.org/1999/02/22-rdf-syntax-ns#" xmlns:svg="http://www.w3.org/2000/svg"
	 xmlns="http://www.w3.org/2000/svg" xmlns:xlink="http://www.w3.org/1999/xlink" x="0px" y="0px" viewBox="0 0 360 120"
	 style="enable-background:new 0 0 360 120;" xml:space="preserve">
<style type="text/css">
	.st0{fill:#FFCB08;}
</style>
<desc  id="desc4">Created with graphing.ru and Raphael</desc>
<path id="path3042" class="st0" d="M87.7,5.5C57.7,5.5,33,30.2,33,60.3S57.7,115,87.7,115c16.6,0,31.6-7.5,41.6-19.2
	c4.4-4.9,4.1-12.4-0.7-16.8c-4.9-4.4-12.4-4.1-16.8,0.7c-0.2,0.2-0.4,0.4-0.5,0.6c-5.7,6.7-14,10.8-23.5,10.8
	c-17.2,0-30.9-13.7-30.9-30.9s13.7-30.9,30.9-30.9c9.1,0,17.1,3.9,22.8,10.1c4.4,4.9,11.9,5.4,16.8,1c4.9-4.4,5.4-11.9,1-16.8
	c-0.1-0.1-0.1-0.2-0.2-0.2C118.1,12.4,103.7,5.5,87.7,5.5z M148.2,5.3c-6.1-0.1-11.2,4.8-11.3,11c-0.1,6.1,4.8,11.2,11,11.3
	c0.1,0,0.2,0,0.3,0h20.8v74.3c-0.1,6.8,5.3,12.4,12.1,12.5c6.8,0.1,12.4-5.3,12.5-12.1c0-0.1,0-0.2,0-0.3V27.6h20.8
	c6.1,0.1,11.2-4.8,11.3-11s-4.8-11.2-11-11.3c-0.1,0-0.2,0-0.3,0C214.3,5.3,148.2,5.3,148.2,5.3z M278.3,5.2
	c-30.1,0-54.7,24.6-54.7,54.7s24.6,54.7,54.7,54.7c16.6,0,31.6-7.5,41.6-19.2c4.4-4.9,4-12.4-0.8-16.8s-12.4-4-16.8,0.8
	c-0.2,0.2-0.3,0.3-0.4,0.5c-5.7,6.7-14,10.8-23.5,10.8c-17.2,0-30.9-13.7-30.9-30.9S261.1,29,278.3,29c9.1,0,17.1,3.9,22.8,10.1
	c4.4,4.9,12,5.2,16.9,0.8s5.2-12,0.8-16.9C308.7,12.1,294.2,5.2,278.3,5.2z"/>
</svg>
