<svg id="index_320px" data-name="index@320px" xmlns="http://www.w3.org/2000/svg" viewBox="0 0 31.55 18"><defs><style>.cls-1{opacity:.7}.cls-2{fill:#f0f1f2;fill-rule:evenodd}</style></defs><title>vk</title><g id="footer"><g id="social" class="cls-1"><path id="vk.com" class="cls-2" d="M1171.78 4078.82h1.89a1.59 1.59 0 0 0 .86-.38 1.38 1.38 0 0 0 .26-.83s0-2.53 1.14-2.9 2.64 2.45 4.22 3.53a3 3 0 0 0 2.1.64l4.21-.06s2.2-.14 1.16-1.87a14.08 14.08 0 0 0-3.13-3.62c-2.64-2.45-2.29-2.06.89-6.3 1.94-2.58 2.71-4.16 2.47-4.84s-1.66-.47-1.66-.47h-4.74a1.08 1.08 0 0 0-.61.11 1.32 1.32 0 0 0-.42.51 27.52 27.52 0 0 1-1.75 3.7c-2.11 3.59-3 3.78-3.3 3.55-.8-.52-.6-2.09-.6-3.2 0-3.48.53-4.93-1-5.3a8.11 8.11 0 0 0-2.21-.22 10.23 10.23 0 0 0-3.94.4c-.54.26-1 .85-.7.89a2.13 2.13 0 0 1 1.4.7 4.58 4.58 0 0 1 .47 2.15s.28 4.09-.65 4.6c-.64.35-1.52-.36-3.4-3.62a30.27 30.27 0 0 1-1.69-3.51 1.41 1.41 0 0 0-.39-.53 2 2 0 0 0-.73-.29h-4.51a1.54 1.54 0 0 0-.93.31 1 1 0 0 0 0 .8s3.53 8.26 7.53 12.42a10.83 10.83 0 0 0 7.83 3.57z" transform="translate(-1156.34 -4060.9)"/></g></g></svg>