<svg xmlns="http://www.w3.org/2000/svg" viewBox="0 0 38 47"><title>docx</title><path d="M38,13.8291V44a3.0033,3.0033,0,0,1-3,3H3a3.0033,3.0033,0,0,1-3-3V3A3.0033,3.0033,0,0,1,3,0H24.17A2.9815,2.9815,0,0,1,26.291.8789l10.83,10.8291A2.9815,2.9815,0,0,1,38,13.8291ZM25.999,11.001a1.0007,1.0007,0,0,0,1,1h7.5868L25.999,3.415ZM36,44V14.001H26.999a3.0033,3.0033,0,0,1-3-3V2H3A1.0007,1.0007,0,0,0,2,3V44a1.0007,1.0007,0,0,0,1,1H35A1.0007,1.0007,0,0,0,36,44Z" style="fill:#fa325a"/><path d="M25.1759,35.1865a1.2118,1.2118,0,0,1-.1768.4131.6839.6839,0,0,1-.3389.2363,2.2133,2.2133,0,0,1-.58.1074q-.3545.0278-.9023.0273c-.4082,0-.7354-.0088-.9834-.0273a2.1234,2.1234,0,0,1-.585-.1074A.5871.5871,0,0,1,21.298,35.6a1.2868,1.2868,0,0,1-.15-.4131L18.924,26.3779h-.0215L16.797,35.1865a1.2955,1.2955,0,0,1-.15.4033.63.63,0,0,1-.3057.2412,1.91,1.91,0,0,1-.57.1123c-.2393.0186-.5566.0273-.95.0273-.415,0-.7471-.0088-.9932-.0273a2.1167,2.1167,0,0,1-.5859-.1074A.5871.5871,0,0,1,12.93,35.6a1.4565,1.4565,0,0,1-.1611-.4131L9.61,23.0586a3.3174,3.3174,0,0,1-.1074-.6074.4013.4013,0,0,1,.123-.3379.7645.7645,0,0,1,.4414-.1445c.2031-.0186.4883-.0273.8535-.0273.3369,0,.6035.0059.8008.0156a1.519,1.519,0,0,1,.4453.0762.351.351,0,0,1,.2041.1719,1.1708,1.1708,0,0,1,.0859.3164L14.8956,33.167h.0107l2.5352-10.57a1.26,1.26,0,0,1,.1123-.333.4619.4619,0,0,1,.2363-.1992,1.6173,1.6173,0,0,1,.457-.0957q.29-.0278.7734-.0273c.3438,0,.6172.0068.8223.0215a1.5553,1.5553,0,0,1,.4727.0918.48.48,0,0,1,.2412.1982,1.1245,1.1245,0,0,1,.1182.3438l2.6211,10.57h.0215L25.756,22.5537a1.3878,1.3878,0,0,1,.0859-.2959.389.389,0,0,1,.2041-.1934,1.3789,1.3789,0,0,1,.43-.0957c.1865-.0186.4473-.0273.7842-.0273q.4731,0,.7354.0273a.6136.6136,0,0,1,.3818.1445.4321.4321,0,0,1,.1025.35,4.1473,4.1473,0,0,1-.1133.6279Z" style="fill:#fa325a"/></svg>
