<svg xmlns="http://www.w3.org/2000/svg" viewBox="0 0 38 47"><title>eps</title><path d="M38,13.8291V44a3.0033,3.0033,0,0,1-3,3H3a3.0033,3.0033,0,0,1-3-3V3A3.0033,3.0033,0,0,1,3,0H24.17A2.9815,2.9815,0,0,1,26.291.8789l10.83,10.8291A2.9815,2.9815,0,0,1,38,13.8291ZM25.999,11.001a1.0007,1.0007,0,0,0,1,1h7.5868L25.999,3.415ZM36,44V14.001H26.999a3.0033,3.0033,0,0,1-3-3V2H3A1.0007,1.0007,0,0,0,2,3V44a1.0007,1.0007,0,0,0,1,1H35A1.0007,1.0007,0,0,0,36,44Z" style="fill:#fa325a"/><path d="M14.7584,33.2021a2.5885,2.5885,0,0,1-.0176.3311.8362.8362,0,0,1-.0508.2158.269.269,0,0,1-.0859.12.1867.1867,0,0,1-.1123.0371H10.0485a.5665.5665,0,0,1-.38-.1328.5528.5528,0,0,1-.1533-.4346V25.6279a.5528.5528,0,0,1,.1533-.4346.5665.5665,0,0,1,.38-.1328h4.416a.1864.1864,0,0,1,.1094.0342.2545.2545,0,0,1,.082.12.9249.9249,0,0,1,.0518.2188,2.8757,2.8757,0,0,1,.0166.3379,2.73,2.73,0,0,1-.0166.3242.8741.8741,0,0,1-.0518.2158.2889.2889,0,0,1-.082.12.1763.1763,0,0,1-.1094.0371H11.3063v2.16h2.6729a.1939.1939,0,0,1,.1133.0371.285.285,0,0,1,.085.1172.819.819,0,0,1,.0518.2109,2.7711,2.7711,0,0,1,.0166.3252,2.7422,2.7422,0,0,1-.0166.3281.8036.8036,0,0,1-.0518.208.2527.2527,0,0,1-.085.1133.2055.2055,0,0,1-.1133.0342H11.3063V32.498h3.1855a.1867.1867,0,0,1,.1123.0371.269.269,0,0,1,.0859.12.8362.8362,0,0,1,.0508.2158A2.5885,2.5885,0,0,1,14.7584,33.2021Z" style="fill:#fa325a"/><path d="M22.401,27.7471a3.4877,3.4877,0,0,1-.2324,1.3193,2.5484,2.5484,0,0,1-.6768.9668,2.9773,2.9773,0,0,1-1.09.5986,5.0541,5.0541,0,0,1-1.5215.2051h-.7383V33.66a.1859.1859,0,0,1-.0449.123.3083.3083,0,0,1-.1465.0889,1.4545,1.4545,0,0,1-.2734.0547,4.6353,4.6353,0,0,1-.8711,0,1.4555,1.4555,0,0,1-.2773-.0547.2882.2882,0,0,1-.1436-.0889.1986.1986,0,0,1-.041-.123v-7.957a.6416.6416,0,0,1,.167-.4824.6145.6145,0,0,1,.4414-.16h2.085q.3149,0,.5986.0234a6.4511,6.4511,0,0,1,.68.1035,2.9558,2.9558,0,0,1,.8027.29,2.4017,2.4017,0,0,1,.6943.5361,2.2442,2.2442,0,0,1,.4375.76A2.949,2.949,0,0,1,22.401,27.7471Zm-1.88.13a1.5882,1.5882,0,0,0-.1641-.7656,1.1375,1.1375,0,0,0-.4033-.4443,1.3228,1.3228,0,0,0-.5029-.1807,3.7809,3.7809,0,0,0-.543-.0381h-.7656v3.001h.8066a1.9542,1.9542,0,0,0,.7207-.1162,1.221,1.221,0,0,0,.4756-.3252,1.3967,1.3967,0,0,0,.28-.498A2.0272,2.0272,0,0,0,20.5211,27.877Z" style="fill:#fa325a"/><path d="M29.0387,31.2539a2.7359,2.7359,0,0,1-.26,1.2236,2.534,2.534,0,0,1-.7041.8779,3.0485,3.0485,0,0,1-1.0391.53,4.4308,4.4308,0,0,1-1.2715.1777,4.5492,4.5492,0,0,1-.8506-.0752,4.6823,4.6823,0,0,1-.6943-.1816,3.0719,3.0719,0,0,1-.5029-.2217,1.4486,1.4486,0,0,1-.29-.2051.5048.5048,0,0,1-.126-.2568,2.3035,2.3035,0,0,1-.0381-.4814c0-.1416.0049-.26.0137-.3555a1.0712,1.0712,0,0,1,.0439-.2324.2619.2619,0,0,1,.082-.126.1979.1979,0,0,1,.12-.0381.5822.5822,0,0,1,.2705.1123,4.3194,4.3194,0,0,0,.4473.25,4.2166,4.2166,0,0,0,.6523.25,3.1337,3.1337,0,0,0,.8789.1123,2.0152,2.0152,0,0,0,.5879-.0791,1.3109,1.3109,0,0,0,.4414-.2217.9408.9408,0,0,0,.2764-.3555,1.14,1.14,0,0,0,.0957-.4717.8241.8241,0,0,0-.1641-.5156,1.6125,1.6125,0,0,0-.4268-.3828,4.3273,4.3273,0,0,0-.5986-.3145c-.2236-.0986-.4531-.2021-.69-.3115a6.3588,6.3588,0,0,1-.69-.3721,2.805,2.805,0,0,1-.5986-.5,2.3531,2.3531,0,0,1-.4268-.6865,2.4815,2.4815,0,0,1-.1641-.95,2.5215,2.5215,0,0,1,.2354-1.1172,2.2986,2.2986,0,0,1,.6367-.8008,2.6987,2.6987,0,0,1,.9434-.4746,4.2451,4.2451,0,0,1,1.78-.1094,4.3435,4.3435,0,0,1,.5879.13,3.2827,3.2827,0,0,1,.4854.1846,1.125,1.125,0,0,1,.28.1709.5049.5049,0,0,1,.0928.1162.5877.5877,0,0,1,.041.127,1.4416,1.4416,0,0,1,.0234.1973c.0049.08.0068.18.0068.2979,0,.1318-.0029.2441-.0107.335a1.2107,1.2107,0,0,1-.0332.2256.275.275,0,0,1-.0684.13.1724.1724,0,0,1-.12.041.5772.5772,0,0,1-.2393-.0957q-.1641-.0952-.4033-.209a4.0528,4.0528,0,0,0-.5537-.2051,2.4809,2.4809,0,0,0-.69-.0918,1.616,1.616,0,0,0-.5127.0723,1.0453,1.0453,0,0,0-.3652.1973.7751.7751,0,0,0-.2187.3047.9763.9763,0,0,0-.0723.376.8275.8275,0,0,0,.16.5088,1.5219,1.5219,0,0,0,.4316.3828,4.5117,4.5117,0,0,0,.6113.3145q.3413.1479.6973.3115a6.8444,6.8444,0,0,1,.6973.3721,2.8121,2.8121,0,0,1,.6084.5,2.3121,2.3121,0,0,1,.4307.6836A2.3906,2.3906,0,0,1,29.0387,31.2539Z" style="fill:#fa325a"/></svg>
