<svg xmlns="http://www.w3.org/2000/svg" viewBox="0 0 38 47"><title>gif</title><path d="M38,13.8291V44a3.0033,3.0033,0,0,1-3,3H3a3.0033,3.0033,0,0,1-3-3V3A3.0033,3.0033,0,0,1,3,0H24.17A2.9815,2.9815,0,0,1,26.291.8789l10.83,10.8291A2.9815,2.9815,0,0,1,38,13.8291ZM25.999,11.001a1.0007,1.0007,0,0,0,1,1h7.5868L25.999,3.415ZM36,44V14.001H26.999a3.0033,3.0033,0,0,1-3-3V2H3A1.0007,1.0007,0,0,0,2,3V44a1.0007,1.0007,0,0,0,1,1H35A1.0007,1.0007,0,0,0,36,44Z" style="fill:#fa325a"/><path d="M17.52,26.4346a3.11,3.11,0,0,1-.0166.3418,1.04,1.04,0,0,1-.0488.2295.25.25,0,0,1-.0742.1191.1734.1734,0,0,1-.1064.0342.6639.6639,0,0,1-.2871-.123,4.2428,4.2428,0,0,0-.5264-.2666,5.6394,5.6394,0,0,0-.7832-.2666,4.0548,4.0548,0,0,0-1.0557-.123,2.9387,2.9387,0,0,0-1.1621.2217,2.534,2.534,0,0,0-.8887.6289,2.8017,2.8017,0,0,0-.5674.9785,3.8276,3.8276,0,0,0-.1982,1.2607,4.0466,4.0466,0,0,0,.2021,1.3369,2.7057,2.7057,0,0,0,.5635.9668,2.3172,2.3172,0,0,0,.8721.5879,3.0772,3.0772,0,0,0,1.124.1982,2.603,2.603,0,0,0,.5947-.0684,2.21,2.21,0,0,0,.5469-.2051V30.2354H14.0338c-.082,0-.1455-.0518-.1914-.1533a1.4111,1.4111,0,0,1-.0684-.5234,2.6647,2.6647,0,0,1,.0166-.3213.8036.8036,0,0,1,.0518-.208.29.29,0,0,1,.082-.1172.1763.1763,0,0,1,.1094-.0371h2.9873a.494.494,0,0,1,.1953.0371.44.44,0,0,1,.15.1133.5084.5084,0,0,1,.0986.1816.7968.7968,0,0,1,.0342.2422V32.97a.8211.8211,0,0,1-.0723.3584.5068.5068,0,0,1-.293.2432q-.2227.0894-.5508.1846t-.68.1641q-.353.0688-.7109.1025-.36.0337-.7217.0342a5.5288,5.5288,0,0,1-1.8975-.3047,3.72,3.72,0,0,1-2.3066-2.2891A5.4018,5.4018,0,0,1,9.96,29.5791a5.4745,5.4745,0,0,1,.3281-1.9521,4.1177,4.1177,0,0,1,.93-1.4687,4.0135,4.0135,0,0,1,1.4521-.9268A5.3493,5.3493,0,0,1,14.567,24.91a6.4631,6.4631,0,0,1,1.0459.0781,6.13,6.13,0,0,1,.8242.1914,3.2936,3.2936,0,0,1,.584.2432,1.4539,1.4539,0,0,1,.3242.2256.5609.5609,0,0,1,.1338.27A2.4337,2.4337,0,0,1,17.52,26.4346Z" style="fill:#fa325a"/><path d="M21.15,33.66a.19.19,0,0,1-.0439.123.3171.3171,0,0,1-.1475.0889,1.4545,1.4545,0,0,1-.2734.0547,3.804,3.804,0,0,1-.4375.0205,3.8435,3.8435,0,0,1-.4346-.0205,1.4756,1.4756,0,0,1-.2764-.0547.3171.3171,0,0,1-.1475-.0889.19.19,0,0,1-.0439-.123V25.3066a.19.19,0,0,1,.0439-.123.3183.3183,0,0,1,.15-.0889,1.5579,1.5579,0,0,1,.2773-.0547,3.7333,3.7333,0,0,1,.4307-.0205,3.804,3.804,0,0,1,.4375.0205,1.4545,1.4545,0,0,1,.2734.0547.3171.3171,0,0,1,.1475.0889.19.19,0,0,1,.0439.123Z" style="fill:#fa325a"/><path d="M28.0407,25.7988a3.0977,3.0977,0,0,1-.0166.3457.8043.8043,0,0,1-.0547.2217.3542.3542,0,0,1-.0859.123.1639.1639,0,0,1-.1094.041H24.8825v2.3789h2.7139a.1864.1864,0,0,1,.1094.0342.2835.2835,0,0,1,.0859.1162.7989.7989,0,0,1,.0547.2188,3.5268,3.5268,0,0,1,0,.6836.9083.9083,0,0,1-.0547.2256.3159.3159,0,0,1-.0859.127.1763.1763,0,0,1-.1094.0371H24.8825v3.2949a.21.21,0,0,1-.041.13.312.312,0,0,1-.1475.0928,1.3511,1.3511,0,0,1-.2764.0576,3.804,3.804,0,0,1-.4375.0205,3.8435,3.8435,0,0,1-.4346-.0205,1.3089,1.3089,0,0,1-.2764-.0576.3456.3456,0,0,1-.1475-.0928.201.201,0,0,1-.0439-.13V25.6279a.5528.5528,0,0,1,.1533-.4346.5665.5665,0,0,1,.38-.1328h4.1631a.1763.1763,0,0,1,.1094.0371.32.32,0,0,1,.0859.123.87.87,0,0,1,.0547.2295A3.18,3.18,0,0,1,28.0407,25.7988Z" style="fill:#fa325a"/></svg>
