<svg xmlns="http://www.w3.org/2000/svg" viewBox="0 0 38 47"><title>indd</title><path d="M38,13.8291V44a3.0033,3.0033,0,0,1-3,3H3a3.0033,3.0033,0,0,1-3-3V3A3.0033,3.0033,0,0,1,3,0H24.17A2.9815,2.9815,0,0,1,26.291.8789l10.83,10.8291A2.9815,2.9815,0,0,1,38,13.8291ZM25.999,11.001a1.0007,1.0007,0,0,0,1,1h7.5868L25.999,3.415ZM36,44V14.001H26.999a3.0033,3.0033,0,0,1-3-3V2H3A1.0007,1.0007,0,0,0,2,3V44a1.0007,1.0007,0,0,0,1,1H35A1.0007,1.0007,0,0,0,36,44Z" style="fill:#fa325a"/><path d="M14.5138,35.52a.3031.3031,0,0,1-.0693.1934.4936.4936,0,0,1-.2314.14,2.2338,2.2338,0,0,1-.43.0859,7.2974,7.2974,0,0,1-1.37,0,2.2474,2.2474,0,0,1-.4346-.0859.4936.4936,0,0,1-.2314-.14.3031.3031,0,0,1-.0693-.1934V22.3926a.3031.3031,0,0,1,.0693-.1934.4973.4973,0,0,1,.2363-.14,2.3742,2.3742,0,0,1,.4355-.0859,5.8464,5.8464,0,0,1,.6768-.0322,5.9676,5.9676,0,0,1,.6875.0322,2.2338,2.2338,0,0,1,.43.0859.4936.4936,0,0,1,.2314.14.3031.3031,0,0,1,.0693.1934Z" style="fill:#fa325a"/><path d="M26.47,35.541a.3509.3509,0,0,1-.0537.1992.403.403,0,0,1-.1826.1338,1.2454,1.2454,0,0,1-.35.0752c-.1465.0146-.3271.0215-.542.0215-.2295,0-.415-.0068-.5586-.0215a1.2958,1.2958,0,0,1-.3486-.0752.4367.4367,0,0,1-.1934-.1338.3257.3257,0,0,1-.06-.1992V34.4775A6.172,6.172,0,0,1,22.63,35.7129a4.0692,4.0692,0,0,1-3.6523.0156,3.5334,3.5334,0,0,1-1.2363-1.1436,4.9749,4.9749,0,0,1-.6924-1.6807,9.2519,9.2519,0,0,1-.2148-2.0254,8.8331,8.8331,0,0,1,.2744-2.2988,5.1826,5.1826,0,0,1,.8-1.74,3.5513,3.5513,0,0,1,1.3105-1.1064,4.0278,4.0278,0,0,1,1.8047-.3867,3.2281,3.2281,0,0,1,1.4609.3271,5.2008,5.2008,0,0,1,1.3.9619V21.4473a.3368.3368,0,0,1,.0586-.1934.4429.4429,0,0,1,.2148-.1445,1.818,1.818,0,0,1,.4141-.0918,6.6781,6.6781,0,0,1,1.3105,0,1.712,1.712,0,0,1,.4082.0918.4735.4735,0,0,1,.2148.1445.3156.3156,0,0,1,.0645.1934Zm-2.6855-6.4023a5.964,5.964,0,0,0-1.1113-1.1172,1.867,1.867,0,0,0-1.1123-.3867,1.5547,1.5547,0,0,0-.9072.2637,1.911,1.911,0,0,0-.6133.7031,3.8131,3.8131,0,0,0-.3437.9824,5.524,5.524,0,0,0-.1123,1.1123,6.9828,6.9828,0,0,0,.0967,1.1709,3.6862,3.6862,0,0,0,.3164,1.0156,1.9356,1.9356,0,0,0,.5859.7139,1.52,1.52,0,0,0,.9238.2686,1.8786,1.8786,0,0,0,.543-.08,2.1139,2.1139,0,0,0,.5371-.2637,3.66,3.66,0,0,0,.5635-.4785,9.625,9.625,0,0,0,.6338-.7246Z" style="fill:#fa325a"/></svg>
