<svg xmlns="http://www.w3.org/2000/svg" viewBox="0 0 38 47"><title>jpg</title><path d="M38,13.8291V44a3.0033,3.0033,0,0,1-3,3H3a3.0033,3.0033,0,0,1-3-3V3A3.0033,3.0033,0,0,1,3,0H24.17A2.9815,2.9815,0,0,1,26.291.8789l10.83,10.8291A2.9815,2.9815,0,0,1,38,13.8291ZM25.999,11.001a1.0007,1.0007,0,0,0,1,1h7.5868L25.999,3.415ZM36,44V14.001H26.999a3.0033,3.0033,0,0,1-3-3V2H3A1.0007,1.0007,0,0,0,2,3V44a1.0007,1.0007,0,0,0,1,1H35A1.0007,1.0007,0,0,0,36,44Z" style="fill:#fa325a"/><path d="M12.18,31.4453a4.8331,4.8331,0,0,1-.1123,1.084,2.07,2.07,0,0,1-.3828.82,1.7145,1.7145,0,0,1-.708.5156,2.8858,2.8858,0,0,1-1.08.1777,2.5818,2.5818,0,0,1-.4072-.0312,2.8127,2.8127,0,0,1-.3691-.0781,2.3386,2.3386,0,0,1-.29-.1025.53.53,0,0,1-.1641-.0986.5388.5388,0,0,1-.0684-.0928.5241.5241,0,0,1-.0479-.126,1.0666,1.0666,0,0,1-.0273-.1953c-.0049-.0771-.0068-.1758-.0068-.2939,0-.1553.0029-.2861.0107-.3936a1.3527,1.3527,0,0,1,.0332-.252.2562.2562,0,0,1,.0684-.1309.1737.1737,0,0,1,.1133-.0371.3051.3051,0,0,1,.1436.0449c.0547.0293.1162.06.1846.0918a2.0256,2.0256,0,0,0,.2393.0918,1.0208,1.0208,0,0,0,.3213.0449.9616.9616,0,0,0,.3242-.0508.495.495,0,0,0,.2324-.1777.9065.9065,0,0,0,.1406-.3389,2.5368,2.5368,0,0,0,.0479-.5469V25.293a.1746.1746,0,0,1,.0439-.1191.3226.3226,0,0,1,.1445-.0859,1.232,1.232,0,0,1,.2764-.0508c.1182-.0117.2646-.0176.4375-.0176s.3164.0059.4307.0176a1.3635,1.3635,0,0,1,.2773.0508.3248.3248,0,0,1,.15.0859.1746.1746,0,0,1,.0439.1191Z" style="fill:#fa325a"/><path d="M20.151,27.7471a3.4877,3.4877,0,0,1-.2324,1.3193,2.5484,2.5484,0,0,1-.6768.9668,2.9773,2.9773,0,0,1-1.09.5986,5.0541,5.0541,0,0,1-1.5215.2051h-.7383V33.66a.1859.1859,0,0,1-.0449.123.3083.3083,0,0,1-.1465.0889,1.4545,1.4545,0,0,1-.2734.0547,4.6353,4.6353,0,0,1-.8711,0,1.4555,1.4555,0,0,1-.2773-.0547.2882.2882,0,0,1-.1436-.0889.1986.1986,0,0,1-.041-.123v-7.957a.6416.6416,0,0,1,.167-.4824.6145.6145,0,0,1,.4414-.16h2.085q.3149,0,.5986.0234a6.4511,6.4511,0,0,1,.68.1035,2.9558,2.9558,0,0,1,.8027.29,2.4017,2.4017,0,0,1,.6943.5361,2.2442,2.2442,0,0,1,.4375.76A2.949,2.949,0,0,1,20.151,27.7471Zm-1.88.13a1.5882,1.5882,0,0,0-.1641-.7656,1.1375,1.1375,0,0,0-.4033-.4443,1.3228,1.3228,0,0,0-.5029-.1807,3.7809,3.7809,0,0,0-.543-.0381h-.7656v3.001h.8066a1.9542,1.9542,0,0,0,.7207-.1162,1.221,1.221,0,0,0,.4756-.3252,1.3967,1.3967,0,0,0,.28-.498A2.0272,2.0272,0,0,0,18.2711,27.877Z" style="fill:#fa325a"/><path d="M28.6412,26.4346a3.11,3.11,0,0,1-.0166.3418,1.04,1.04,0,0,1-.0488.2295.25.25,0,0,1-.0742.1191.1734.1734,0,0,1-.1064.0342.6639.6639,0,0,1-.2871-.123,4.2428,4.2428,0,0,0-.5264-.2666,5.6394,5.6394,0,0,0-.7832-.2666,4.0548,4.0548,0,0,0-1.0557-.123,2.9387,2.9387,0,0,0-1.1621.2217,2.534,2.534,0,0,0-.8887.6289,2.8017,2.8017,0,0,0-.5674.9785,3.8276,3.8276,0,0,0-.1982,1.2607,4.0466,4.0466,0,0,0,.2021,1.3369,2.7057,2.7057,0,0,0,.5635.9668,2.3172,2.3172,0,0,0,.8721.5879,3.0772,3.0772,0,0,0,1.124.1982,2.603,2.603,0,0,0,.5947-.0684,2.21,2.21,0,0,0,.5469-.2051V30.2354H25.1549c-.082,0-.1455-.0518-.1914-.1533a1.4111,1.4111,0,0,1-.0684-.5234,2.6647,2.6647,0,0,1,.0166-.3213.8036.8036,0,0,1,.0518-.208.29.29,0,0,1,.082-.1172.1763.1763,0,0,1,.1094-.0371h2.9873a.494.494,0,0,1,.1953.0371.44.44,0,0,1,.15.1133.5084.5084,0,0,1,.0986.1816.7968.7968,0,0,1,.0342.2422V32.97a.8211.8211,0,0,1-.0723.3584.5068.5068,0,0,1-.293.2432q-.2227.0894-.5508.1846t-.68.1641q-.353.0688-.7109.1025-.36.0337-.7217.0342a5.5288,5.5288,0,0,1-1.8975-.3047,3.72,3.72,0,0,1-2.3066-2.2891,5.4018,5.4018,0,0,1-.3076-1.8838,5.4745,5.4745,0,0,1,.3281-1.9521,4.1177,4.1177,0,0,1,.93-1.4687,4.0135,4.0135,0,0,1,1.4521-.9268,5.3493,5.3493,0,0,1,1.8975-.3213,6.4631,6.4631,0,0,1,1.0459.0781,6.13,6.13,0,0,1,.8242.1914,3.2936,3.2936,0,0,1,.584.2432,1.4539,1.4539,0,0,1,.3242.2256.5609.5609,0,0,1,.1338.27A2.4337,2.4337,0,0,1,28.6412,26.4346Z" style="fill:#fa325a"/></svg>
