<svg xmlns="http://www.w3.org/2000/svg" viewBox="0 0 38 47"><title>msg</title><path d="M38,13.8291V44a3.0033,3.0033,0,0,1-3,3H3a3.0033,3.0033,0,0,1-3-3V3A3.0033,3.0033,0,0,1,3,0H24.17A2.9815,2.9815,0,0,1,26.291.8789l10.83,10.8291A2.9815,2.9815,0,0,1,38,13.8291ZM25.999,11.001a1.0007,1.0007,0,0,0,1,1h7.5868L25.999,3.415ZM36,44V14.001H26.999a3.0033,3.0033,0,0,1-3-3V2H3A1.0007,1.0007,0,0,0,2,3V44a1.0007,1.0007,0,0,0,1,1H35A1.0007,1.0007,0,0,0,36,44Z" style="fill:#fa325a"/><path d="M25.58,28.7949a10.2941,10.2941,0,0,1-.43,3.0938,6.2284,6.2284,0,0,1-1.2783,2.3145,5.5007,5.5007,0,0,1-2.1,1.4512,7.796,7.796,0,0,1-2.8955.499,8.5457,8.5457,0,0,1-2.8311-.4248,4.9042,4.9042,0,0,1-2.0137-1.2939,5.5522,5.5522,0,0,1-1.209-2.2129,11.1672,11.1672,0,0,1-.4023-3.18,9.9787,9.9787,0,0,1,.43-3.0342,6.1927,6.1927,0,0,1,1.2783-2.2939,5.5816,5.5816,0,0,1,2.1006-1.45,7.72,7.72,0,0,1,2.9053-.5049,8.5063,8.5063,0,0,1,2.7881.4189,4.9116,4.9116,0,0,1,2.02,1.2891,5.6322,5.6322,0,0,1,1.2246,2.1973A10.5729,10.5729,0,0,1,25.58,28.7949Zm-2.9648.15a10.642,10.642,0,0,0-.1719-1.9922,4.2888,4.2888,0,0,0-.585-1.5371,2.81,2.81,0,0,0-1.1016-.9883,3.78,3.78,0,0,0-1.7187-.3486,3.5232,3.5232,0,0,0-1.74.3916A3.2025,3.2025,0,0,0,16.17,25.5186a4.3146,4.3146,0,0,0-.6064,1.53,9.2623,9.2623,0,0,0-.1777,1.8535,11.0951,11.0951,0,0,0,.1719,2.0469,4.3978,4.3978,0,0,0,.58,1.5518,2.678,2.678,0,0,0,1.0957.9834,3.92,3.92,0,0,0,1.7295.3379,3.5561,3.5561,0,0,0,1.74-.3867,3.1127,3.1127,0,0,0,1.1279-1.0527,4.4628,4.4628,0,0,0,.6074-1.5527A9.6667,9.6667,0,0,0,22.6149,28.9453Z" style="fill:#fa325a"/></svg>
