<svg xmlns="http://www.w3.org/2000/svg" viewBox="0 0 38 47"><title>pdf</title><path d="M38,13.8291V44a3.0033,3.0033,0,0,1-3,3H3a3.0033,3.0033,0,0,1-3-3V3A3.0033,3.0033,0,0,1,3,0H24.17A2.9815,2.9815,0,0,1,26.291.8789l10.83,10.8291A2.9815,2.9815,0,0,1,38,13.8291ZM25.999,11.001a1.0007,1.0007,0,0,0,1,1h7.5868L25.999,3.415ZM36,44V14.001H26.999a3.0033,3.0033,0,0,1-3-3V2H3A1.0007,1.0007,0,0,0,2,3V44a1.0007,1.0007,0,0,0,1,1H35A1.0007,1.0007,0,0,0,36,44Z" style="fill:#fa325a"/><path d="M14.67,27.7471a3.4877,3.4877,0,0,1-.2324,1.3193,2.5484,2.5484,0,0,1-.6768.9668,2.9773,2.9773,0,0,1-1.09.5986,5.0541,5.0541,0,0,1-1.5215.2051h-.7383V33.66a.1859.1859,0,0,1-.0449.123.3083.3083,0,0,1-.1465.0889,1.4545,1.4545,0,0,1-.2734.0547,4.6353,4.6353,0,0,1-.8711,0,1.4555,1.4555,0,0,1-.2773-.0547.2882.2882,0,0,1-.1436-.0889.1986.1986,0,0,1-.041-.123v-7.957a.6416.6416,0,0,1,.167-.4824.6145.6145,0,0,1,.4414-.16h2.085q.3149,0,.5986.0234a6.4511,6.4511,0,0,1,.68.1035,2.9558,2.9558,0,0,1,.8027.29,2.4017,2.4017,0,0,1,.6943.5361,2.2442,2.2442,0,0,1,.4375.76A2.949,2.949,0,0,1,14.67,27.7471Zm-1.88.13a1.5882,1.5882,0,0,0-.1641-.7656,1.1375,1.1375,0,0,0-.4033-.4443,1.3228,1.3228,0,0,0-.5029-.1807,3.7809,3.7809,0,0,0-.543-.0381h-.7656v3.001h.8066a1.9542,1.9542,0,0,0,.7207-.1162,1.221,1.221,0,0,0,.4756-.3252,1.3967,1.3967,0,0,0,.28-.498A2.0272,2.0272,0,0,0,12.79,27.877Z" style="fill:#fa325a"/><path d="M23.4127,29.3535a6.03,6.03,0,0,1-.3184,2.082,3.5211,3.5211,0,0,1-.9121,1.4111,3.6809,3.6809,0,0,1-1.4453.8037,7.117,7.117,0,0,1-2.0273.2559H16.5973a.5665.5665,0,0,1-.38-.1328.5528.5528,0,0,1-.1533-.4346V25.6279a.5528.5528,0,0,1,.1533-.4346.5665.5665,0,0,1,.38-.1328h2.27a6.3241,6.3241,0,0,1,2.0068.2773,3.6017,3.6017,0,0,1,1.3867.82,3.5028,3.5028,0,0,1,.8584,1.3428A5.3483,5.3483,0,0,1,23.4127,29.3535Zm-1.8594.0615a4.4563,4.4563,0,0,0-.1465-1.1689,2.495,2.495,0,0,0-.4727-.9365,2.1688,2.1688,0,0,0-.834-.6182,3.37,3.37,0,0,0-1.3359-.2227h-.9092v6.0156h.9365a3.526,3.526,0,0,0,1.2441-.1914,2.0754,2.0754,0,0,0,.8438-.5781,2.469,2.469,0,0,0,.5059-.96A4.7781,4.7781,0,0,0,21.5533,29.415Z" style="fill:#fa325a"/><path d="M29.8522,25.7988a3.0977,3.0977,0,0,1-.0166.3457.8043.8043,0,0,1-.0547.2217.3542.3542,0,0,1-.0859.123.1639.1639,0,0,1-.1094.041H26.694v2.3789h2.7139a.1864.1864,0,0,1,.1094.0342.2835.2835,0,0,1,.0859.1162.7989.7989,0,0,1,.0547.2188,3.5268,3.5268,0,0,1,0,.6836.9083.9083,0,0,1-.0547.2256.3159.3159,0,0,1-.0859.127.1763.1763,0,0,1-.1094.0371H26.694v3.2949a.21.21,0,0,1-.041.13.312.312,0,0,1-.1475.0928,1.3511,1.3511,0,0,1-.2764.0576,3.804,3.804,0,0,1-.4375.0205,3.8435,3.8435,0,0,1-.4346-.0205,1.3089,1.3089,0,0,1-.2764-.0576.3456.3456,0,0,1-.1475-.0928.201.201,0,0,1-.0439-.13V25.6279a.5528.5528,0,0,1,.1533-.4346.5665.5665,0,0,1,.38-.1328h4.1631a.1763.1763,0,0,1,.1094.0371.32.32,0,0,1,.0859.123.87.87,0,0,1,.0547.2295A3.18,3.18,0,0,1,29.8522,25.7988Z" style="fill:#fa325a"/></svg>
