<svg xmlns="http://www.w3.org/2000/svg" viewBox="0 0 38 47"><title>pptx</title><path d="M38,13.8291V44a3.0033,3.0033,0,0,1-3,3H3a3.0033,3.0033,0,0,1-3-3V3A3.0033,3.0033,0,0,1,3,0H24.17A2.9815,2.9815,0,0,1,26.291.8789l10.83,10.8291A2.9815,2.9815,0,0,1,38,13.8291ZM25.999,11.001a1.0007,1.0007,0,0,0,1,1h7.5868L25.999,3.415ZM36,44V14.001H26.999a3.0033,3.0033,0,0,1-3-3V2H3A1.0007,1.0007,0,0,0,2,3V44a1.0007,1.0007,0,0,0,1,1H35A1.0007,1.0007,0,0,0,36,44Z" style="fill:#fa325a"/><path d="M24.1769,26.2275a5.5,5.5,0,0,1-.3652,2.0732,3.9863,3.9863,0,0,1-1.0635,1.52,4.6919,4.6919,0,0,1-1.7129.94,7.9338,7.9338,0,0,1-2.3906.3223h-1.16V35.52a.2987.2987,0,0,1-.07.1934.4849.4849,0,0,1-.23.14,2.2338,2.2338,0,0,1-.43.0859,7.2869,7.2869,0,0,1-1.3691,0,2.2286,2.2286,0,0,1-.4355-.0859.4528.4528,0,0,1-.2256-.14.3156.3156,0,0,1-.0645-.1934V23.0156a1.0071,1.0071,0,0,1,.2627-.7578.9624.9624,0,0,1,.6934-.252h3.2764q.4937,0,.94.0371a9.8518,9.8518,0,0,1,1.0684.1621,4.7181,4.7181,0,0,1,1.2617.4561,3.7454,3.7454,0,0,1,1.0908.8428,3.5182,3.5182,0,0,1,.6875,1.1934A4.6607,4.6607,0,0,1,24.1769,26.2275Zm-2.9541.2041a2.4957,2.4957,0,0,0-.2578-1.2031,1.7755,1.7755,0,0,0-.6338-.6982,2.0939,2.0939,0,0,0-.79-.2842,5.9244,5.9244,0,0,0-.8535-.06H17.4845v4.7158h1.2676a3.0547,3.0547,0,0,0,1.1328-.1826,1.9388,1.9388,0,0,0,.7471-.5107,2.21,2.21,0,0,0,.44-.7832A3.1527,3.1527,0,0,0,21.2228,26.4316Z" style="fill:#fa325a"/></svg>
