<svg xmlns="http://www.w3.org/2000/svg" viewBox="0 0 38 47"><title>svg</title><path d="M38,13.8291V44a3.0033,3.0033,0,0,1-3,3H3a3.0033,3.0033,0,0,1-3-3V3A3.0033,3.0033,0,0,1,3,0H24.17A2.9815,2.9815,0,0,1,26.291.8789l10.83,10.8291A2.9815,2.9815,0,0,1,38,13.8291ZM25.999,11.001a1.0007,1.0007,0,0,0,1,1h7.5868L25.999,3.415ZM36,44V14.001H26.999a3.0033,3.0033,0,0,1-3-3V2H3A1.0007,1.0007,0,0,0,2,3V44a1.0007,1.0007,0,0,0,1,1H35A1.0007,1.0007,0,0,0,36,44Z" style="fill:#fa325a"/><path d="M13.49,31.2539a2.7359,2.7359,0,0,1-.26,1.2236,2.534,2.534,0,0,1-.7041.8779,3.0485,3.0485,0,0,1-1.0391.53,4.4308,4.4308,0,0,1-1.2715.1777,4.5492,4.5492,0,0,1-.8506-.0752,4.6823,4.6823,0,0,1-.6943-.1816,3.0719,3.0719,0,0,1-.5029-.2217,1.4486,1.4486,0,0,1-.29-.2051.5048.5048,0,0,1-.126-.2568,2.3035,2.3035,0,0,1-.0381-.4814c0-.1416.0049-.26.0137-.3555a1.0712,1.0712,0,0,1,.0439-.2324.2619.2619,0,0,1,.082-.126.1979.1979,0,0,1,.12-.0381.5822.5822,0,0,1,.2705.1123,4.3194,4.3194,0,0,0,.4473.25,4.2166,4.2166,0,0,0,.6523.25,3.1337,3.1337,0,0,0,.8789.1123,2.0152,2.0152,0,0,0,.5879-.0791,1.3109,1.3109,0,0,0,.4414-.2217.9408.9408,0,0,0,.2764-.3555,1.14,1.14,0,0,0,.0957-.4717.8241.8241,0,0,0-.1641-.5156,1.6125,1.6125,0,0,0-.4268-.3828,4.3273,4.3273,0,0,0-.5986-.3145c-.2236-.0986-.4531-.2021-.69-.3115a6.3588,6.3588,0,0,1-.69-.3721,2.805,2.805,0,0,1-.5986-.5,2.3531,2.3531,0,0,1-.4268-.6865,2.4815,2.4815,0,0,1-.1641-.95,2.5215,2.5215,0,0,1,.2354-1.1172,2.2986,2.2986,0,0,1,.6367-.8008,2.6987,2.6987,0,0,1,.9434-.4746,4.2451,4.2451,0,0,1,1.78-.1094,4.3435,4.3435,0,0,1,.5879.13,3.2827,3.2827,0,0,1,.4854.1846,1.125,1.125,0,0,1,.28.1709.5049.5049,0,0,1,.0928.1162.5877.5877,0,0,1,.041.127,1.4416,1.4416,0,0,1,.0234.1973c.0049.08.0068.18.0068.2979,0,.1318-.0029.2441-.0107.335a1.2107,1.2107,0,0,1-.0332.2256.275.275,0,0,1-.0684.13.1724.1724,0,0,1-.12.041.5772.5772,0,0,1-.2393-.0957q-.1641-.0952-.4033-.209a4.0528,4.0528,0,0,0-.5537-.2051,2.4809,2.4809,0,0,0-.69-.0918,1.616,1.616,0,0,0-.5127.0723,1.0453,1.0453,0,0,0-.3652.1973.7751.7751,0,0,0-.2187.3047.9763.9763,0,0,0-.0723.376.8275.8275,0,0,0,.16.5088,1.5219,1.5219,0,0,0,.4316.3828,4.5117,4.5117,0,0,0,.6113.3145q.3413.1479.6973.3115a6.8444,6.8444,0,0,1,.6973.3721,2.8121,2.8121,0,0,1,.6084.5,2.3121,2.3121,0,0,1,.4307.6836A2.3906,2.3906,0,0,1,13.49,31.2539Z" style="fill:#fa325a"/><path d="M19.1227,33.5918a.5682.5682,0,0,1-.0889.1875.3294.3294,0,0,1-.1777.1094,1.4518,1.4518,0,0,1-.335.0488c-.1416.0059-.3262.01-.5537.01-.1826,0-.3379-.001-.4687-.0039-.1289-.002-.24-.0078-.3311-.0166a1.0618,1.0618,0,0,1-.2217-.041.5376.5376,0,0,1-.1445-.0684.2808.2808,0,0,1-.0879-.0986.8112.8112,0,0,1-.0586-.1475L14.0231,25.73a2.047,2.047,0,0,1-.0986-.39.2268.2268,0,0,1,.0684-.2158.5269.5269,0,0,1,.29-.0879q.2051-.0176.5742-.0176c.21,0,.374.0049.4922.0137a1.1047,1.1047,0,0,1,.2734.0479.2335.2335,0,0,1,.1338.1025,1.0886,1.0886,0,0,1,.0713.1709l2.1533,6.8223h.0068L20.1,25.3887a.71.71,0,0,1,.0684-.1875.27.27,0,0,1,.1406-.1133.9392.9392,0,0,1,.2832-.0547c.123-.0088.292-.0137.5059-.0137a4.4239,4.4239,0,0,1,.4883.0205.36.36,0,0,1,.24.0986.2709.2709,0,0,1,.041.2227,2.6282,2.6282,0,0,1-.1064.3828Z" style="fill:#fa325a"/><path d="M29.8551,26.4346a3.11,3.11,0,0,1-.0166.3418,1.04,1.04,0,0,1-.0488.2295.25.25,0,0,1-.0742.1191.1734.1734,0,0,1-.1064.0342.6639.6639,0,0,1-.2871-.123,4.2428,4.2428,0,0,0-.5264-.2666,5.6394,5.6394,0,0,0-.7832-.2666,4.0548,4.0548,0,0,0-1.0557-.123,2.9387,2.9387,0,0,0-1.1621.2217,2.534,2.534,0,0,0-.8887.6289,2.8017,2.8017,0,0,0-.5674.9785A3.8276,3.8276,0,0,0,24.14,29.47a4.0466,4.0466,0,0,0,.2021,1.3369,2.7057,2.7057,0,0,0,.5635.9668,2.3172,2.3172,0,0,0,.8721.5879,3.0772,3.0772,0,0,0,1.124.1982,2.603,2.603,0,0,0,.5947-.0684,2.21,2.21,0,0,0,.5469-.2051V30.2354H26.3688c-.082,0-.1455-.0518-.1914-.1533a1.4111,1.4111,0,0,1-.0684-.5234,2.6647,2.6647,0,0,1,.0166-.3213.8036.8036,0,0,1,.0518-.208.29.29,0,0,1,.082-.1172.1763.1763,0,0,1,.1094-.0371h2.9873a.494.494,0,0,1,.1953.0371.44.44,0,0,1,.15.1133.5084.5084,0,0,1,.0986.1816.7968.7968,0,0,1,.0342.2422V32.97a.8211.8211,0,0,1-.0723.3584.5068.5068,0,0,1-.293.2432q-.2227.0894-.5508.1846t-.68.1641q-.353.0688-.7109.1025-.36.0337-.7217.0342a5.5288,5.5288,0,0,1-1.8975-.3047,3.72,3.72,0,0,1-2.3066-2.2891,5.4018,5.4018,0,0,1-.3076-1.8838,5.4745,5.4745,0,0,1,.3281-1.9521,4.1177,4.1177,0,0,1,.93-1.4687,4.0135,4.0135,0,0,1,1.4521-.9268A5.3493,5.3493,0,0,1,26.902,24.91a6.4631,6.4631,0,0,1,1.0459.0781,6.13,6.13,0,0,1,.8242.1914,3.2936,3.2936,0,0,1,.584.2432,1.4539,1.4539,0,0,1,.3242.2256.5609.5609,0,0,1,.1338.27A2.4337,2.4337,0,0,1,29.8551,26.4346Z" style="fill:#fa325a"/></svg>
