<svg xmlns="http://www.w3.org/2000/svg" viewBox="0 0 38 47"><title>txt</title><path d="M38,13.8291V44a3.0033,3.0033,0,0,1-3,3H3a3.0033,3.0033,0,0,1-3-3V3A3.0033,3.0033,0,0,1,3,0H24.17A2.9815,2.9815,0,0,1,26.291.8789l10.83,10.8291A2.9815,2.9815,0,0,1,38,13.8291ZM25.999,11.001a1.0007,1.0007,0,0,0,1,1h7.5868L25.999,3.415ZM36,44V14.001H26.999a3.0033,3.0033,0,0,1-3-3V2H3A1.0007,1.0007,0,0,0,2,3V44a1.0007,1.0007,0,0,0,1,1H35A1.0007,1.0007,0,0,0,36,44Z" style="fill:#fa325a"/><path d="M15.0621,25.7988a2.7613,2.7613,0,0,1-.0176.3379.9226.9226,0,0,1-.0508.2266.29.29,0,0,1-.0859.126.1733.1733,0,0,1-.1123.041H12.5807v7.13a.19.19,0,0,1-.0439.123.3171.3171,0,0,1-.1475.0889,1.4756,1.4756,0,0,1-.2764.0547,4.6146,4.6146,0,0,1-.8691,0,1.4756,1.4756,0,0,1-.2764-.0547.3171.3171,0,0,1-.1475-.0889.19.19,0,0,1-.0439-.123V26.53H8.5612a.1725.1725,0,0,1-.1162-.041.3134.3134,0,0,1-.082-.126.9226.9226,0,0,1-.0508-.2266,2.7613,2.7613,0,0,1-.0176-.3379,2.93,2.93,0,0,1,.0176-.3486.9285.9285,0,0,1,.0508-.2295.2881.2881,0,0,1,.082-.123.1859.1859,0,0,1,.1162-.0371h6.2344a.1867.1867,0,0,1,.1123.0371.2685.2685,0,0,1,.0859.123.9285.9285,0,0,1,.0508.2295A2.93,2.93,0,0,1,15.0621,25.7988Z" style="fill:#fa325a"/><path d="M22.4108,33.2295a2.0464,2.0464,0,0,1,.1611.3828.2064.2064,0,0,1-.0449.2188.5247.5247,0,0,1-.2969.0957q-.2168.0205-.5986.0205c-.2139,0-.3828-.0049-.5059-.0137a1.3738,1.3738,0,0,1-.29-.0449.3123.3123,0,0,1-.1543-.085.475.475,0,0,1-.082-.1367l-1.6611-3.1924L17.2838,33.667a.6244.6244,0,0,1-.0889.1367.3123.3123,0,0,1-.1543.085,1.3849,1.3849,0,0,1-.293.0449c-.126.0088-.291.0137-.4961.0137-.2373,0-.42-.0068-.5508-.0205a.4173.4173,0,0,1-.2627-.0957.2187.2187,0,0,1-.0273-.2187,2.0153,2.0153,0,0,1,.1709-.3828l2.1191-3.8623-1.9687-3.63a2.7333,2.7333,0,0,1-.168-.3936.1988.1988,0,0,1,.0352-.2187.5.5,0,0,1,.29-.0879q.2124-.0176.6016-.0176c.2139,0,.3838.0049.5088.0137a1.462,1.462,0,0,1,.2979.0449.288.288,0,0,1,.1533.085.7029.7029,0,0,1,.0859.1367l1.5518,2.9258L20.5992,25.3a.7029.7029,0,0,1,.0859-.1367.2837.2837,0,0,1,.1426-.085,1.2365,1.2365,0,0,1,.2734-.0449c.1172-.0088.2773-.0137.4824-.0137.2275,0,.4082.0059.54.0176a.4391.4391,0,0,1,.2734.0918.216.216,0,0,1,.0381.2188,2.4993,2.4993,0,0,1-.1543.39l-1.9687,3.6094Z" style="fill:#fa325a"/><path d="M29.7047,25.7988a2.7613,2.7613,0,0,1-.0176.3379.9226.9226,0,0,1-.0508.2266.29.29,0,0,1-.0859.126.1733.1733,0,0,1-.1123.041H27.2233v7.13a.19.19,0,0,1-.0439.123.3171.3171,0,0,1-.1475.0889,1.4756,1.4756,0,0,1-.2764.0547,4.6146,4.6146,0,0,1-.8691,0,1.4756,1.4756,0,0,1-.2764-.0547.3171.3171,0,0,1-.1475-.0889.19.19,0,0,1-.0439-.123V26.53H23.2037a.1725.1725,0,0,1-.1162-.041.3134.3134,0,0,1-.082-.126.9226.9226,0,0,1-.0508-.2266,2.7613,2.7613,0,0,1-.0176-.3379,2.93,2.93,0,0,1,.0176-.3486.9285.9285,0,0,1,.0508-.2295.2881.2881,0,0,1,.082-.123.1859.1859,0,0,1,.1162-.0371h6.2344a.1867.1867,0,0,1,.1123.0371.2685.2685,0,0,1,.0859.123.9285.9285,0,0,1,.0508.2295A2.93,2.93,0,0,1,29.7047,25.7988Z" style="fill:#fa325a"/></svg>
