<svg xmlns="http://www.w3.org/2000/svg" viewBox="0 0 38 47"><title>xlsx</title><path d="M38,13.8291V44a3.0033,3.0033,0,0,1-3,3H3a3.0033,3.0033,0,0,1-3-3V3A3.0033,3.0033,0,0,1,3,0H24.17A2.9815,2.9815,0,0,1,26.291.8789l10.83,10.8291A2.9815,2.9815,0,0,1,38,13.8291ZM25.999,11.001a1.0007,1.0007,0,0,0,1,1h7.5868L25.999,3.415ZM36,44V14.001H26.999a3.0033,3.0033,0,0,1-3-3V2H3A1.0007,1.0007,0,0,0,2,3V44a1.0007,1.0007,0,0,0,1,1H35A1.0007,1.0007,0,0,0,36,44Z" style="fill:#fa325a"/><path d="M24.36,34.8428a3.244,3.244,0,0,1,.2529.6016.3234.3234,0,0,1-.07.3438.8176.8176,0,0,1-.4668.15c-.2266.0215-.5391.0322-.94.0322q-.5054,0-.7949-.0215a2.2586,2.2586,0,0,1-.4561-.07.4872.4872,0,0,1-.2422-.1338.7986.7986,0,0,1-.1289-.2148l-2.61-5.0166-2.6,5.0166a1.0345,1.0345,0,0,1-.14.2148.4872.4872,0,0,1-.2422.1338,2.2808,2.2808,0,0,1-.4609.07q-.2959.022-.7793.0215-.5581,0-.8652-.0322a.6484.6484,0,0,1-.4131-.15.346.346,0,0,1-.043-.3437,3.246,3.246,0,0,1,.2686-.6016l3.33-6.0693-3.0937-5.7041a4.2406,4.2406,0,0,1-.2637-.6182.3123.3123,0,0,1,.0547-.3437.7907.7907,0,0,1,.4561-.1387q.3325-.0278.9453-.0273.5054,0,.8.0215a2.398,2.398,0,0,1,.4678.07.4547.4547,0,0,1,.2412.1338,1.1664,1.1664,0,0,1,.1348.2148l2.4385,4.5977,2.374-4.5977a1.1664,1.1664,0,0,1,.1348-.2148.4423.4423,0,0,1,.2246-.1338,2.0271,2.0271,0,0,1,.43-.07c.1836-.0146.4355-.0215.7578-.0215.3584,0,.6406.0088.8486.0273a.689.689,0,0,1,.43.1445.3365.3365,0,0,1,.06.3438,3.8514,3.8514,0,0,1-.2422.6123l-3.0937,5.6719Z" style="fill:#fa325a"/></svg>
